<?xml version="1.0" encoding="UTF-8"?>
<svg version="1.1" xmlns="http://www.w3.org/2000/svg" width="16" height="16">
<path d="M0 0 C5.28 0 10.56 0 16 0 C16 5.28 16 10.56 16 16 C10.72 16 5.44 16 0 16 C0 10.72 0 5.44 0 0 Z " style="stroke:none;fill:#787878" transform="translate(0,0)"/>
<path d="M0 0 C6 0 6 0 7.89453125 1.671875 C9.25188712 4.53047604 9.13770571 6.13948784 8.6875 9.25 C8.56761719 10.14203125 8.44773437 11.0340625 8.32421875 11.953125 C8.21722656 12.62859375 8.11023437 13.3040625 8 14 C7.01 14 6.02 14 5 14 C5 11.03 5 8.06 5 5 C4.67 7.97 4.34 10.94 4 14 C2.68 14 1.36 14 0 14 C0 9.38 0 4.76 0 0 Z " fill="#CFDFEA" transform="translate(1,1)"/>
<path d="M0 0 C1.875 0.3125 1.875 0.3125 4 1 C6.30143236 4.45214853 6.13833854 5.23479324 5.625 9.1875 C5.51414062 10.08855469 5.40328125 10.98960938 5.2890625 11.91796875 C5.19367187 12.60503906 5.09828125 13.29210938 5 14 C4.01 14 3.02 14 2 14 C2 10.33333333 2 6.66666667 2 3 C1.34 2.01 0.68 1.02 0 0 Z " fill="#BFD4E4" transform="translate(4,1)"/>
<path d="M0 0 C2.88575819 0.39803561 3.82189513 0.79009069 5.75 3.0625 C6.1625 3.701875 6.575 4.34125 7 5 C6.34 5 5.68 5 5 5 C4.67 7.97 4.34 10.94 4 14 C3.67 14 3.34 14 3 14 C2.92652344 12.86111328 2.92652344 12.86111328 2.8515625 11.69921875 C2.77679688 10.70535156 2.70203125 9.71148437 2.625 8.6875 C2.55539062 7.70136719 2.48578125 6.71523437 2.4140625 5.69921875 C2.16134528 2.78471567 2.16134528 2.78471567 0 0 Z " fill="#F1F5F8" transform="translate(1,1)"/>
</svg>
