<svg width="17" height="17" viewBox="0 0 17 17" fill="none" xmlns="http://www.w3.org/2000/svg">
<path d="M15.5 11.5C16.0312 11.5 16.5 11.9688 16.5 12.5V15.5C16.5 16.0625 16.0312 16.5 15.5 16.5H1.5C0.9375 16.5 0.5 16.0625 0.5 15.5V12.5C0.5 11.9688 0.9375 11.5 1.5 11.5H5.65625L7.0625 12.9375C7.4375 13.3125 7.9375 13.5 8.5 13.5C9.03125 13.5 9.53125 13.3125 9.90625 12.9375L11.3125 11.5H15.5ZM14 14.75C14.4062 14.75 14.75 14.4375 14.75 14C14.75 13.5938 14.4062 13.25 14 13.25C13.5625 13.25 13.25 13.5938 13.25 14C13.25 14.4375 13.5625 14.75 14 14.75ZM7.78125 12.2188L3.78125 8.21875C3.375 7.84375 3.375 7.1875 3.78125 6.8125C4.15625 6.40625 4.8125 6.40625 5.1875 6.8125L7.5 9.09375V1.5C7.5 0.96875 7.9375 0.5 8.5 0.5C9.03125 0.5 9.5 0.96875 9.5 1.5V9.09375L11.7812 6.8125C12.1562 6.40625 12.8125 6.40625 13.1875 6.8125C13.5938 7.1875 13.5938 7.84375 13.1875 8.21875L9.1875 12.2188C9 12.4062 8.75 12.5 8.5 12.5C8.21875 12.5 7.96875 12.4062 7.78125 12.2188Z" fill="#01417F"/>
</svg>
