<svg xmlns="http://www.w3.org/2000/svg" width="29.13" height="22.657" viewBox="0 0 29.13 22.657">
  <g id="address-card" style="isolation: isolate">
    <path id="address-card-2" data-name="address-card" d="M26.7,32H2.427A2.428,2.428,0,0,0,0,34.427v17.8a2.428,2.428,0,0,0,2.427,2.427H26.7a2.428,2.428,0,0,0,2.427-2.427v-17.8A2.428,2.428,0,0,0,26.7,32ZM8.9,36.855a3.237,3.237,0,1,1-3.237,3.237A3.24,3.24,0,0,1,8.9,36.855Zm5.664,11.976a1.061,1.061,0,0,1-1.133.971H4.369a1.061,1.061,0,0,1-1.133-.971V47.86a3.185,3.185,0,0,1,3.4-2.913h.253a5.209,5.209,0,0,0,4.026,0h.253a3.185,3.185,0,0,1,3.4,2.913Zm11.328-2.67a.406.406,0,0,1-.4.4H18.206a.406.406,0,0,1-.4-.4v-.809a.406.406,0,0,1,.4-.4h7.282a.406.406,0,0,1,.4.4Zm0-3.237a.406.406,0,0,1-.4.4H18.206a.406.406,0,0,1-.4-.4v-.809a.406.406,0,0,1,.4-.4h7.282a.406.406,0,0,1,.4.4Zm0-3.237a.406.406,0,0,1-.4.4H18.206a.406.406,0,0,1-.4-.4v-.809a.406.406,0,0,1,.4-.4h7.282a.406.406,0,0,1,.4.4Z" transform="translate(0 -32)"/>
  </g>
</svg>
