<svg xmlns="http://www.w3.org/2000/svg" width="25.403" height="29.032" viewBox="0 0 25.403 29.032">
  <g id="address-book" style="isolation: isolate">
    <path id="address-book-2" data-name="address-book" d="M24.722,9.072a.682.682,0,0,0,.68-.68V6.124a.682.682,0,0,0-.68-.68H23.588V2.722A2.722,2.722,0,0,0,20.867,0H2.722A2.722,2.722,0,0,0,0,2.722V26.31a2.722,2.722,0,0,0,2.722,2.722H20.867a2.722,2.722,0,0,0,2.722-2.722V23.588h1.134a.682.682,0,0,0,.68-.68V20.64a.682.682,0,0,0-.68-.68H23.588V16.33h1.134a.682.682,0,0,0,.68-.68V13.382a.682.682,0,0,0-.68-.68H23.588V9.072ZM20.867,26.31H2.722V2.722H20.867ZM11.794,14.516a3.629,3.629,0,1,0-3.629-3.629A3.632,3.632,0,0,0,11.794,14.516ZM6.714,21.774H16.875a1.189,1.189,0,0,0,1.27-1.089V19.6a3.571,3.571,0,0,0-3.81-3.266,13.69,13.69,0,0,1-2.54.454,13.491,13.491,0,0,1-2.54-.454A3.571,3.571,0,0,0,5.443,19.6v1.089A1.189,1.189,0,0,0,6.714,21.774Z"/>
  </g>
</svg>
