<svg xmlns="http://www.w3.org/2000/svg" width="24.254" height="27.719" viewBox="0 0 24.254 27.719">
  <g id="address-book" style="isolation: isolate">
    <path id="address-book-2" data-name="address-book" d="M23.6,8.662a.652.652,0,0,0,.65-.65V5.847a.652.652,0,0,0-.65-.65H22.522V2.6a2.6,2.6,0,0,0-2.6-2.6H2.6A2.6,2.6,0,0,0,0,2.6V25.121a2.6,2.6,0,0,0,2.6,2.6H19.923a2.6,2.6,0,0,0,2.6-2.6v-2.6H23.6a.652.652,0,0,0,.65-.65V19.707a.652.652,0,0,0-.65-.65H22.522V15.592H23.6a.652.652,0,0,0,.65-.65V12.777a.652.652,0,0,0-.65-.65H22.522V8.662ZM11.261,6.93A3.465,3.465,0,1,1,7.8,10.395,3.468,3.468,0,0,1,11.261,6.93Zm6.064,12.82a1.135,1.135,0,0,1-1.213,1.039H6.41A1.135,1.135,0,0,1,5.2,19.75V18.71a3.409,3.409,0,0,1,3.638-3.118h.271a5.576,5.576,0,0,0,4.309,0h.271a3.409,3.409,0,0,1,3.638,3.118Z"/>
  </g>
</svg>
