<svg xmlns="http://www.w3.org/2000/svg" width="36.466" height="28.375" viewBox="0 0 36.466 28.375">
  <g id="american_sign_language_interpreting" data-name="american sign language interpreting" style="isolation: isolate">
    <path id="american-sign-language-interpreting" d="M16.555,17.373a4.766,4.766,0,0,0-3.689-.222,5.072,5.072,0,0,1,4.876,2.882A1.522,1.522,0,0,1,16.4,22.2a1.522,1.522,0,0,1,1.346,2.169,5.1,5.1,0,0,1-4.575,2.9c-.032,0-5.383-.491-5.383-.491L4,28.678a1.013,1.013,0,0,1-1.361-.443L.106,23.168a1.035,1.035,0,0,1,.4-1.346L3.81,19.938,6.153,15.71A12.608,12.608,0,0,1,10.7,7.35a1.518,1.518,0,0,1,1.931,2.343,10.175,10.175,0,0,0-1.852,2.027A9.527,9.527,0,0,1,15,10.121a1.516,1.516,0,0,1,.38,3.008A6.439,6.439,0,0,0,12.866,14a7.906,7.906,0,0,1,5.019.633,1.522,1.522,0,0,1-1.33,2.739ZM15,21.331a2.027,2.027,0,1,0,0,1.742,1.512,1.512,0,0,1,1.33-.871A1.512,1.512,0,0,1,15,21.331ZM36.36,19.21a1.035,1.035,0,0,1-.4,1.346L32.655,22.44l-2.343,4.228a12.608,12.608,0,0,1-4.544,8.36,1.518,1.518,0,0,1-1.931-2.343,10.174,10.174,0,0,0,1.852-2.027,9.527,9.527,0,0,1-4.227,1.6,1.515,1.515,0,0,1-1.694-1.314,1.5,1.5,0,0,1,1.314-1.694,6.44,6.44,0,0,0,2.517-.871,7.906,7.906,0,0,1-5.019-.633A1.523,1.523,0,0,1,19.911,25a4.766,4.766,0,0,0,3.689.222,5.072,5.072,0,0,1-4.876-2.882,1.522,1.522,0,0,1,1.346-2.169,1.522,1.522,0,0,1-1.346-2.169,5.1,5.1,0,0,1,4.67-2.9l5.288.491,3.784-1.9a1.013,1.013,0,0,1,1.361.443L36.36,19.21ZM23.3,18.149A2.028,2.028,0,0,0,21.462,19.3a1.512,1.512,0,0,1-1.33.871,1.512,1.512,0,0,1,1.33.871,2.029,2.029,0,1,0,1.836-2.9Z" transform="translate(0 -7.001)"/>
  </g>
</svg>
