<svg xmlns="http://www.w3.org/2000/svg" width="28.11" height="24.596" viewBox="0 0 28.11 24.596">
  <g id="archive" style="isolation: isolate">
    <path id="archive-2" data-name="archive" d="M1.757,54.84A1.755,1.755,0,0,0,3.514,56.6H24.6a1.755,1.755,0,0,0,1.757-1.757V39.028H1.757ZM10.541,43.2a.661.661,0,0,1,.659-.659h5.71a.661.661,0,0,1,.659.659v.439a.661.661,0,0,1-.659.659H11.2a.661.661,0,0,1-.659-.659ZM26.353,32H1.757A1.755,1.755,0,0,0,0,33.757v2.635a.881.881,0,0,0,.878.878H27.232a.881.881,0,0,0,.878-.878V33.757A1.755,1.755,0,0,0,26.353,32Z" transform="translate(0 -32)"/>
  </g>
</svg>
