<svg xmlns="http://www.w3.org/2000/svg" width="28.538" height="28.538" viewBox="0 0 28.538 28.538">
  <g id="assistive-listening-systems" style="isolation: isolate">
    <path id="assistive-listening-systems-2" data-name="assistive-listening-systems" d="M12.04,14.492a1.561,1.561,0,0,1-3.121,0,4.459,4.459,0,1,1,8.918,0,1.561,1.561,0,1,1-3.121,0,1.338,1.338,0,0,0-2.675,0Zm1.338-9.81a9.821,9.821,0,0,0-9.81,9.81,1.561,1.561,0,0,0,3.121,0,6.689,6.689,0,0,1,13.377,0c0,4.19-3.958,3.919-4.013,8.005v.021a2.9,2.9,0,0,1-2.9,2.9,1.561,1.561,0,1,0,0,3.121,6.027,6.027,0,0,0,6.02-6.007c.033-1.919,4.013-2.689,4.013-8.039A9.821,9.821,0,0,0,13.377,4.682ZM8.918,17.837A1.784,1.784,0,1,0,10.7,19.62,1.784,1.784,0,0,0,8.918,17.837ZM1.784,24.971a1.784,1.784,0,1,0,1.784,1.784A1.784,1.784,0,0,0,1.784,24.971ZM28.538,14.493c0-.085,0-.169,0-.253A15.238,15.238,0,0,0,18.282.084a1.561,1.561,0,0,0-1.009,2.954,12.108,12.108,0,0,1,8.142,11.257v.01c0,.062,0,.125,0,.187a1.561,1.561,0,0,0,3.121,0ZM8.526,24.471,4.067,20.012,2.175,21.9l4.459,4.459,1.892-1.892Z" transform="translate(0 0)"/>
  </g>
</svg>
