<svg xmlns="http://www.w3.org/2000/svg" width="26.539" height="26.539" viewBox="0 0 26.539 26.539">
  <g id="at" style="isolation: isolate">
    <path id="at-2" data-name="at" d="M21.269,8a13.269,13.269,0,1,0,7.245,24.386,1.286,1.286,0,0,0,.3-1.893l-.545-.665a1.281,1.281,0,0,0-1.679-.274,9.845,9.845,0,1,1-5.319-18.13c5.358,0,9.845,3.083,9.845,8.561,0,2.075-1.129,4.267-3.112,4.478-.928-.024-.9-.688-.721-1.606l1.254-6.48a1.284,1.284,0,0,0-1.261-1.528H24.867a.723.723,0,0,0-.719.642v0a4.114,4.114,0,0,0-3.209-1.165c-3.99,0-7.375,3.33-7.375,8.1,0,3.494,1.968,5.665,5.136,5.665a5.414,5.414,0,0,0,4.012-2.051c.509,1.825,2.173,1.825,3.783,1.825,5.827,0,8.042-3.832,8.042-7.887C34.539,12.69,28.654,8,21.269,8Zm-1.16,16.289a1.917,1.917,0,0,1-1.93-2.181c0-2.407,1.647-3.891,3.137-3.891,1.193,0,1.9.815,1.9,2.181,0,2.411-1.812,3.891-3.112,3.891Z" transform="translate(-8 -8)"/>
  </g>
</svg>
