<svg xmlns="http://www.w3.org/2000/svg" width="28.084" height="21.063" viewBox="0 0 28.084 21.063">
  <g id="audio-description" style="isolation: isolate">
    <path id="audio-description-2" data-name="audio-description" d="M8.937,73.583l.484,1.681h-1.4l.5-1.681c.07-.243.145-.548.212-.836C8.791,73.035,8.867,73.341,8.937,73.583Zm9.131-1.761h-.8v5.418h.8c1.633,0,2.533-.97,2.533-2.73A2.368,2.368,0,0,0,18.068,71.822Zm10.016-5.19v15.8a2.633,2.633,0,0,1-2.633,2.633H2.633A2.633,2.633,0,0,1,0,82.43v-15.8A2.633,2.633,0,0,1,2.633,64H25.451A2.633,2.633,0,0,1,28.084,66.633ZM13.464,78.927l-3.132-9.215a.658.658,0,0,0-.623-.446H7.74a.658.658,0,0,0-.623.446L3.985,78.927a.658.658,0,0,0,.623.87h1.6a.658.658,0,0,0,.633-.477l.47-1.64h2.818l.482,1.644a.658.658,0,0,0,.632.473h1.6a.658.658,0,0,0,.623-.87ZM23.6,74.51c0-3.235-2.08-5.245-5.428-5.245H15.02a.658.658,0,0,0-.658.658v9.215a.658.658,0,0,0,.658.658h3.147C21.515,79.8,23.6,77.772,23.6,74.51Z" transform="translate(0 -64)"/>
  </g>
</svg>
