<svg xmlns="http://www.w3.org/2000/svg" width="32" height="42.656" viewBox="0 0 32 42.656">
  <g id="award-solid" transform="translate(0)" style="isolation: isolate">
    <path id="award-solid-2" data-name="award-solid" d="M14.431.481a2.748,2.748,0,0,1,3.032,0l1.483.975a2.78,2.78,0,0,0,1.674.45L22.4,1.8a2.751,2.751,0,0,1,2.624,1.516l.8,1.591a2.764,2.764,0,0,0,1.225,1.225l1.608.808a2.751,2.751,0,0,1,1.516,2.624l-.108,1.774a2.764,2.764,0,0,0,.45,1.674l.983,1.483a2.748,2.748,0,0,1,0,3.032l-.983,1.491a2.78,2.78,0,0,0-.45,1.674l.108,1.774a2.751,2.751,0,0,1-1.516,2.624l-1.591.8a2.764,2.764,0,0,0-1.225,1.225l-.808,1.608A2.751,2.751,0,0,1,22.4,30.238l-1.774-.108a2.764,2.764,0,0,0-1.674.45l-1.483.983a2.748,2.748,0,0,1-3.032,0l-1.491-.983a2.78,2.78,0,0,0-1.674-.45L9.5,30.238a2.751,2.751,0,0,1-2.624-1.516l-.8-1.591a2.764,2.764,0,0,0-1.225-1.225L3.243,25.1a2.751,2.751,0,0,1-1.516-2.624L1.835,20.7a2.764,2.764,0,0,0-.45-1.674L.411,17.534a2.748,2.748,0,0,1,0-3.032l.975-1.483a2.78,2.78,0,0,0,.45-1.674L1.727,9.57A2.751,2.751,0,0,1,3.243,6.946l1.591-.8A2.819,2.819,0,0,0,6.067,4.9l.8-1.591A2.751,2.751,0,0,1,9.491,1.8l1.774.108a2.764,2.764,0,0,0,1.674-.45Zm8.181,15.537a6.664,6.664,0,1,0-6.664,6.664A6.664,6.664,0,0,0,22.612,16.018ZM.061,36.827l3.59-8.539a.065.065,0,0,1,.033.033l.8,1.591A5.433,5.433,0,0,0,9.649,32.9l1.774-.108a.079.079,0,0,1,.058.017l1.483.983a5.661,5.661,0,0,0,1.341.641l-3.132,7.439a1.33,1.33,0,0,1-2.341.208L6.151,37.969l-4.673.691a1.36,1.36,0,0,1-1.25-.5,1.327,1.327,0,0,1-.175-1.333Zm20.66,5.032-3.132-7.431a5.356,5.356,0,0,0,1.341-.641l1.483-.983a.12.12,0,0,1,.058-.017l1.774.108a5.433,5.433,0,0,0,5.165-2.982l.8-1.591a.065.065,0,0,1,.033-.033l3.6,8.539a1.349,1.349,0,0,1-.175,1.333,1.316,1.316,0,0,1-1.25.5l-4.673-.691-2.682,4.1a1.33,1.33,0,0,1-2.341-.208Z" transform="translate(0.052 -0.025)"/>
  </g>
</svg>
