<svg xmlns="http://www.w3.org/2000/svg" width="29.55" height="22.169" viewBox="0 0 29.55 22.169">
  <g id="backward" transform="translate(0)" style="isolation: isolate">
    <path id="backward-2" data-name="backward" d="M.687,76.454l11.082,9.235a1.848,1.848,0,0,0,3.03-1.42V65.8a1.848,1.848,0,0,0-3.03-1.42L.687,73.614A1.853,1.853,0,0,0,.687,76.454Zm14.776,0,11.082,9.235a1.848,1.848,0,0,0,3.03-1.42V65.8a1.848,1.848,0,0,0-3.03-1.42L15.463,73.614A1.853,1.853,0,0,0,15.463,76.454Z" transform="translate(-0.025 -63.95)"/>
  </g>
</svg>
