<svg xmlns="http://www.w3.org/2000/svg" width="42.89" height="32.167" viewBox="0 0 42.89 32.167">
  <g id="barcode" style="isolation: isolate">
    <path id="barcode-2" data-name="barcode" d="M0,96.167V64H1.508V96.167Zm2.25-.023V64h.766V96.145Zm2.274,0V64h.742V96.145Zm3.758,0V64h.742V96.145Zm3.016,0V64h1.484V96.145Zm3.758,0V64H15.8V96.145Zm1.508,0V64H17.3V96.145Zm1.508,0V64h.742V96.145Zm2.992,0V64H22.57V96.145Zm3.758,0V64h1.508V96.145Zm3.016,0V64h1.508V96.145Zm3.016,0V64h1.508V96.145Zm2.25,0V64h1.508V96.145Zm3.782,0V64h2.25V96.145Zm2.992,0V64h.766V96.145h-.766Zm1.508.023V64H42.89V96.167Z" transform="translate(0 -64)"/>
  </g>
</svg>
