<svg xmlns="http://www.w3.org/2000/svg" width="27.336" height="31.241" viewBox="0 0 27.336 31.241">
  <g id="bell" style="isolation: isolate">
    <path id="bell-2" data-name="bell" d="M13.667,31.241a3.9,3.9,0,0,0,3.9-3.905H9.764A3.9,3.9,0,0,0,13.667,31.241ZM26.81,22.106c-1.179-1.267-3.385-3.172-3.385-9.414a9.636,9.636,0,0,0-7.807-9.468V1.953a1.951,1.951,0,1,0-3.9,0V3.224a9.636,9.636,0,0,0-7.807,9.468c0,6.242-2.206,8.148-3.385,9.414A1.906,1.906,0,0,0,0,23.431a1.954,1.954,0,0,0,1.959,1.953H25.377a1.954,1.954,0,0,0,1.959-1.953A1.905,1.905,0,0,0,26.81,22.106Z" transform="translate(0.001)"/>
  </g>
</svg>
