<svg xmlns="http://www.w3.org/2000/svg" width="26.596" height="30.396" viewBox="0 0 26.596 30.396">
  <g id="bell" transform="translate(0)" style="isolation: isolate">
    <path id="bell-2" data-name="bell" d="M26.085,21.508c-1.147-1.232-3.293-3.086-3.293-9.16a9.375,9.375,0,0,0-7.6-9.211V1.9a1.9,1.9,0,1,0-3.8,0V3.137a9.375,9.375,0,0,0-7.6,9.211c0,6.073-2.146,7.927-3.293,9.16A1.855,1.855,0,0,0,0,22.8a1.9,1.9,0,0,0,1.906,1.9H24.69A1.9,1.9,0,0,0,26.6,22.8a1.854,1.854,0,0,0-.511-1.289Zm-22.076.339c1.26-1.66,2.637-4.413,2.644-9.464,0-.012,0-.023,0-.034a6.649,6.649,0,1,1,13.3,0c0,.012,0,.023,0,.034.007,5.052,1.384,7.8,2.644,9.464ZM13.3,30.4a3.8,3.8,0,0,0,3.8-3.8H9.5A3.8,3.8,0,0,0,13.3,30.4Z" transform="translate(0)"/>
  </g>
</svg>
