<svg xmlns="http://www.w3.org/2000/svg" width="36.866" height="29.493" viewBox="0 0 36.866 29.493">
  <g id="bell-slash" style="isolation: isolate">
    <path id="bell-slash-2" data-name="bell-slash" d="M36.516,27.132,2.07.2a.922.922,0,0,0-1.3.143L.2,1.065a.921.921,0,0,0,.143,1.3L34.788,29.29a.922.922,0,0,0,1.3-.143l.576-.719a.921.921,0,0,0-.144-1.3ZM9.416,21.2a12.811,12.811,0,0,0,2.385-6.37L9.181,12.78c-.188,5.226-2.1,6.952-3.159,8.089a1.8,1.8,0,0,0-.5,1.251,1.845,1.845,0,0,0,1.849,1.843H23.485L19.948,21.2H9.416ZM18.429,5.53a6.451,6.451,0,0,1,6.452,6.452c0,.012,0,.022,0,.033a22.584,22.584,0,0,0,.161,2.634l3.429,2.681a15.024,15.024,0,0,1-.826-5.348,9.1,9.1,0,0,0-7.37-8.938v-1.2a1.842,1.842,0,1,0-3.684,0v1.2A9.423,9.423,0,0,0,12.6,4.928l2.2,1.719A6.417,6.417,0,0,1,18.429,5.53Zm0,23.963a3.686,3.686,0,0,0,3.685-3.687h-7.37A3.686,3.686,0,0,0,18.429,29.493Z" transform="translate(0.004)"/>
  </g>
</svg>
