<svg xmlns="http://www.w3.org/2000/svg" width="35.295" height="28.236" viewBox="0 0 35.295 28.236">
  <path id="bell-slash" d="M34.955,25.264l-5-3.863A1.656,1.656,0,0,0,30,21.177a1.722,1.722,0,0,0-.475-1.2c-1.065-1.145-3.059-2.867-3.059-8.509a8.709,8.709,0,0,0-7.056-8.557V1.765a1.764,1.764,0,1,0-3.527,0V2.914A8.858,8.858,0,0,0,10.5,6.365L2.508.186A.883.883,0,0,0,1.27.341L.187,1.734A.882.882,0,0,0,.342,2.973L32.788,28.05a.882.882,0,0,0,1.239-.155L35.11,26.5A.882.882,0,0,0,34.955,25.264ZM8.672,13.872a9.365,9.365,0,0,1-2.9,6.108,1.723,1.723,0,0,0-.475,1.2,1.766,1.766,0,0,0,1.77,1.765H20.407Zm8.977,14.364a3.529,3.529,0,0,0,3.528-3.53H14.121A3.529,3.529,0,0,0,17.648,28.236Z" transform="translate(-0.001)"/>
</svg>
