<svg xmlns="http://www.w3.org/2000/svg" width="24.22" height="27.68" viewBox="0 0 24.22 27.68">
  <g id="birthday-cake" style="isolation: isolate">
    <path id="birthday-cake-2" data-name="birthday-cake" d="M24.22,20.76c-1.515,0-1.69-1.73-4.028-1.73s-2.531,1.73-4.041,1.73-1.7-1.73-4.041-1.73c-2.316,0-2.553,1.73-4.028,1.73-1.522,0-1.687-1.73-4.041-1.73S1.519,20.76,0,20.76V16.435a2.6,2.6,0,0,1,2.6-2.6H3.46V6.055H6.92V13.84h3.46V6.055h3.46V13.84H17.3V6.055h3.46V13.84h.865a2.6,2.6,0,0,1,2.6,2.6Zm0,6.92H0V22.49c2.344,0,2.528-1.73,4.041-1.73s1.69,1.73,4.041,1.73c2.316,0,2.553-1.73,4.028-1.73,1.522,0,1.687,1.73,4.041,1.73s2.528-1.73,4.041-1.73c1.486,0,1.69,1.73,4.028,1.73ZM5.19,5.19A1.725,1.725,0,0,1,3.46,3.46C3.46,1.784,5.19,2.217,5.19,0c.649,0,1.73,1.595,1.73,3.028S6.15,5.19,5.19,5.19Zm6.92,0a1.725,1.725,0,0,1-1.73-1.73c0-1.676,1.73-1.243,1.73-3.46.649,0,1.73,1.595,1.73,3.028S13.07,5.19,12.11,5.19Zm6.92,0A1.725,1.725,0,0,1,17.3,3.46c0-1.676,1.73-1.243,1.73-3.46.649,0,1.73,1.595,1.73,3.028S19.99,5.19,19.03,5.19Z"/>
  </g>
</svg>
