<svg xmlns="http://www.w3.org/2000/svg" width="21.563" height="28.75" viewBox="0 0 21.563 28.75">
  <g id="blind" style="isolation: isolate">
    <path id="blind-2" data-name="blind" d="M21.346,28.685a.449.449,0,0,1-.617-.151L13.692,16.942a1.793,1.793,0,0,0,.728-.533L21.5,28.068a.449.449,0,0,1-.151.617ZM8.019,17.651,6.192,22.676,8.22,27.633a1.8,1.8,0,1,0,3.326-1.361L8.019,17.651ZM5.391,4.941A2.471,2.471,0,1,0,2.92,2.471,2.471,2.471,0,0,0,5.391,4.941Zm8.694,9.5L7.347,5.9a1.344,1.344,0,0,0-1.058-.512h-1.8a1.343,1.343,0,0,0-1.064.519L0,10.319v5.373A1.372,1.372,0,0,0,1.374,17.07,1.348,1.348,0,0,0,2.7,15.723V11.244l.9-1.155v7.9L.557,26.339a1.8,1.8,0,0,0,3.377,1.228l3.7-10.18V11.368L5.873,9.132a.225.225,0,1,1,.352-.279l5.744,7.256a1.348,1.348,0,0,0,2.115-1.67Z"/>
  </g>
</svg>
