<svg xmlns="http://www.w3.org/2000/svg" width="30.859" height="35.267" viewBox="0 0 30.859 35.267">
  <path id="book-solid" d="M6.613,0A6.614,6.614,0,0,0,0,6.613V28.654a6.614,6.614,0,0,0,6.613,6.613H28.654a2.2,2.2,0,1,0,0-4.408V26.45a2.2,2.2,0,0,0,2.2-2.2V2.2a2.2,2.2,0,0,0-2.2-2.2H6.613Zm0,26.45H24.246v4.408H6.613a2.2,2.2,0,0,1,0-4.408Zm2.2-16.531a1.105,1.105,0,0,1,1.1-1.1H23.144a1.1,1.1,0,1,1,0,2.2H9.919A1.105,1.105,0,0,1,8.817,9.919Zm1.1,3.306H23.144a1.1,1.1,0,1,1,0,2.2H9.919a1.1,1.1,0,0,1,0-2.2Z"/>
</svg>
