<svg xmlns="http://www.w3.org/2000/svg" width="38" height="38" viewBox="0 0 38 38">
  <g id="book-open-reader-solid" style="isolation: isolate">
    <path id="book-open-reader-solid-2" data-name="book-open-reader-solid" d="M11.875,7.125A7.125,7.125,0,1,1,19,14.25a7.125,7.125,0,0,1-7.125-7.125Zm5.938,11.281V38L14.22,36.2a14.276,14.276,0,0,0-4.958-1.432l-7.125-.713A2.382,2.382,0,0,1,0,31.691V16.625A2.372,2.372,0,0,1,2.375,14.25H4.624A23.028,23.028,0,0,1,17.813,18.406ZM20.188,38V18.406A23.028,23.028,0,0,1,33.376,14.25h2.249A2.372,2.372,0,0,1,38,16.625V31.691a2.375,2.375,0,0,1-2.138,2.36l-7.125.712A14.322,14.322,0,0,0,23.78,36.2Z"/>
  </g>
</svg>
