<svg xmlns="http://www.w3.org/2000/svg" width="25.271" height="28.881" viewBox="0 0 25.271 28.881">
  <g id="book" style="isolation: isolate">
    <path id="book-2" data-name="book" d="M25.271,20.307V1.354A1.351,1.351,0,0,0,23.917,0H5.415A5.417,5.417,0,0,0,0,5.415V23.466a5.417,5.417,0,0,0,5.415,5.415h18.5a1.351,1.351,0,0,0,1.354-1.354v-.9a1.364,1.364,0,0,0-.5-1.055,12.579,12.579,0,0,1,0-4.214,1.344,1.344,0,0,0,.5-1.049ZM7.22,7.559a.339.339,0,0,1,.338-.338H19.517a.339.339,0,0,1,.338.338V8.687a.339.339,0,0,1-.338.338H7.559a.339.339,0,0,1-.338-.338Zm0,3.61a.339.339,0,0,1,.338-.338H19.517a.339.339,0,0,1,.338.338V12.3a.339.339,0,0,1-.338.338H7.559A.339.339,0,0,1,7.22,12.3Zm14.294,14.1H5.415a1.805,1.805,0,0,1,0-3.61h16.1A20.308,20.308,0,0,0,21.514,25.271Z"/>
  </g>
</svg>
