<svg xmlns="http://www.w3.org/2000/svg" width="35" height="32.813" viewBox="0 0 35 32.813">
  <path id="briefcase-solid" d="M12.688,3.281h9.844a.47.47,0,0,1,.438.438V6.563H12.031V3.938A.58.58,0,0,1,12.688,3.281ZM8.75,3.938V6.563H4.375A4.388,4.388,0,0,0,0,10.938V17.5H35V10.938a4.388,4.388,0,0,0-4.375-4.375H26.25V3.938A3.921,3.921,0,0,0,22.313,0H12.688A3.921,3.921,0,0,0,8.75,3.938ZM35,19.688H21.875v2.188a2.067,2.067,0,0,1-2.187,2.188H15.313a2.067,2.067,0,0,1-2.187-2.187V19.688H0v8.75a4.388,4.388,0,0,0,4.375,4.375h26.25A4.388,4.388,0,0,0,35,28.438Z"/>
</svg>
