<svg xmlns="http://www.w3.org/2000/svg" width="27.596" height="27.596" viewBox="0 0 27.596 27.596">
  <g id="bug" style="isolation: isolate">
    <path id="bug-2" data-name="bug" d="M27.6,15.571a1.748,1.748,0,0,1-1.76,1.676H22.854v.862a7.731,7.731,0,0,1-.733,3.3l3.246,3.246a1.725,1.725,0,1,1-2.439,2.439l-2.95-2.95a7.729,7.729,0,0,1-4.885,1.731V12.72a.647.647,0,0,0-.647-.647H13.152a.647.647,0,0,0-.647.647V25.872A7.729,7.729,0,0,1,7.62,24.141l-2.95,2.95A1.725,1.725,0,0,1,2.23,24.652l3.246-3.246a7.731,7.731,0,0,1-.733-3.3v-.862H1.761A1.748,1.748,0,0,1,0,15.571,1.725,1.725,0,0,1,1.725,13.8H4.744V10.632L2.23,8.119A1.725,1.725,0,0,1,4.67,5.679L7.614,8.624H19.983L22.928,5.68a1.725,1.725,0,1,1,2.439,2.439l-2.513,2.513V13.8h3.018A1.725,1.725,0,0,1,27.6,15.571ZM13.853,0A6.037,6.037,0,0,0,7.816,6.037H19.889A6.037,6.037,0,0,0,13.853,0Z" transform="translate(-0.001)"/>
  </g>
</svg>
