<svg xmlns="http://www.w3.org/2000/svg" width="25.51" height="29.155" viewBox="0 0 25.51 29.155">
  <g id="building" style="isolation: isolate">
    <path id="building-2" data-name="building" d="M7.289,8.427V6.15a.685.685,0,0,1,.683-.683H10.25a.685.685,0,0,1,.683.683V8.427a.685.685,0,0,1-.683.683H7.972A.685.685,0,0,1,7.289,8.427Zm7.972.683h2.278a.685.685,0,0,0,.683-.683V6.15a.685.685,0,0,0-.683-.683H15.261a.685.685,0,0,0-.683.683V8.427A.685.685,0,0,0,15.261,9.111ZM7.972,14.577H10.25a.685.685,0,0,0,.683-.683V11.616a.685.685,0,0,0-.683-.683H7.972a.685.685,0,0,0-.683.683v2.278A.685.685,0,0,0,7.972,14.577Zm7.289,0h2.278a.685.685,0,0,0,.683-.683V11.616a.685.685,0,0,0-.683-.683H15.261a.685.685,0,0,0-.683.683v2.278A.685.685,0,0,0,15.261,14.577ZM10.933,19.36V17.083a.685.685,0,0,0-.683-.683H7.972a.685.685,0,0,0-.683.683V19.36a.685.685,0,0,0,.683.683H10.25A.685.685,0,0,0,10.933,19.36Zm4.328.683h2.278a.685.685,0,0,0,.683-.683V17.083a.685.685,0,0,0-.683-.683H15.261a.685.685,0,0,0-.683.683V19.36A.685.685,0,0,0,15.261,20.044ZM25.51,27.1v2.05H0V27.1a.685.685,0,0,1,.683-.683h1.11V1.367A1.363,1.363,0,0,1,3.16,0H22.35a1.363,1.363,0,0,1,1.367,1.367V26.421h1.11A.685.685,0,0,1,25.51,27.1Zm-20.983-.74h6.406V22.549a.685.685,0,0,1,.683-.683h2.278a.685.685,0,0,1,.683.683v3.815h6.406V2.79L4.555,2.733Z"/>
  </g>
</svg>
