<svg xmlns="http://www.w3.org/2000/svg" width="24.956" height="28.522" viewBox="0 0 24.956 28.522">
  <g id="building" style="isolation: isolate">
    <path id="building-2" data-name="building" d="M24.288,26.739H23.174V1.337A1.337,1.337,0,0,0,21.837,0H3.12A1.337,1.337,0,0,0,1.783,1.337v25.4H.668A.669.669,0,0,0,0,27.407v1.114H24.956V27.407A.669.669,0,0,0,24.288,26.739ZM7.13,4.234A.669.669,0,0,1,7.8,3.565h2.228a.669.669,0,0,1,.668.668V6.462a.669.669,0,0,1-.668.668H7.8a.669.669,0,0,1-.668-.668Zm0,5.348A.669.669,0,0,1,7.8,8.913h2.228a.669.669,0,0,1,.668.668V11.81a.669.669,0,0,1-.668.668H7.8a.669.669,0,0,1-.668-.668Zm2.9,8.245H7.8a.669.669,0,0,1-.668-.668V14.929a.669.669,0,0,1,.668-.668h2.228a.669.669,0,0,1,.668.668v2.228A.669.669,0,0,1,10.027,17.826Zm4.234,8.913H10.7V22.06a.669.669,0,0,1,.668-.668h2.228a.669.669,0,0,1,.668.668Zm3.565-9.581a.669.669,0,0,1-.668.668H14.929a.669.669,0,0,1-.668-.668V14.929a.669.669,0,0,1,.668-.668h2.228a.669.669,0,0,1,.668.668Zm0-5.348a.669.669,0,0,1-.668.668H14.929a.669.669,0,0,1-.668-.668V9.581a.669.669,0,0,1,.668-.668h2.228a.669.669,0,0,1,.668.668Zm0-5.348a.669.669,0,0,1-.668.668H14.929a.669.669,0,0,1-.668-.668V4.234a.669.669,0,0,1,.668-.668h2.228a.669.669,0,0,1,.668.668Z"/>
  </g>
</svg>
