<svg xmlns="http://www.w3.org/2000/svg" width="27.831" height="27.831" viewBox="0 0 27.831 27.831">
  <g id="bullseye" style="isolation: isolate">
    <path id="bullseye-2" data-name="bullseye" d="M13.916,8A13.916,13.916,0,1,0,27.831,21.916,13.915,13.915,0,0,0,13.916,8Zm0,24.24A10.324,10.324,0,1,1,24.24,21.916,10.319,10.319,0,0,1,13.916,32.24Zm0-17.507A7.182,7.182,0,1,0,21.1,21.916,7.182,7.182,0,0,0,13.916,14.733Zm0,10.773a3.591,3.591,0,1,1,3.591-3.591A3.6,3.6,0,0,1,13.916,25.507Z" transform="translate(0 -8)"/>
  </g>
</svg>
