<svg xmlns="http://www.w3.org/2000/svg" width="33.212" height="29.522" viewBox="0 0 33.212 29.522">
  <g id="bullhorn" style="isolation: isolate">
    <path id="bullhorn-2" data-name="bullhorn" d="M33.212,13.838a3.674,3.674,0,0,0-1.845-3.178V1.846A1.864,1.864,0,0,0,29.522,0,1.841,1.841,0,0,0,28.37.4l-4.9,3.923A14,14,0,0,1,14.761,7.38H3.69A3.69,3.69,0,0,0,0,11.071v5.535A3.69,3.69,0,0,0,3.69,20.3H5.633a14.012,14.012,0,0,0-.126,1.845,14.607,14.607,0,0,0,1.474,6.4,1.809,1.809,0,0,0,1.638.984H12.9A1.833,1.833,0,0,0,14.4,26.606a7.343,7.343,0,0,1-1.508-4.465,6.977,6.977,0,0,1,.254-1.845h1.619a13.992,13.992,0,0,1,8.705,3.053l4.9,3.923a1.844,1.844,0,0,0,3-1.44V17.017A3.674,3.674,0,0,0,33.212,13.838Zm-5.535,8.154-1.906-1.525a17.69,17.69,0,0,0-11.01-3.862V11.071a17.69,17.69,0,0,0,11.01-3.862l1.906-1.525Z"/>
  </g>
</svg>
