<svg xmlns="http://www.w3.org/2000/svg" width="28" height="28" viewBox="0 0 28 28">
  <g id="bullseye-solid" style="isolation: isolate">
    <path id="bullseye-solid-2" data-name="bullseye-solid" d="M24.5,14A10.5,10.5,0,1,0,14,24.5,10.5,10.5,0,0,0,24.5,14ZM0,14A14,14,0,1,1,14,28,14,14,0,0,1,0,14Zm14,4.375A4.375,4.375,0,1,0,9.625,14,4.375,4.375,0,0,0,14,18.375Zm0-12.25A7.875,7.875,0,1,1,6.125,14,7.875,7.875,0,0,1,14,6.125ZM12.25,14A1.75,1.75,0,1,1,14,15.75,1.75,1.75,0,0,1,12.25,14Z"/>
  </g>
</svg>
