<svg xmlns="http://www.w3.org/2000/svg" width="25.429" height="29.062" viewBox="0 0 25.429 29.062">
  <g id="calculator" style="isolation: isolate">
    <path id="calculator-2" data-name="calculator" d="M22.7,0H2.725A2.794,2.794,0,0,0,0,2.725V26.338a2.794,2.794,0,0,0,2.725,2.725H22.7a2.794,2.794,0,0,0,2.725-2.725V2.725A2.794,2.794,0,0,0,22.7,0ZM7.266,24.7a.781.781,0,0,1-.727.727H4.359a.781.781,0,0,1-.727-.727v-2.18a.781.781,0,0,1,.727-.727h2.18a.781.781,0,0,1,.727.727Zm0-7.266a.781.781,0,0,1-.727.727H4.359a.781.781,0,0,1-.727-.727v-2.18a.781.781,0,0,1,.727-.727h2.18a.781.781,0,0,1,.727.727ZM14.531,24.7a.781.781,0,0,1-.727.727h-2.18A.781.781,0,0,1,10.9,24.7v-2.18a.781.781,0,0,1,.727-.727H13.8a.781.781,0,0,1,.727.727V24.7Zm0-7.266a.781.781,0,0,1-.727.727h-2.18a.781.781,0,0,1-.727-.727v-2.18a.781.781,0,0,1,.727-.727H13.8a.781.781,0,0,1,.727.727v2.18ZM21.8,24.7a.781.781,0,0,1-.727.727H18.89a.781.781,0,0,1-.727-.727V15.258a.781.781,0,0,1,.727-.727h2.18a.781.781,0,0,1,.727.727V24.7Zm0-14.531a.781.781,0,0,1-.727.727H4.359a.781.781,0,0,1-.727-.727V4.359a.781.781,0,0,1,.727-.727H21.07a.781.781,0,0,1,.727.727Z"/>
  </g>
</svg>
