<svg xmlns="http://www.w3.org/2000/svg" width="24.5" height="28" viewBox="0 0 24.5 28">
  <g id="calendar-check" style="isolation: isolate">
    <path id="calendar-check-2" data-name="calendar-check" d="M21.875,3.5H19.25V.656A.656.656,0,0,0,18.594,0H16.406a.656.656,0,0,0-.656.656V3.5h-7V.656A.656.656,0,0,0,8.094,0H5.906A.656.656,0,0,0,5.25.656V3.5H2.625A2.625,2.625,0,0,0,0,6.125v19.25A2.625,2.625,0,0,0,2.625,28h19.25A2.625,2.625,0,0,0,24.5,25.375V6.125A2.625,2.625,0,0,0,21.875,3.5Zm-.328,21.875H2.953a.328.328,0,0,1-.328-.328V8.75h19.25v16.3a.328.328,0,0,1-.328.328ZM18.657,14.4l-7.783,7.72a.656.656,0,0,1-.928,0L5.84,17.979a.656.656,0,0,1,0-.928l1.242-1.232a.656.656,0,0,1,.928,0l2.412,2.431L16.5,12.228a.656.656,0,0,1,.928,0l1.232,1.242a.656.656,0,0,1,0,.928Z"/>
  </g>
</svg>
