<svg xmlns="http://www.w3.org/2000/svg" width="24.5" height="28" viewBox="0 0 24.5 28">
  <g id="calendar-plus" style="isolation: isolate">
    <path id="calendar-plus-2" data-name="calendar-plus" d="M18.375,15.969v1.313a.658.658,0,0,1-.656.656H13.563v4.156a.658.658,0,0,1-.656.656H11.594a.658.658,0,0,1-.656-.656V17.938H6.781a.658.658,0,0,1-.656-.656V15.969a.658.658,0,0,1,.656-.656h4.156V11.156a.658.658,0,0,1,.656-.656h1.313a.658.658,0,0,1,.656.656v4.156h4.156A.658.658,0,0,1,18.375,15.969ZM24.5,6.125v19.25A2.626,2.626,0,0,1,21.875,28H2.625A2.626,2.626,0,0,1,0,25.375V6.125A2.626,2.626,0,0,1,2.625,3.5H5.25V.656A.658.658,0,0,1,5.906,0H8.094A.658.658,0,0,1,8.75.656V3.5h7V.656A.658.658,0,0,1,16.406,0h2.188a.658.658,0,0,1,.656.656V3.5h2.625A2.626,2.626,0,0,1,24.5,6.125ZM21.875,25.047V8.75H2.625v16.3a.329.329,0,0,0,.328.328H21.547A.329.329,0,0,0,21.875,25.047Z"/>
  </g>
</svg>
