<svg xmlns="http://www.w3.org/2000/svg" width="24.5" height="28" viewBox="0 0 24.5 28">
  <g id="calendar-check" style="isolation: isolate">
    <path id="calendar-check-2" data-name="calendar-check" d="M23.844,8.75H.656A.656.656,0,0,1,0,8.094V6.125A2.625,2.625,0,0,1,2.625,3.5H5.25V.656A.656.656,0,0,1,5.906,0H8.094A.656.656,0,0,1,8.75.656V3.5h7V.656A.656.656,0,0,1,16.406,0h2.188a.656.656,0,0,1,.656.656V3.5h2.625A2.625,2.625,0,0,1,24.5,6.125V8.094A.656.656,0,0,1,23.844,8.75ZM.656,10.5H23.844a.656.656,0,0,1,.656.656V25.375A2.625,2.625,0,0,1,21.875,28H2.625A2.625,2.625,0,0,1,0,25.375V11.156A.656.656,0,0,1,.656,10.5Zm18.227,5.247-1.54-1.553a.656.656,0,0,0-.928,0l-5.8,5.752L8.1,17.408a.656.656,0,0,0-.928,0L5.62,18.945a.656.656,0,0,0,0,.928l4.517,4.554a.656.656,0,0,0,.928,0l7.818-7.755a.656.656,0,0,0,0-.928Z"/>
  </g>
</svg>
