<svg xmlns="http://www.w3.org/2000/svg" width="25.525" height="29.171" viewBox="0 0 25.525 29.171">
  <g id="calendar-plus" style="isolation: isolate">
    <path id="calendar-plus-2" data-name="calendar-plus" d="M24.841,9.116H.684A.686.686,0,0,1,0,8.432V6.381A2.736,2.736,0,0,1,2.735,3.646H5.47V.684A.686.686,0,0,1,6.153,0H8.432a.686.686,0,0,1,.684.684V3.646h7.293V.684A.686.686,0,0,1,17.093,0h2.279a.686.686,0,0,1,.684.684V3.646H22.79a2.736,2.736,0,0,1,2.735,2.735V8.432A.686.686,0,0,1,24.841,9.116ZM.684,10.939H24.841a.686.686,0,0,1,.684.684V26.437a2.736,2.736,0,0,1-2.735,2.735H2.735A2.736,2.736,0,0,1,0,26.437V11.623A.686.686,0,0,1,.684,10.939Zm18,7.977A.686.686,0,0,0,18,18.232H14.586V14.814a.686.686,0,0,0-.684-.684H11.623a.686.686,0,0,0-.684.684v3.419H7.521a.686.686,0,0,0-.684.684v2.279a.686.686,0,0,0,.684.684h3.419V25.3a.686.686,0,0,0,.684.684H13.9a.686.686,0,0,0,.684-.684V21.879H18a.686.686,0,0,0,.684-.684Z"/>
  </g>
</svg>
