<svg xmlns="http://www.w3.org/2000/svg" width="24.807" height="28.351" viewBox="0 0 24.807 28.351">
  <g id="calendar-minus" style="isolation: isolate">
    <path id="calendar-minus-2" data-name="calendar-minus" d="M6.866,18.162A.666.666,0,0,1,6.2,17.5V16.169a.666.666,0,0,1,.664-.664H17.941a.666.666,0,0,1,.664.664V17.5a.666.666,0,0,1-.664.664ZM24.807,6.2V25.693a2.659,2.659,0,0,1-2.658,2.658H2.658A2.659,2.659,0,0,1,0,25.693V6.2A2.659,2.659,0,0,1,2.658,3.544H5.316V.664A.666.666,0,0,1,5.98,0H8.2A.666.666,0,0,1,8.86.664V3.544h7.088V.664A.666.666,0,0,1,16.612,0h2.215a.666.666,0,0,1,.664.664V3.544h2.658A2.659,2.659,0,0,1,24.807,6.2ZM22.149,25.36V8.86H2.658v16.5a.333.333,0,0,0,.332.332H21.817A.333.333,0,0,0,22.149,25.36Z"/>
  </g>
</svg>
