<svg xmlns="http://www.w3.org/2000/svg" width="24.958" height="28.523" viewBox="0 0 24.958 28.523">
  <path id="calendar" d="M.669,10.7H24.289a.67.67,0,0,1,.669.669V25.849a2.675,2.675,0,0,1-2.674,2.674H2.674A2.675,2.675,0,0,1,0,25.849V11.365A.67.67,0,0,1,.669,10.7ZM24.958,8.245V6.24a2.675,2.675,0,0,0-2.674-2.674H19.61V.669A.67.67,0,0,0,18.941,0H16.713a.67.67,0,0,0-.669.669v2.9H8.914V.669A.67.67,0,0,0,8.245,0H6.017a.67.67,0,0,0-.669.669v2.9H2.674A2.675,2.675,0,0,0,0,6.24V8.245a.67.67,0,0,0,.669.669H24.289A.67.67,0,0,0,24.958,8.245Z"/>
</svg>
