<svg xmlns="http://www.w3.org/2000/svg" width="24.807" height="28.35" viewBox="0 0 24.807 28.35">
  <g id="calendar-alt" style="isolation: isolate">
    <path id="calendar-alt-2" data-name="calendar-alt" d="M0,25.692A2.659,2.659,0,0,0,2.658,28.35H22.149a2.659,2.659,0,0,0,2.658-2.658V10.631H0ZM17.719,14.84a.666.666,0,0,1,.664-.664H20.6a.666.666,0,0,1,.664.664v2.215a.666.666,0,0,1-.664.664H18.383a.666.666,0,0,1-.664-.664Zm0,7.088a.666.666,0,0,1,.664-.664H20.6a.666.666,0,0,1,.664.664v2.215a.666.666,0,0,1-.664.664H18.383a.666.666,0,0,1-.664-.664ZM10.631,14.84a.666.666,0,0,1,.664-.664h2.215a.666.666,0,0,1,.664.664v2.215a.666.666,0,0,1-.664.664H11.3a.666.666,0,0,1-.664-.664Zm0,7.088a.666.666,0,0,1,.664-.664h2.215a.666.666,0,0,1,.664.664v2.215a.666.666,0,0,1-.664.664H11.3a.666.666,0,0,1-.664-.664ZM3.544,14.84a.666.666,0,0,1,.664-.664H6.423a.666.666,0,0,1,.664.664v2.215a.666.666,0,0,1-.664.664H4.208a.666.666,0,0,1-.664-.664Zm0,7.088a.666.666,0,0,1,.664-.664H6.423a.666.666,0,0,1,.664.664v2.215a.666.666,0,0,1-.664.664H4.208a.666.666,0,0,1-.664-.664Zm18.6-18.383H19.491V.886A.889.889,0,0,0,18.6,0H16.833a.889.889,0,0,0-.886.886V3.544H8.859V.886A.889.889,0,0,0,7.974,0H6.2a.889.889,0,0,0-.886.886V3.544H2.658A2.659,2.659,0,0,0,0,6.2V8.859H24.807V6.2A2.659,2.659,0,0,0,22.149,3.544Z"/>
  </g>
</svg>
