<svg xmlns="http://www.w3.org/2000/svg" width="24.995" height="28.565" viewBox="0 0 24.995 28.565">
  <g id="calendar-times" style="isolation: isolate">
    <path id="calendar-times-2" data-name="calendar-times" d="M24.325,8.927H.669A.671.671,0,0,1,0,8.257V6.249A2.679,2.679,0,0,1,2.678,3.571H5.356V.669A.671.671,0,0,1,6.025,0H8.257a.671.671,0,0,1,.669.669v2.9h7.141V.669A.671.671,0,0,1,16.737,0h2.232a.671.671,0,0,1,.669.669v2.9h2.678a2.679,2.679,0,0,1,2.678,2.678V8.257A.671.671,0,0,1,24.325,8.927ZM.669,10.712H24.325a.671.671,0,0,1,.669.669V25.887a2.679,2.679,0,0,1-2.678,2.678H2.678A2.679,2.679,0,0,1,0,25.887V11.381A.671.671,0,0,1,.669,10.712Zm14.355,8.927,2.684-2.684a.67.67,0,0,0,0-.948l-1.579-1.579a.67.67,0,0,0-.948,0L12.5,17.111,9.814,14.428a.67.67,0,0,0-.948,0L7.286,16.007a.67.67,0,0,0,0,.948L9.97,19.639,7.286,22.322a.67.67,0,0,0,0,.948L8.865,24.85a.67.67,0,0,0,.948,0L12.5,22.166l2.684,2.684a.67.67,0,0,0,.948,0l1.579-1.579a.67.67,0,0,0,0-.948Z"/>
  </g>
</svg>
