<svg xmlns="http://www.w3.org/2000/svg" width="24.807" height="28.35" viewBox="0 0 24.807 28.35">
  <g id="calendar" style="isolation: isolate">
    <path id="calendar-2" data-name="calendar" d="M22.149,3.544H19.491V.664A.666.666,0,0,0,18.826,0H16.612a.666.666,0,0,0-.664.664V3.544H8.86V.664A.666.666,0,0,0,8.2,0H5.98a.666.666,0,0,0-.664.664V3.544H2.658A2.659,2.659,0,0,0,0,6.2V25.693A2.659,2.659,0,0,0,2.658,28.35H22.149a2.659,2.659,0,0,0,2.658-2.658V6.2A2.659,2.659,0,0,0,22.149,3.544Zm-.332,22.149H2.99a.333.333,0,0,1-.332-.332V8.86H22.149v16.5A.333.333,0,0,1,21.817,25.693Z"/>
  </g>
</svg>
