<svg xmlns="http://www.w3.org/2000/svg" width="24.807" height="28.351" viewBox="0 0 24.807 28.351">
  <g id="calendar-minus" style="isolation: isolate">
    <path id="calendar-minus-2" data-name="calendar-minus" d="M24.142,8.86H.664A.666.666,0,0,1,0,8.2V6.2A2.659,2.659,0,0,1,2.658,3.544H5.316V.664A.666.666,0,0,1,5.98,0H8.2A.666.666,0,0,1,8.86.664V3.544h7.088V.664A.666.666,0,0,1,16.612,0h2.215a.666.666,0,0,1,.664.664V3.544h2.658A2.659,2.659,0,0,1,24.807,6.2V8.2A.666.666,0,0,1,24.142,8.86ZM.664,10.631H24.142a.666.666,0,0,1,.664.664v14.4a2.659,2.659,0,0,1-2.658,2.658H2.658A2.659,2.659,0,0,1,0,25.693V11.3A.666.666,0,0,1,.664,10.631ZM17.5,21.263a.666.666,0,0,0,.664-.664V18.383a.666.666,0,0,0-.664-.664H7.309a.666.666,0,0,0-.664.664V20.6a.666.666,0,0,0,.664.664Z"/>
  </g>
</svg>
