<svg xmlns="http://www.w3.org/2000/svg" width="17.501" height="28" viewBox="0 0 17.501 28">
  <g id="cent-sign-solid" style="isolation: isolate">
    <path id="cent-sign-solid-2" data-name="cent-sign-solid" d="M42.5,0a1.748,1.748,0,0,1,1.75,1.75v1.9A10.408,10.408,0,0,1,48.8,5.605a1.75,1.75,0,0,1-2.1,2.8A6.918,6.918,0,0,0,42.5,7a7,7,0,1,0,4.2,12.6,1.75,1.75,0,1,1,2.1,2.8,10.5,10.5,0,0,1-4.55,1.958V26.25a1.75,1.75,0,0,1-3.5,0v-1.9a10.5,10.5,0,0,1,0-20.7V1.75A1.748,1.748,0,0,1,42.5,0Z" transform="translate(-32)"/>
  </g>
</svg>
