<svg xmlns="http://www.w3.org/2000/svg" width="28.43" height="28.43" viewBox="0 0 28.43 28.43">
  <g id="certificate" style="isolation: isolate">
    <path id="certificate-2" data-name="certificate" d="M25.466,14.21l2.553-2.5a1.323,1.323,0,0,0-.592-2.24l-3.479-.888.981-3.443a1.345,1.345,0,0,0-1.647-1.648l-3.442.981L18.952.993A1.332,1.332,0,0,0,16.713.4l-2.5,2.573L11.717.4A1.332,1.332,0,0,0,9.478.993L8.59,4.473,5.148,3.492A1.345,1.345,0,0,0,3.5,5.14l.981,3.443L1,9.471a1.323,1.323,0,0,0-.592,2.24l2.553,2.5L.41,16.709A1.323,1.323,0,0,0,1,18.949l3.479.888L3.5,23.28a1.345,1.345,0,0,0,1.647,1.648l3.442-.981.888,3.48a1.32,1.32,0,0,0,2.239.592l2.5-2.554,2.5,2.554a1.326,1.326,0,0,0,2.239-.592l.888-3.48,3.442.981a1.345,1.345,0,0,0,1.647-1.648l-.981-3.443,3.479-.888a1.323,1.323,0,0,0,.592-2.24l-2.553-2.5Z" transform="translate(0 0)"/>
  </g>
</svg>
