<svg xmlns="http://www.w3.org/2000/svg" width="33.95" height="32.075" viewBox="0 0 33.95 32.075">
  <g id="chart-pie-solid" style="isolation: isolate">
    <path id="chart-pie-solid-2" data-name="chart-pie-solid" d="M49.04,15.035v-14a1.022,1.022,0,0,1,1-1.04A14.034,14.034,0,0,1,64.075,14.033a1.022,1.022,0,0,1-1.04,1ZM32,17.04A15.036,15.036,0,0,1,44.968,2.149a.948.948,0,0,1,1.065.965V18.042l9.8,9.8a.944.944,0,0,1-.094,1.447A15.032,15.032,0,0,1,32,17.04Zm32.977,1a.951.951,0,0,1,.965,1.065,14.984,14.984,0,0,1-4.63,8.915.952.952,0,0,1-1.328-.044l-9.942-9.936Z" transform="translate(-32)"/>
  </g>
</svg>
