<svg xmlns="http://www.w3.org/2000/svg" width="27.969" height="20.977" viewBox="0 0 27.969 20.977">
  <g id="chart-line" style="isolation: isolate">
    <path id="chart-line-2" data-name="chart-line" d="M27.095,81.48H3.5V64.874A.874.874,0,0,0,2.622,64H.874A.874.874,0,0,0,0,64.874V83.229a1.748,1.748,0,0,0,1.748,1.748H27.095a.874.874,0,0,0,.874-.874V82.354A.874.874,0,0,0,27.095,81.48ZM25.347,65.748H18.9a1.311,1.311,0,0,0-.927,2.238l1.77,1.77-4.008,4.008-4.008-4.008a1.747,1.747,0,0,0-2.472,0L5.5,73.509a.874.874,0,0,0,0,1.236l1.236,1.236a.874.874,0,0,0,1.236,0l2.516-2.517L14.5,77.472a1.747,1.747,0,0,0,2.472,0l5.244-5.244L23.982,74a1.311,1.311,0,0,0,2.238-.927V66.622A.873.873,0,0,0,25.347,65.748Z" transform="translate(0 -64)"/>
  </g>
</svg>
