<svg xmlns="http://www.w3.org/2000/svg" width="28.794" height="21.595" viewBox="0 0 28.794 21.595">
  <g id="chart-bar" style="isolation: isolate">
    <path id="chart-bar-2" data-name="chart-bar" d="M18.716,78.4h2.16a.774.774,0,0,0,.72-.72V70.119a.774.774,0,0,0-.72-.72h-2.16a.774.774,0,0,0-.72.72v7.558A.774.774,0,0,0,18.716,78.4Zm5.4,0h2.16a.774.774,0,0,0,.72-.72V64.72a.774.774,0,0,0-.72-.72h-2.16a.774.774,0,0,0-.72.72V77.677A.774.774,0,0,0,24.115,78.4Zm-16.2,0h2.16a.774.774,0,0,0,.72-.72V73.718a.774.774,0,0,0-.72-.72H7.918a.774.774,0,0,0-.72.72v3.959A.774.774,0,0,0,7.918,78.4Zm5.4,0h2.16a.774.774,0,0,0,.72-.72V66.519a.774.774,0,0,0-.72-.72h-2.16a.774.774,0,0,0-.72.72V77.677A.774.774,0,0,0,13.317,78.4ZM27.894,82H3.6V64.9a.9.9,0,0,0-.9-.9H.9a.9.9,0,0,0-.9.9V83.8a1.8,1.8,0,0,0,1.8,1.8H27.894a.9.9,0,0,0,.9-.9V82.9A.9.9,0,0,0,27.894,82Z" transform="translate(0 -64)"/>
  </g>
</svg>
