<svg xmlns="http://www.w3.org/2000/svg" width="28.368" height="21.276" viewBox="0 0 28.368 21.276">
  <g id="chart-area" style="isolation: isolate">
    <path id="chart-area-2" data-name="chart-area" d="M27.7,81.73a.667.667,0,0,1,.665.665v2.216a.667.667,0,0,1-.665.665H.665A.667.667,0,0,1,0,84.611V64.665A.667.667,0,0,1,.665,64H2.881a.667.667,0,0,1,.665.665V81.73ZM20.65,69.291l-4.693,3.13-4.726-6.3a.666.666,0,0,0-1.1.055L5.319,74.195v5.762H26.6L21.614,69.552A.665.665,0,0,0,20.65,69.291Z" transform="translate(0 -64)"/>
  </g>
</svg>
