<svg xmlns="http://www.w3.org/2000/svg" width="26.88" height="26.88" viewBox="0 0 26.88 26.88">
  <g id="circle-info-solid" style="isolation: isolate">
    <path id="circle-info-solid-2" data-name="circle-info-solid" d="M13.44,26.88A13.44,13.44,0,1,0,0,13.44,13.44,13.44,0,0,0,13.44,26.88Zm-2.1-9.24H12.6V14.28H11.34a1.26,1.26,0,0,1,0-2.52h2.52a1.257,1.257,0,0,1,1.26,1.26v4.62h.42a1.26,1.26,0,0,1,0,2.52h-4.2a1.26,1.26,0,0,1,0-2.52Zm2.1-10.92A1.68,1.68,0,1,1,11.76,8.4,1.68,1.68,0,0,1,13.44,6.72Z"/>
  </g>
</svg>
