<svg xmlns="http://www.w3.org/2000/svg" width="21.126" height="28.168" viewBox="0 0 21.126 28.168">
  <g id="clipboard" style="isolation: isolate">
    <path id="clipboard-2" data-name="clipboard" d="M21.126,6.162V25.527a2.641,2.641,0,0,1-2.641,2.641H2.641A2.641,2.641,0,0,1,0,25.527V6.162A2.641,2.641,0,0,1,2.641,3.521h4.4a3.521,3.521,0,1,1,7.042,0h4.4A2.641,2.641,0,0,1,21.126,6.162ZM10.563,2.2a1.32,1.32,0,1,0,1.32,1.32,1.32,1.32,0,0,0-1.32-1.32m5.281,6.272v-1.1a.33.33,0,0,0-.33-.33h-9.9a.33.33,0,0,0-.33.33v1.1a.33.33,0,0,0,.33.33h9.9A.33.33,0,0,0,15.844,8.472Z"/>
  </g>
</svg>
