<svg xmlns="http://www.w3.org/2000/svg" width="21.072" height="28.096" viewBox="0 0 21.072 28.096">
  <g id="clipboard" style="isolation: isolate">
    <path id="clipboard-2" data-name="clipboard" d="M18.438,3.512h-4.39a3.512,3.512,0,1,0-7.024,0H2.634A2.635,2.635,0,0,0,0,6.146V25.462A2.635,2.635,0,0,0,2.634,28.1h15.8a2.635,2.635,0,0,0,2.634-2.634V6.146A2.635,2.635,0,0,0,18.438,3.512ZM10.536,2.2A1.317,1.317,0,1,1,9.219,3.512,1.314,1.314,0,0,1,10.536,2.2Zm7.9,22.938a.33.33,0,0,1-.329.329H2.963a.33.33,0,0,1-.329-.329V6.475a.33.33,0,0,1,.329-.329h2.3V8.122a.66.66,0,0,0,.659.659h9.219a.66.66,0,0,0,.659-.659V6.146h2.3a.33.33,0,0,1,.329.329Z"/>
  </g>
</svg>
