<svg xmlns="http://www.w3.org/2000/svg" width="27.631" height="27.631" viewBox="0 0 27.631 27.631">
  <g id="clock" style="isolation: isolate">
    <path id="clock-2" data-name="clock" d="M21.816,8A13.816,13.816,0,1,0,35.631,21.816,13.813,13.813,0,0,0,21.816,8Zm0,24.957A11.142,11.142,0,1,1,32.957,21.816,11.139,11.139,0,0,1,21.816,32.957Zm3.443-5.816L20.529,23.7a.673.673,0,0,1-.273-.54V14.017a.67.67,0,0,1,.668-.669h1.783a.67.67,0,0,1,.668.669V21.91L27.1,24.618a.668.668,0,0,1,.145.936L26.194,27a.673.673,0,0,1-.936.145Z" transform="translate(-8 -8)"/>
  </g>
</svg>
