<svg xmlns="http://www.w3.org/2000/svg" width="28.171" height="21.129" viewBox="0 0 28.171 21.129">
  <g id="closed-captioning" style="isolation: isolate">
    <path id="closed-captioning-2" data-name="closed-captioning" d="M25.53,64H2.641A2.642,2.642,0,0,0,0,66.641V82.487a2.642,2.642,0,0,0,2.641,2.641H25.53a2.642,2.642,0,0,0,2.641-2.641V66.641A2.642,2.642,0,0,0,25.53,64ZM12,76.308a.34.34,0,0,1,.506.05l1.073,1.524a.333.333,0,0,1-.028.424C10.6,81.431,4.044,80.072,4.044,74.57c0-5.354,6.7-6.575,9.491-3.857.116.11.138.176.055.314L12.628,72.7a.343.343,0,0,1-.5.094c-2.245-1.761-5.205-.82-5.205,1.717C6.927,77.156,9.733,78.394,12,76.308Zm10.476,0a.34.34,0,0,1,.506.05l1.073,1.524a.333.333,0,0,1-.028.424c-2.944,3.131-9.5,1.766-9.5-3.736,0-5.354,6.7-6.575,9.491-3.857.116.11.138.176.055.314L23.109,72.7a.343.343,0,0,1-.5.094c-2.245-1.761-5.205-.82-5.205,1.717,0,2.641,2.806,3.879,5.073,1.794Z" transform="translate(0 -64)"/>
  </g>
</svg>
