<svg xmlns="http://www.w3.org/2000/svg" width="27.698" height="20.774" viewBox="0 0 27.698 20.774">
  <g id="closed-captioning" style="isolation: isolate">
    <path id="closed-captioning-2" data-name="closed-captioning" d="M25.1,64H2.6A2.6,2.6,0,0,0,0,66.6v15.58a2.6,2.6,0,0,0,2.6,2.6H25.1a2.6,2.6,0,0,0,2.6-2.6V66.6A2.6,2.6,0,0,0,25.1,64Zm-.325,18.177H2.921a.326.326,0,0,1-.325-.325V66.921a.326.326,0,0,1,.325-.325H24.777a.326.326,0,0,1,.325.325V81.852A.326.326,0,0,1,24.777,82.177Zm-11.42-4.636a.327.327,0,0,1-.027.417c-2.9,3.073-9.348,1.737-9.348-3.673,0-5.264,6.584-6.465,9.332-3.792.114.108.135.173.054.308l-.947,1.65a.337.337,0,0,1-.492.092c-2.207-1.731-5.118-.806-5.118,1.688,0,2.6,2.759,3.814,4.988,1.764a.334.334,0,0,1,.5.049l1.06,1.5Zm10.3,0a.327.327,0,0,1-.027.417c-2.9,3.078-9.348,1.737-9.348-3.673,0-5.264,6.584-6.465,9.332-3.792.114.108.135.173.054.308l-.947,1.65a.337.337,0,0,1-.492.092c-2.207-1.731-5.118-.806-5.118,1.688,0,2.6,2.759,3.814,4.988,1.764a.334.334,0,0,1,.5.049Z" transform="translate(0 -64)"/>
  </g>
</svg>
