<svg xmlns="http://www.w3.org/2000/svg" width="25.153" height="20.119" viewBox="0 0 25.153 20.119">
  <g id="code" style="isolation: isolate">
    <path id="code-2" data-name="code" d="M10.936,20.137l-2.4-.7a.472.472,0,0,1-.322-.586L13.581.378a.472.472,0,0,1,.586-.322l2.4.7a.472.472,0,0,1,.322.586L11.522,19.815A.471.471,0,0,1,10.936,20.137Zm-4.48-4.409L8.166,13.9a.472.472,0,0,0-.031-.676L4.574,10.1l3.56-3.132a.468.468,0,0,0,.031-.676L6.456,4.465a.472.472,0,0,0-.668-.02L.125,9.75a.468.468,0,0,0,0,.688l5.663,5.309a.469.469,0,0,0,.668-.02Zm12.859.024,5.663-5.309a.468.468,0,0,0,0-.688L19.315,4.441a.476.476,0,0,0-.668.02L16.937,6.284a.472.472,0,0,0,.031.676l3.56,3.136-3.56,3.132a.468.468,0,0,0-.031.676l1.709,1.823a.472.472,0,0,0,.668.024Z" transform="translate(0.025 -0.037)"/>
  </g>
</svg>
