<svg xmlns="http://www.w3.org/2000/svg" width="21.11" height="28.147" viewBox="0 0 21.11 28.147">
  <g id="code-branch" style="isolation: isolate">
    <path id="code-branch-2" data-name="code-branch" d="M21.11,7.916a4.4,4.4,0,1,0-5.635,4.222,3.383,3.383,0,0,1-.6,2.029c-.847,1.056-2.71,1.231-4.684,1.413a13.27,13.27,0,0,0-4.469.929V8.593a4.4,4.4,0,1,0-2.639,0V19.549a4.408,4.408,0,1,0,2.9.1,1.935,1.935,0,0,1,.819-.737,11.061,11.061,0,0,1,3.634-.7c2.32-.214,4.948-.462,6.5-2.386a5.919,5.919,0,0,0,1.187-3.733A4.416,4.416,0,0,0,21.11,7.916ZM4.4,3.518a.88.88,0,1,1-.88.88A.882.882,0,0,1,4.4,3.518Zm0,21.11a.88.88,0,1,1,.88-.88A.882.882,0,0,1,4.4,24.629ZM16.712,7.037a.88.88,0,1,1-.88.88A.882.882,0,0,1,16.712,7.037Z"/>
  </g>
</svg>
