<svg xmlns="http://www.w3.org/2000/svg" width="36.104" height="25.27" viewBox="0 0 36.104 25.27">
  <g id="coffee" style="isolation: isolate">
    <path id="coffee-2" data-name="coffee" d="M10.777,51.855h10.83a5.416,5.416,0,0,0,5.415-5.415h1.805a7.22,7.22,0,0,0,0-14.44H6.716a1.351,1.351,0,0,0-1.354,1.354V46.44A5.416,5.416,0,0,0,10.777,51.855ZM28.828,35.61a3.61,3.61,0,0,1,0,7.22H27.023V35.61Zm2.691,21.66H2.672c-2.685,0-3.441-3.61-2.031-3.61h32.9c1.41,0,.666,3.61-2.025,3.61Z" transform="translate(0.056 -32)"/>
  </g>
</svg>
