<svg xmlns="http://www.w3.org/2000/svg" width="32.609" height="25.362" viewBox="0 0 32.609 25.362">
  <g id="comments" style="isolation: isolate">
    <path id="comments-2" data-name="comments" d="M23.551,41.058c0-5-5.271-9.058-11.775-9.058S0,36.053,0,41.058a7.68,7.68,0,0,0,2.151,5.208A12.742,12.742,0,0,1,.125,49.352a.45.45,0,0,0-.085.493.443.443,0,0,0,.413.272A9.968,9.968,0,0,0,5.474,48.7a14.405,14.405,0,0,0,6.3,1.415C18.28,50.116,23.551,46.062,23.551,41.058Zm6.907,12.455A7.67,7.67,0,0,0,32.609,48.3c0-3.787-3.029-7.031-7.32-8.384a8.413,8.413,0,0,1,.074,1.138c0,6-6.1,10.87-13.587,10.87a16.973,16.973,0,0,1-1.795-.108c1.783,3.255,5.973,5.542,10.853,5.542a14.326,14.326,0,0,0,6.3-1.415,9.968,9.968,0,0,0,5.022,1.415.446.446,0,0,0,.413-.272.454.454,0,0,0-.085-.493A12.607,12.607,0,0,1,30.457,53.513Z" transform="translate(0 -32)"/>
  </g>
</svg>
