<svg xmlns="http://www.w3.org/2000/svg" width="28" height="24.503" viewBox="0 0 28 24.503">
  <g id="comment-medical-solid" style="isolation: isolate">
    <path id="comment-medical-solid-2" data-name="comment-medical-solid" d="M13.949,54.748c7.732,0,14-5.091,14-11.374S21.681,32,13.949,32s-14,5.091-14,11.374a9.966,9.966,0,0,0,2.608,6.611,7.96,7.96,0,0,1-1.17,3.439,9.864,9.864,0,0,1-.831,1.181c-.115.137-.2.241-.268.312-.033.033-.055.06-.071.077L.2,55.01h0a.866.866,0,0,0-.186.951.875.875,0,0,0,.809.541,11.551,11.551,0,0,0,4.462-1.055,16.386,16.386,0,0,0,2.969-1.673,16.743,16.743,0,0,0,5.692.979ZM12.2,39a.877.877,0,0,1,.875-.875h1.75A.877.877,0,0,1,15.7,39v2.625h2.625a.877.877,0,0,1,.875.875v1.75a.877.877,0,0,1-.875.875H15.7v2.625a.877.877,0,0,1-.875.875h-1.75a.877.877,0,0,1-.875-.875V45.124H9.575a.877.877,0,0,1-.875-.875V42.5a.877.877,0,0,1,.875-.875H12.2Z" transform="translate(0.052 -32)"/>
  </g>
</svg>
