<svg xmlns="http://www.w3.org/2000/svg" width="32.934" height="25.612" viewBox="0 0 32.934 25.612">
  <g id="comments" style="isolation: isolate">
    <path id="comments-2" data-name="comments" d="M30.408,52.25a7.872,7.872,0,0,0,2.515-5.614c0-4.574-4.374-8.353-10.073-9.027C21.049,34.315,16.819,32,11.885,32,5.316,32-.006,36.093-.006,41.147a7.892,7.892,0,0,0,2.515,5.614A14.969,14.969,0,0,1,.354,49.9a1.323,1.323,0,0,0,.96,2.23,13.141,13.141,0,0,0,7.158-2.218,16.294,16.294,0,0,0,1.624.28c1.8,3.282,6.009,5.591,10.937,5.591a15.133,15.133,0,0,0,3.419-.389,13.172,13.172,0,0,0,7.158,2.218,1.323,1.323,0,0,0,.96-2.23A14.57,14.57,0,0,1,30.408,52.25ZM7.952,46.973l-.978.635A11.633,11.633,0,0,1,4.51,48.831c.154-.269.309-.555.457-.846l.886-1.778-1.418-1.4a5.242,5.242,0,0,1-1.7-3.659c0-3.47,4.191-6.4,9.147-6.4s9.147,2.933,9.147,6.4-4.191,6.4-9.147,6.4a12.458,12.458,0,0,1-2.8-.32l-1.132-.257Zm20.53,3.322L27.07,51.689l.886,1.778c.149.292.3.577.457.846a11.633,11.633,0,0,1-2.464-1.223l-.978-.635-1.138.263a12.457,12.457,0,0,1-2.8.32A10.638,10.638,0,0,1,13.526,50.2c5.791-.617,10.251-4.425,10.251-9.05,0-.194-.023-.383-.04-.572,3.682.829,6.443,3.247,6.443,6.06A5.242,5.242,0,0,1,28.482,50.295Z" transform="translate(0.007 -32)"/>
  </g>
</svg>
