<svg xmlns="http://www.w3.org/2000/svg" width="30.184" height="26.407" viewBox="0 0 30.184 26.407">
  <g id="comment-dots" style="isolation: isolate">
    <path id="comment-dots-2" data-name="comment-dots" d="M8.426,42.374a1.886,1.886,0,1,0,1.886,1.886A1.884,1.884,0,0,0,8.426,42.374Zm6.6,0a1.886,1.886,0,1,0,1.886,1.886A1.884,1.884,0,0,0,15.027,42.374Zm6.6,0a1.886,1.886,0,1,0,1.886,1.886A1.884,1.884,0,0,0,21.629,42.374ZM15.027,32C6.693,32-.062,37.488-.062,44.261a10.836,10.836,0,0,0,3.118,7.445A14.958,14.958,0,0,1,.321,56.02a1.415,1.415,0,0,0,1.032,2.387,14.3,14.3,0,0,0,8.2-2.729,18.2,18.2,0,0,0,5.476.843c8.335,0,15.09-5.488,15.09-12.261S23.362,32,15.027,32Zm0,21.692a15.317,15.317,0,0,1-4.621-.713l-1.338-.424-1.149.813a12.675,12.675,0,0,1-3.389,1.709A14.785,14.785,0,0,0,5.7,52.707l.625-1.656L5.113,49.766a8.107,8.107,0,0,1-2.346-5.505c0-5.2,5.5-9.431,12.26-9.431s12.26,4.232,12.26,9.431S21.788,53.692,15.027,53.692Z" transform="translate(0.066 -32)"/>
  </g>
</svg>
