<svg xmlns="http://www.w3.org/2000/svg" width="29.268" height="25.606" viewBox="0 0 29.268 25.606">
  <g id="comment" style="isolation: isolate">
    <path id="comment-2" data-name="comment" d="M14.569,32C6.488,32-.063,37.321-.063,43.888a10.507,10.507,0,0,0,3.024,7.219A14.5,14.5,0,0,1,.309,55.291a1.372,1.372,0,0,0,1,2.315A13.868,13.868,0,0,0,9.26,54.96a17.653,17.653,0,0,0,5.31.817c8.082,0,14.632-5.321,14.632-11.888S22.651,32,14.569,32Zm0,21.033a14.852,14.852,0,0,1-4.481-.692l-1.3-.412-1.115.789A12.291,12.291,0,0,1,4.39,54.377a14.336,14.336,0,0,0,1.137-2.3l.606-1.606L4.956,49.227a7.861,7.861,0,0,1-2.275-5.338c0-5.041,5.333-9.145,11.888-9.145s11.888,4.1,11.888,9.145S21.125,53.033,14.569,53.033Z" transform="translate(0.066 -32)"/>
  </g>
</svg>
