<svg xmlns="http://www.w3.org/2000/svg" width="29.264" height="25.606" viewBox="0 0 29.264 25.606">
  <g id="comment" style="isolation: isolate">
    <path id="comment-2" data-name="comment" d="M14.632,32C6.55,32,0,37.321,0,43.888a10.552,10.552,0,0,0,3.258,7.47A14.541,14.541,0,0,1,.126,56.834a.454.454,0,0,0-.086.5.448.448,0,0,0,.417.274,13.071,13.071,0,0,0,8.036-2.938,17.431,17.431,0,0,0,6.139,1.109c8.082,0,14.632-5.321,14.632-11.888S22.714,32,14.632,32Z" transform="translate(0 -32)"/>
  </g>
</svg>
