<svg xmlns="http://www.w3.org/2000/svg" width="28.153" height="28.153" viewBox="0 0 28.153 28.153">
  <g id="compass" style="isolation: isolate">
    <path id="compass-2" data-name="compass" d="M12.792,20.792a1.816,1.816,0,1,0,2.568,0A1.816,1.816,0,0,0,12.792,20.792ZM14.076,8A14.076,14.076,0,1,0,28.153,22.076,14.076,14.076,0,0,0,14.076,8Zm7.16,8.4L17.491,24.6a1.813,1.813,0,0,1-.9.9L8.4,29.236a1.122,1.122,0,0,1-1.487-1.487l3.745-8.193a1.813,1.813,0,0,1,.9-.9l8.193-3.744A1.122,1.122,0,0,1,21.236,16.4Z" transform="translate(0 -8)"/>
  </g>
</svg>
