<svg xmlns="http://www.w3.org/2000/svg" width="28.94" height="28.94" viewBox="0 0 28.94 28.94">
  <g id="compass" style="isolation: isolate">
    <path id="compass-2" data-name="compass" d="M20.3,15.11l-8.422,3.849a1.863,1.863,0,0,0-.92.92L7.11,28.3A1.154,1.154,0,0,0,8.639,29.83l8.422-3.849a1.863,1.863,0,0,0,.92-.92l3.849-8.422A1.153,1.153,0,0,0,20.3,15.11Zm-4.514,8.677a1.863,1.863,0,1,1,0-2.635A1.863,1.863,0,0,1,15.787,23.787ZM14.47,8A14.47,14.47,0,1,0,28.94,22.47,14.47,14.47,0,0,0,14.47,8Zm0,26.139A11.669,11.669,0,1,1,26.139,22.47,11.683,11.683,0,0,1,14.47,34.139Z" transform="translate(0 -8)"/>
  </g>
</svg>
