<svg xmlns="http://www.w3.org/2000/svg" width="26.094" height="26.094" viewBox="0 0 26.094 26.094">
  <g id="compress" style="isolation: isolate">
    <path id="compress-2" data-name="compress" d="M25.395,41.319H18.172a1.4,1.4,0,0,1-1.4-1.4V32.7a.7.7,0,0,1,.7-.7H19.8a.7.7,0,0,1,.7.7v4.893h4.893a.7.7,0,0,1,.7.7v2.33A.7.7,0,0,1,25.395,41.319Zm-16.076-1.4V32.7a.7.7,0,0,0-.7-.7H6.29a.7.7,0,0,0-.7.7v4.893H.7a.7.7,0,0,0-.7.7v2.33a.7.7,0,0,0,.7.7H7.921A1.4,1.4,0,0,0,9.319,39.921Zm0,17.473V50.172a1.4,1.4,0,0,0-1.4-1.4H.7a.7.7,0,0,0-.7.7V51.8a.7.7,0,0,0,.7.7H5.591v4.893a.7.7,0,0,0,.7.7H8.62A.7.7,0,0,0,9.319,57.395Zm11.183,0V52.5h4.893a.7.7,0,0,0,.7-.7v-2.33a.7.7,0,0,0-.7-.7H18.172a1.4,1.4,0,0,0-1.4,1.4v7.222a.7.7,0,0,0,.7.7H19.8A.7.7,0,0,0,20.5,57.395Z" transform="translate(0 -32)"/>
  </g>
</svg>
