<svg xmlns="http://www.w3.org/2000/svg" width="32" height="22.4" viewBox="0 0 32 22.4">
  <g id="computer-solid" style="isolation: isolate">
    <path id="computer-solid-2" data-name="computer-solid" d="M19.2,35.2V46.4H3.2V35.2ZM3.2,32A3.2,3.2,0,0,0,0,35.2V46.4a3.2,3.2,0,0,0,3.2,3.2H9.065L8.53,51.2H4.8a1.6,1.6,0,1,0,0,3.2H17.6a1.6,1.6,0,1,0,0-3.2H13.865l-.535-1.6H19.2a3.2,3.2,0,0,0,3.2-3.2V35.2A3.2,3.2,0,0,0,19.2,32Zm23.2,0A2.4,2.4,0,0,0,24,34.4V52a2.4,2.4,0,0,0,2.4,2.4h3.2A2.4,2.4,0,0,0,32,52V34.4A2.4,2.4,0,0,0,29.6,32Zm.8,3.2h1.6a.8.8,0,1,1,0,1.6H27.2a.8.8,0,1,1,0-1.6Zm-.8,4a.8.8,0,0,1,.8-.8h1.6a.8.8,0,1,1,0,1.6H27.2A.8.8,0,0,1,26.4,39.2Zm1.6,8a1.6,1.6,0,1,1-1.6,1.6A1.6,1.6,0,0,1,28,47.2Z" transform="translate(0 -32)"/>
  </g>
</svg>
