<svg xmlns="http://www.w3.org/2000/svg" width="26.5" height="26.5" viewBox="0 0 26.5 26.5">
  <g id="copyright" style="isolation: isolate">
    <path id="copyright-2" data-name="copyright" d="M21.25,8A13.25,13.25,0,1,0,34.5,21.25,13.25,13.25,0,0,0,21.25,8Zm0,23.935A10.685,10.685,0,1,1,31.935,21.25,10.68,10.68,0,0,1,21.25,31.935Zm5.735-5.4a7.909,7.909,0,0,1-5.56,2.212,7.314,7.314,0,0,1-7.506-7.564,7.31,7.31,0,0,1,7.467-7.448A7.734,7.734,0,0,1,26.6,15.594a.639.639,0,0,1,.1.819l-.97,1.5a.641.641,0,0,1-.935.156,5.541,5.541,0,0,0-3.3-1.2,4.037,4.037,0,0,0-4.163,4.279,4.2,4.2,0,0,0,4.182,4.471,5.377,5.377,0,0,0,3.512-1.455.641.641,0,0,1,.952.093l1.061,1.452a.638.638,0,0,1-.062.829Z" transform="translate(-8 -8)"/>
  </g>
</svg>
