<svg xmlns="http://www.w3.org/2000/svg" width="25.118" height="28.706" viewBox="0 0 25.118 28.706">
  <g id="copy" style="isolation: isolate">
    <path id="copy-2" data-name="copy" d="M17.941,25.118V27.36A1.346,1.346,0,0,1,16.6,28.706H1.346A1.346,1.346,0,0,1,0,27.36V6.728A1.346,1.346,0,0,1,1.346,5.382H5.382v16.6a3.143,3.143,0,0,0,3.14,3.14Zm0-19.287V0H8.522A1.346,1.346,0,0,0,7.176,1.346V21.978a1.346,1.346,0,0,0,1.346,1.346h15.25a1.346,1.346,0,0,0,1.346-1.346V7.176H19.287A1.35,1.35,0,0,1,17.941,5.831Zm6.782-1.74-3.7-3.7A1.346,1.346,0,0,0,20.075,0h-.34V5.382h5.382v-.34a1.346,1.346,0,0,0-.394-.951Z"/>
  </g>
</svg>
