<svg xmlns="http://www.w3.org/2000/svg" width="24.531" height="28.035" viewBox="0 0 24.531 28.035">
  <g id="copy" style="isolation: isolate">
    <path id="copy-2" data-name="copy" d="M23.761,3.611,20.92.77A2.628,2.628,0,0,0,19.062,0H9.637A2.628,2.628,0,0,0,7.009,2.628V5.257H2.628A2.628,2.628,0,0,0,0,7.885V25.407a2.628,2.628,0,0,0,2.628,2.628H14.894a2.628,2.628,0,0,0,2.628-2.628V22.779H21.9a2.628,2.628,0,0,0,2.628-2.628V5.469a2.628,2.628,0,0,0-.77-1.858Zm-9.2,21.8H2.957a.329.329,0,0,1-.329-.329V8.213a.329.329,0,0,1,.329-.329H7.009V20.15a2.628,2.628,0,0,0,2.628,2.628h5.257v2.3A.329.329,0,0,1,14.565,25.407Zm7.009-5.257H9.966a.329.329,0,0,1-.329-.329V2.957a.329.329,0,0,1,.329-.329h5.8V7.447a1.314,1.314,0,0,0,1.314,1.314H21.9V19.822a.329.329,0,0,1-.329.329ZM21.9,6.133H18.4v-3.5h.527a.329.329,0,0,1,.232.1l2.648,2.648a.329.329,0,0,1,.1.232Z"/>
  </g>
</svg>
