<svg xmlns="http://www.w3.org/2000/svg" width="26.469" height="26.469" viewBox="0 0 26.469 26.469">
  <g id="copyright" style="isolation: isolate">
    <path id="copyright-2" data-name="copyright" d="M21.234,8A13.234,13.234,0,1,0,34.469,21.234,13.234,13.234,0,0,0,21.234,8Zm6.251,18.5a7.966,7.966,0,0,1-5.862,2.44,7.518,7.518,0,0,1-7.71-7.768,7.515,7.515,0,0,1,7.672-7.653A7.686,7.686,0,0,1,27.1,15.6a.64.64,0,0,1,.066.78L25.975,18.23a.641.641,0,0,1-.973.122,5.429,5.429,0,0,0-3.3-1.274,3.819,3.819,0,0,0-3.944,4.06,3.994,3.994,0,0,0,3.964,4.253,5.232,5.232,0,0,0,3.5-1.528.641.641,0,0,1,.988.056l1.31,1.792A.64.64,0,0,1,27.485,26.5Z" transform="translate(-8 -8)"/>
  </g>
</svg>
