<svg xmlns="http://www.w3.org/2000/svg" width="34.714" height="27" viewBox="0 0 34.714 27">
  <g id="credit-card-solid" style="isolation: isolate">
    <path id="credit-card-solid-2" data-name="credit-card-solid" d="M3.857,1A3.868,3.868,0,0,0,0,4.857V6.786H34.714V4.857A3.868,3.868,0,0,0,30.857,1ZM34.714,12.571H0V24.143A3.868,3.868,0,0,0,3.857,28h27a3.868,3.868,0,0,0,3.857-3.857ZM6.75,20.286h3.857a.964.964,0,1,1,0,1.929H6.75a.964.964,0,1,1,0-1.929Zm6.75.964a.911.911,0,0,1,.964-.964h7.714a.964.964,0,0,1,0,1.929H14.464A.911.911,0,0,1,13.5,21.25Z" transform="translate(0 -1)"/>
  </g>
</svg>
