<svg xmlns="http://www.w3.org/2000/svg" width="25.271" height="25.271" viewBox="0 0 25.271 25.271">
  <g id="cut" style="isolation: isolate">
    <path id="cut-2" data-name="cut" d="M15.685,44.636l9.388-9.388a.676.676,0,0,0,0-.957,4.738,4.738,0,0,0-6.7,0l-6.516,6.516-1.4-1.4a5.415,5.415,0,1,0-4.285,3.374l1.858,1.858L6.169,46.493a5.409,5.409,0,1,0,4.285,3.374l1.4-1.4,6.516,6.516a4.738,4.738,0,0,0,6.7,0,.676.676,0,0,0,0-.957ZM5.415,39.22A1.805,1.805,0,1,1,7.22,37.415,1.807,1.807,0,0,1,5.415,39.22Zm0,14.441A1.805,1.805,0,1,1,7.22,51.856,1.807,1.807,0,0,1,5.415,53.661Z" transform="translate(0 -32)"/>
  </g>
</svg>
