<svg xmlns="http://www.w3.org/2000/svg" width="28.321" height="28.321" viewBox="0 0 28.321 28.321">
  <g id="deaf" style="isolation: isolate">
    <path id="deaf-2" data-name="deaf" d="M11.948,14.382a1.549,1.549,0,0,1-3.1,0,4.425,4.425,0,0,1,8.85,0,1.549,1.549,0,0,1-3.1,0,1.328,1.328,0,1,0-2.655,0Zm1.328-9.735a9.746,9.746,0,0,0-9.735,9.735,1.549,1.549,0,0,0,3.1,0,6.638,6.638,0,0,1,13.275,0c0,4.158-3.928,3.889-3.982,7.944v.021a2.88,2.88,0,0,1-2.876,2.876,1.549,1.549,0,1,0,0,3.1,5.981,5.981,0,0,0,5.974-5.961c.033-1.9,3.983-2.668,3.983-7.978A9.746,9.746,0,0,0,13.276,4.647ZM28.127,1.759,26.562.195a.664.664,0,0,0-.939,0L20.809,5.009a.664.664,0,0,0,0,.939l1.565,1.565a.664.664,0,0,0,.939,0L28.127,2.7a.664.664,0,0,0,0-.939ZM9.347,17.41a.664.664,0,0,0-.939,0L.195,25.623a.664.664,0,0,0,0,.939l1.565,1.564a.664.664,0,0,0,.939,0l8.213-8.213a.664.664,0,0,0,0-.939Z" transform="translate(0 0)"/>
  </g>
</svg>
