<svg xmlns="http://www.w3.org/2000/svg" width="31.5" height="27.995" viewBox="0 0 31.5 27.995">
  <g id="edit" style="isolation: isolate">
    <path id="edit-2" data-name="edit" d="M22.017,4.645,26.95,9.577a.535.535,0,0,1,0,.755L15.006,22.276l-5.075.563a1.064,1.064,0,0,1-1.176-1.176l.563-5.075L21.262,4.645a.535.535,0,0,1,.755,0Zm8.859-1.252L28.208.723a2.139,2.139,0,0,0-3.019,0L23.253,2.659a.535.535,0,0,0,0,.755l4.933,4.933a.535.535,0,0,0,.755,0l1.936-1.936a2.139,2.139,0,0,0,0-3.019ZM21,19.027v5.567H3.5V7.095H16.067a.672.672,0,0,0,.465-.191L18.72,4.716a.656.656,0,0,0-.465-1.121H2.625A2.626,2.626,0,0,0,0,6.22V25.47a2.626,2.626,0,0,0,2.625,2.625h19.25A2.626,2.626,0,0,0,24.5,25.47V16.84a.657.657,0,0,0-1.121-.465l-2.187,2.188A.672.672,0,0,0,21,19.027Z" transform="translate(0 -0.1)"/>
  </g>
</svg>
