<svg xmlns="http://www.w3.org/2000/svg" width="27.94" height="20.955" viewBox="0 0 27.94 20.955">
  <g id="envelope-outline" style="isolation: isolate">
    <path id="envelope" d="M25.32,64H2.619A2.619,2.619,0,0,0,0,66.619V82.335a2.619,2.619,0,0,0,2.619,2.619h22.7a2.619,2.619,0,0,0,2.619-2.619V66.619A2.619,2.619,0,0,0,25.32,64Zm0,2.619v2.227c-1.224,1-3.174,2.546-7.344,5.811-.919.723-2.739,2.46-4.006,2.439-1.266.02-3.088-1.717-4.006-2.439-4.17-3.265-6.121-4.815-7.344-5.811V66.619ZM2.619,82.335V72.207c1.25,1,3.024,2.394,5.726,4.51,1.193.939,3.282,3.012,5.624,3,2.331.013,4.393-2.03,5.624-3,2.7-2.116,4.476-3.514,5.727-4.51V82.335Z" transform="translate(0 -64)"/>
  </g>
</svg>
