<svg xmlns="http://www.w3.org/2000/svg" width="24.279" height="24.279" viewBox="0 0 24.279 24.279">
  <g id="envelope-square" style="isolation: isolate">
    <path id="envelope-square-2" data-name="envelope-square" d="M21.678,32H2.6A2.6,2.6,0,0,0,0,34.6V53.678a2.6,2.6,0,0,0,2.6,2.6H21.678a2.6,2.6,0,0,0,2.6-2.6V34.6A2.6,2.6,0,0,0,21.678,32ZM9.653,44.47c-4.915-3.567-4.865-3.576-6.184-4.6V38.5a1.3,1.3,0,0,1,1.3-1.3H19.51a1.3,1.3,0,0,1,1.3,1.3v1.364c-1.321,1.028-1.27,1.036-6.184,4.6-.569.415-1.7,1.416-2.487,1.4C11.353,45.885,10.223,44.886,9.653,44.47Zm11.158-2.4v7.708a1.3,1.3,0,0,1-1.3,1.3H4.769a1.3,1.3,0,0,1-1.3-1.3V42.068c.756.585,1.806,1.368,5.165,3.805.767.56,2.058,1.742,3.506,1.735s2.766-1.194,3.507-1.736C19,43.435,20.054,42.653,20.81,42.068Z" transform="translate(0 -32)"/>
  </g>
</svg>
