<svg xmlns="http://www.w3.org/2000/svg" width="28.5" height="28.5" viewBox="0 0 28.5 28.5">
  <g id="envelope-open-outline" style="isolation: isolate">
    <path id="envelope-open" d="M27.531,9.158C27.269,8.941,21.312,4.151,20,3.109,18.772,2.126,16.668,0,14.25,0S9.761,2.1,8.5,3.109C7.136,4.192,1.2,8.965.975,9.152A2.672,2.672,0,0,0,0,11.215V25.828A2.672,2.672,0,0,0,2.672,28.5H25.828A2.672,2.672,0,0,0,28.5,25.828V11.217a2.672,2.672,0,0,0-.969-2.059Zm-1.7,16.337a.334.334,0,0,1-.334.334H3.006a.334.334,0,0,1-.334-.334V11.375a.334.334,0,0,1,.124-.26C3.679,10.4,8.852,6.242,10.164,5.2c1.011-.808,2.773-2.527,4.086-2.527S17.359,4.418,18.336,5.2c1.312,1.043,6.485,5.2,7.368,5.918a.333.333,0,0,1,.124.26ZM24.047,15.046a.668.668,0,0,1-.1.945c-1.613,1.3-3.3,2.649-3.948,3.165-1.264,1.01-3.347,3.109-5.752,3.109S9.725,20.137,8.5,19.156c-.628-.5-2.324-1.86-3.948-3.165a.668.668,0,0,1-.1-.945L5.3,14.014a.668.668,0,0,1,.934-.1c1.593,1.28,3.26,2.618,3.928,3.149.977.78,2.767,2.527,4.086,2.527s3.075-1.719,4.086-2.527c.668-.531,2.335-1.869,3.928-3.149a.668.668,0,0,1,.934.1l.849,1.031Z"/>
  </g>
</svg>
