<svg xmlns="http://www.w3.org/2000/svg" width="43.077" height="28" viewBox="0 0 43.077 28">
  <path id="envelope-circle-check-solid" d="M3.231,64a3.231,3.231,0,0,0-1.938,5.815L15.938,80.8a2.161,2.161,0,0,0,2.585,0l3.863-2.894a11.858,11.858,0,0,1,9.847-7.39l.936-.7A3.231,3.231,0,0,0,31.231,64ZM19.815,82.523a4.3,4.3,0,0,1-5.169,0L0,71.538v14a4.312,4.312,0,0,0,4.308,4.308H24.244a11.81,11.81,0,0,1-2.706-7.538c0-.377.02-.747.054-1.117Zm23.262-.215A9.692,9.692,0,1,0,33.385,92,9.692,9.692,0,0,0,43.077,82.308Zm-5.162-2.914a1.081,1.081,0,0,1,0,1.521l-4.846,4.846a1.081,1.081,0,0,1-1.521,0l-2.692-2.692a1.076,1.076,0,0,1,1.521-1.521l1.932,1.932,4.086-4.086A1.081,1.081,0,0,1,37.914,79.393Z" transform="translate(0 -64)"/>
</svg>
