<svg xmlns="http://www.w3.org/2000/svg" width="28.534" height="28.534" viewBox="0 0 28.534 28.534">
  <g id="envelope-open" style="isolation: isolate">
    <path id="envelope-open-2" data-name="envelope-open" d="M28.534,25.859a2.675,2.675,0,0,1-2.675,2.675H2.675A2.675,2.675,0,0,1,0,25.859V11.186A2.675,2.675,0,0,1,1.025,9.081C2.413,7.993,3.56,7.11,10.176,2.309c.938-.684,2.8-2.329,4.091-2.309,1.293-.02,3.154,1.626,4.091,2.309,6.614,4.8,7.763,5.684,9.151,6.772a2.675,2.675,0,0,1,1.025,2.105ZM24.874,14.9a.446.446,0,0,0-.632-.106c-1.273.94-3.091,2.268-5.884,4.3-.938.684-2.8,2.328-4.091,2.309-1.294.019-3.152-1.624-4.091-2.309-2.793-2.027-4.611-3.355-5.884-4.3a.446.446,0,0,0-.632.106l-.506.735a.446.446,0,0,0,.1.611c1.275.942,3.09,2.268,5.869,4.284,1.13.824,3.15,2.665,5.142,2.651,1.991.013,4.01-1.826,5.142-2.651,2.778-2.016,4.593-3.342,5.869-4.284a.446.446,0,0,0,.1-.611Z"/>
  </g>
</svg>
