<svg xmlns="http://www.w3.org/2000/svg" width="27.747" height="24.279" viewBox="0 0 27.747 24.279">
  <g id="eraser" style="isolation: isolate">
    <path id="eraser-2" data-name="eraser" d="M26.985,45.112a2.6,2.6,0,0,0,0-3.679l-8.671-8.671a2.6,2.6,0,0,0-3.679,0L.761,46.635a2.6,2.6,0,0,0,0,3.679l5.2,5.2a2.6,2.6,0,0,0,1.839.762H27.1a.65.65,0,0,0,.65-.65V53.461a.65.65,0,0,0-.65-.65h-7.81l7.7-7.7Zm-16.4-3.394,7.445,7.445L14.381,52.81H8.162L3.827,48.475Z" transform="translate(0.001 -32)"/>
  </g>
</svg>
