<svg xmlns="http://www.w3.org/2000/svg" width="18.323" height="25.671" viewBox="0 0 18.323 25.671">
  <g id="euro-sign" style="isolation: isolate">
    <path id="euro-sign-2" data-name="euro-sign" d="M17.8,53.876a.687.687,0,0,0-.827-.537,12.039,12.039,0,0,1-2.6.31,7.377,7.377,0,0,1-6.96-4.9h6.515a.688.688,0,0,0,.671-.537l.365-1.625a.688.688,0,0,0-.671-.838H6.6a12.37,12.37,0,0,1,.008-2.421h8.4a.688.688,0,0,0,.672-.541l.373-1.705a.688.688,0,0,0-.672-.835H7.46a7.2,7.2,0,0,1,6.74-4.3,11.224,11.224,0,0,1,2.169.238.688.688,0,0,0,.8-.494l.687-2.542a.687.687,0,0,0-.534-.855A16.688,16.688,0,0,0,14.3,32,12.246,12.246,0,0,0,2.583,40.252H.688A.688.688,0,0,0,0,40.939v1.705a.688.688,0,0,0,.688.688H1.924a17.011,17.011,0,0,0-.01,2.421H.688A.688.688,0,0,0,0,46.44v1.625a.688.688,0,0,0,.688.688H2.413A12,12,0,0,0,14.3,57.672a14.292,14.292,0,0,0,3.5-.446.688.688,0,0,0,.5-.8Z" transform="translate(0 -32)"/>
  </g>
</svg>
