<svg xmlns="http://www.w3.org/2000/svg" width="25.423" height="25.417" viewBox="0 0 25.423 25.417">
  <g id="expand-arrows-alt" style="isolation: isolate">
    <path id="expand-arrows-alt-2" data-name="expand-arrows-alt" d="M25.423,49.7v6.354a1.358,1.358,0,0,1-1.362,1.362H17.707a1.363,1.363,0,0,1-.964-2.326L18.8,53.037l-6.088-6.082L6.627,53.043,8.68,55.091a1.363,1.363,0,0,1-.964,2.326H1.362A1.358,1.358,0,0,1,0,56.055V49.7a1.363,1.363,0,0,1,2.326-.964L4.38,50.79l6.088-6.082L4.38,38.621,2.326,40.68A1.363,1.363,0,0,1,0,39.716V33.362A1.358,1.358,0,0,1,1.362,32H7.716a1.363,1.363,0,0,1,.964,2.326L6.627,36.38l6.082,6.082L18.8,36.374l-2.054-2.048A1.363,1.363,0,0,1,17.707,32h6.354a1.358,1.358,0,0,1,1.362,1.362v6.354a1.363,1.363,0,0,1-2.326.964l-2.054-2.054-6.088,6.082L21.043,50.8,23.1,48.742a1.361,1.361,0,0,1,2.326.959Z" transform="translate(0 -32)"/>
  </g>
</svg>
