<svg xmlns="http://www.w3.org/2000/svg" width="24.75" height="24.75" viewBox="0 0 24.75 24.75">
  <g id="expand" style="isolation: isolate">
    <path id="expand-2" data-name="expand" d="M0,40.176v-6.85A1.323,1.323,0,0,1,1.326,32h6.85a.665.665,0,0,1,.663.663v2.21a.665.665,0,0,1-.663.663H3.536v4.641a.665.665,0,0,1-.663.663H.663A.665.665,0,0,1,0,40.176Zm15.91-7.513v2.21a.665.665,0,0,0,.663.663h4.641v4.641a.665.665,0,0,0,.663.663h2.21a.665.665,0,0,0,.663-.663v-6.85A1.323,1.323,0,0,0,23.424,32h-6.85A.665.665,0,0,0,15.91,32.663ZM24.087,47.91h-2.21a.665.665,0,0,0-.663.663v4.641H16.573a.665.665,0,0,0-.663.663v2.21a.665.665,0,0,0,.663.663h6.85a1.323,1.323,0,0,0,1.326-1.326v-6.85A.665.665,0,0,0,24.087,47.91ZM8.839,56.087v-2.21a.665.665,0,0,0-.663-.663H3.536V48.573a.665.665,0,0,0-.663-.663H.663A.665.665,0,0,0,0,48.573v6.85A1.323,1.323,0,0,0,1.326,56.75h6.85A.665.665,0,0,0,8.839,56.087Z" transform="translate(0 -32)"/>
  </g>
</svg>
