<svg xmlns="http://www.w3.org/2000/svg" width="36.003" height="28" viewBox="0 0 36.003 28">
  <path id="eye-solid" d="M18.023,32A17.587,17.587,0,0,0,5.986,37.037,24.764,24.764,0,0,0,.18,45.231a1.988,1.988,0,0,0,0,1.538,24.764,24.764,0,0,0,5.806,8.194A17.587,17.587,0,0,0,18.023,60a17.587,17.587,0,0,0,12.038-5.037,24.952,24.952,0,0,0,5.812-8.194,1.988,1.988,0,0,0,0-1.538,24.889,24.889,0,0,0-5.812-8.194A17.587,17.587,0,0,0,18.023,32Zm-9,14a9,9,0,1,1,9,9A9,9,0,0,1,9.023,46Zm9-4a4,4,0,0,1-4,4,4.058,4.058,0,0,1-1.269-.206.532.532,0,0,0-.731.463,5.8,5.8,0,0,0,.2,1.294A6,6,0,1,0,18.28,40a.53.53,0,0,0-.462.731A4.058,4.058,0,0,1,18.023,42Z" transform="translate(-0.025 -32)"/>
</svg>
