<svg xmlns="http://www.w3.org/2000/svg" width="28" height="28" viewBox="0 0 28 28">
  <g id="face-frown-solid" style="isolation: isolate">
    <path id="face-frown-solid-2" data-name="face-frown-solid" d="M14,28A14,14,0,1,0,0,14,14,14,0,0,0,14,28ZM8.712,21.257a.874.874,0,1,1-1.668-.52A7.229,7.229,0,0,1,14,15.75a7.239,7.239,0,0,1,6.962,4.993.874.874,0,1,1-1.668.52A5.5,5.5,0,0,0,14,17.5,5.49,5.49,0,0,0,8.712,21.257ZM7.9,11.375a1.75,1.75,0,1,1,1.75,1.75A1.75,1.75,0,0,1,7.9,11.375Zm10.5-1.75a1.75,1.75,0,1,1-1.75,1.75A1.75,1.75,0,0,1,18.4,9.625Z" transform="translate(0 0)"/>
  </g>
</svg>
