<svg xmlns="http://www.w3.org/2000/svg" width="28" height="28" viewBox="0 0 28 28">
  <g id="face-smile-solid" style="isolation: isolate">
    <path id="face-smile-solid-2" data-name="face-smile-solid" d="M14,28A14,14,0,1,0,0,14,14,14,0,0,0,14,28ZM8.974,17.8a6.6,6.6,0,0,0,10.052,0,.876.876,0,1,1,1.323,1.148,8.352,8.352,0,0,1-12.7,0A.876.876,0,1,1,8.974,17.8ZM7.9,11.375a1.75,1.75,0,1,1,1.75,1.75A1.75,1.75,0,0,1,7.9,11.375Zm10.5-1.75a1.75,1.75,0,1,1-1.75,1.75A1.75,1.75,0,0,1,18.4,9.625Z" transform="translate(0 0)"/>
  </g>
</svg>
