<svg xmlns="http://www.w3.org/2000/svg" width="27.542" height="20.659" viewBox="0 0 27.542 20.659">
  <g id="fast-forward" style="isolation: isolate">
    <path id="fast-forward-2" data-name="fast-forward" d="M27.542,64.64V84a.647.647,0,0,1-.646.646H24.744A.647.647,0,0,1,24.1,84V75.834l-9.225,8.418a1.722,1.722,0,0,1-2.824-1.323v-7.1L2.824,84.252A1.722,1.722,0,0,1,0,82.929V65.715a1.724,1.724,0,0,1,2.824-1.323l9.225,8.359V65.715a1.724,1.724,0,0,1,2.824-1.323L24.1,72.751V64.64a.647.647,0,0,1,.646-.646H26.9A.647.647,0,0,1,27.542,64.64Z" transform="translate(0 -63.994)"/>
  </g>
</svg>
