<svg xmlns="http://www.w3.org/2000/svg" width="28.197" height="21.148" viewBox="0 0 28.197 21.148">
  <g id="fast-backward" style="isolation: isolate">
    <path id="fast-backward-2" data-name="fast-backward" d="M0,84.481V64.655a.663.663,0,0,1,.661-.661h2.2a.663.663,0,0,1,.661.661V73.02L12.969,64.4a1.765,1.765,0,0,1,2.891,1.355V73.02L25.306,64.4A1.765,1.765,0,0,1,28.2,65.756V83.379a1.765,1.765,0,0,1-2.891,1.355l-9.445-8.553v7.2a1.765,1.765,0,0,1-2.891,1.355L3.525,76.181v8.3a.663.663,0,0,1-.661.661H.661A.663.663,0,0,1,0,84.481Z" transform="translate(0 -63.994)"/>
  </g>
</svg>
