<svg xmlns="http://www.w3.org/2000/svg" width="28.391" height="28.391" viewBox="0 0 28.391 28.391">
  <g id="fax" style="isolation: isolate">
    <path id="fax-2" data-name="fax" d="M3.549,7.1H1.774A1.775,1.775,0,0,0,0,8.872V26.617a1.775,1.775,0,0,0,1.774,1.774H3.549a1.775,1.775,0,0,0,1.774-1.774V8.872A1.775,1.775,0,0,0,3.549,7.1ZM26.617,8.872V4.284a1.775,1.775,0,0,0-.52-1.255L23.588.52A1.775,1.775,0,0,0,22.333,0H8.872A1.775,1.775,0,0,0,7.1,1.774V26.617a1.775,1.775,0,0,0,1.774,1.774H26.617a1.775,1.775,0,0,0,1.774-1.774V10.647A1.775,1.775,0,0,0,26.617,8.872ZM15.97,23.955a.887.887,0,0,1-.887.887H13.308a.887.887,0,0,1-.887-.887V22.181a.887.887,0,0,1,.887-.887h1.774a.887.887,0,0,1,.887.887Zm0-7.1a.887.887,0,0,1-.887.887H13.308a.887.887,0,0,1-.887-.887V15.083a.887.887,0,0,1,.887-.887h1.774a.887.887,0,0,1,.887.887Zm7.1,7.1a.887.887,0,0,1-.887.887H20.406a.887.887,0,0,1-.887-.887V22.181a.887.887,0,0,1,.887-.887h1.774a.887.887,0,0,1,.887.887Zm0-7.1a.887.887,0,0,1-.887.887H20.406a.887.887,0,0,1-.887-.887V15.083a.887.887,0,0,1,.887-.887h1.774a.887.887,0,0,1,.887.887Zm.887-6.211H9.76V2.662H21.294V4.436a.887.887,0,0,0,.887.887h1.774Z"/>
  </g>
</svg>
