<svg xmlns="http://www.w3.org/2000/svg" width="21.52" height="28.693" viewBox="0 0 21.52 28.693">
  <g id="file-video" style="isolation: isolate">
    <path id="file-video-2" data-name="file-video" d="M20.732,5.489l-4.7-4.7A2.69,2.69,0,0,0,14.129,0H2.69A2.69,2.69,0,0,0,0,2.69V26a2.69,2.69,0,0,0,2.69,2.69H18.83A2.69,2.69,0,0,0,21.52,26V7.391a2.69,2.69,0,0,0-.788-1.9Zm-2.12,1.685H14.347V2.908ZM2.69,26V2.69h8.967V8.518A1.345,1.345,0,0,0,13,9.863H18.83V26ZM15.506,14.161l-2.953,2.952V15.019A1.121,1.121,0,0,0,11.432,13.9H5.6a1.121,1.121,0,0,0-1.121,1.121v5.828A1.121,1.121,0,0,0,5.6,21.968h5.828a1.121,1.121,0,0,0,1.121-1.121V18.753L15.506,21.7a.9.9,0,0,0,1.531-.634V14.8A.9.9,0,0,0,15.506,14.161Z"/>
  </g>
</svg>
