<svg xmlns="http://www.w3.org/2000/svg" width="21.386" height="28.515" viewBox="0 0 21.386 28.515">
  <g id="file-audio" style="isolation: isolate">
    <path id="file-audio-2" data-name="file-audio" d="M12.475,7.574V0H1.337A1.333,1.333,0,0,0,0,1.337V27.178a1.333,1.333,0,0,0,1.337,1.337H20.05a1.333,1.333,0,0,0,1.337-1.337V8.911H13.812A1.341,1.341,0,0,1,12.475,7.574ZM8.911,22.5a.67.67,0,0,1-1.142.473L5.792,20.941H4.233a.67.67,0,0,1-.668-.668V17.154a.67.67,0,0,1,.668-.668H5.792l1.977-2.033a.668.668,0,0,1,1.142.473Zm1.849-2.651a1.328,1.328,0,0,0,0-1.86,1.337,1.337,0,0,1,1.916-1.866,4.008,4.008,0,0,1,0,5.592,1.337,1.337,0,0,1-1.916-1.866Zm4.79-6.522a8.016,8.016,0,0,1,0,11.183,1.337,1.337,0,0,1-1.916-1.866,5.341,5.341,0,0,0,0-7.452A1.337,1.337,0,0,1,15.55,13.327Zm5.837-6.538v.34H14.257V0h.34a1.336,1.336,0,0,1,.947.39L21,5.848A1.332,1.332,0,0,1,21.386,6.789Z"/>
  </g>
</svg>
