<svg xmlns="http://www.w3.org/2000/svg" width="31.495" height="28" viewBox="0 0 31.495 28">
  <g id="file-shield-solid" style="isolation: isolate">
    <path id="file-shield-solid-2" data-name="file-shield-solid" d="M0,3.5A3.5,3.5,0,0,1,3.5,0h8.749V7A1.748,1.748,0,0,0,14,8.749h7v2.57l-5.074,2.029A3.059,3.059,0,0,0,14,16.191a14.723,14.723,0,0,0,5.151,11.39A3.5,3.5,0,0,1,17.5,28H3.5A3.5,3.5,0,0,1,0,24.5ZM21,7H14V0Zm2.138,5.342a1.3,1.3,0,0,1,.973,0l6.562,2.625a1.319,1.319,0,0,1,.826,1.219c0,3.461-1.416,9.23-7.371,11.712a1.3,1.3,0,0,1-1.012,0c-5.949-2.482-7.365-8.251-7.365-11.712a1.319,1.319,0,0,1,.826-1.219l6.562-2.625Zm5.7,4.719-5.216-2.089V25.246A9.611,9.611,0,0,0,28.838,17.06Z"/>
  </g>
</svg>
