<svg xmlns="http://www.w3.org/2000/svg" width="34.298" height="30.53" viewBox="0 0 34.298 30.53">
  <g id="file-signature-solid" style="isolation: isolate">
    <path id="file-signature-solid-2" data-name="file-signature-solid" d="M3.816,0A3.827,3.827,0,0,0,0,3.816v22.9A3.827,3.827,0,0,0,3.816,30.53H19.081A3.827,3.827,0,0,0,22.9,26.714V25.569c-.191,0-.382.191-.572.191l-3.435.954H14.311c-.382,0-.763-.191-.763-.572L12.975,25c-.191,0-.382-.191-.572-.191s-.382.191-.572.382l-.382.954a1.049,1.049,0,0,1-.954.572,1.268,1.268,0,0,1-.954-.763l-.954-3.244-.572,1.908a2.808,2.808,0,0,1-2.671,2.1H4.77a.954.954,0,1,1,0-1.908h.572a.974.974,0,0,0,.954-.763l.954-2.862a1.451,1.451,0,0,1,1.526-1.145A1.451,1.451,0,0,1,10.3,21.18l.763,2.29A1.486,1.486,0,0,1,12.4,22.9a2.91,2.91,0,0,1,2.29,1.336l.191.572h.572a5.283,5.283,0,0,1-.191-1.717l.954-3.625a7.734,7.734,0,0,1,.954-1.717L22.9,12.021V9.541H15.265a1.8,1.8,0,0,1-1.908-1.908V0ZM15.265,0V7.632H22.9ZM32.82,8.4a2.419,2.419,0,0,0-3.435,0l-1.717,1.717,4.2,4.2,1.717-1.717a2.419,2.419,0,0,0,0-3.435ZM18.509,19.081a4.171,4.171,0,0,0-.572.954l-.763,3.625a1.43,1.43,0,0,0,.191.954c.191.191.763.191.954.191l3.625-.954c.382,0,.572-.191.954-.572l7.632-7.632-4.2-4.2Z"/>
  </g>
</svg>
