<svg xmlns="http://www.w3.org/2000/svg" width="24.903" height="33.204" viewBox="0 0 24.903 33.204">
  <g id="file-invoice-dollar-solid" style="isolation: isolate">
    <path id="file-invoice-dollar-solid-2" data-name="file-invoice-dollar-solid" d="M4.15,0A4.154,4.154,0,0,0,0,4.15v24.9A4.154,4.154,0,0,0,4.15,33.2h16.6a4.154,4.154,0,0,0,4.15-4.15V10.376H16.6A2.073,2.073,0,0,1,14.527,8.3V0ZM16.6,0V8.3h8.3ZM4.15,5.188A1.041,1.041,0,0,1,5.188,4.15h4.15a1.038,1.038,0,0,1,0,2.075H5.188A1.041,1.041,0,0,1,4.15,5.188Zm0,4.15A1.041,1.041,0,0,1,5.188,8.3h4.15a1.038,1.038,0,0,1,0,2.075H5.188A1.041,1.041,0,0,1,4.15,9.339Zm8.3,4.669a1.041,1.041,0,0,1,1.038,1.038v1.122a12.985,12.985,0,0,1,1.563.331,1.037,1.037,0,1,1-.538,2,8.5,8.5,0,0,0-2.082-.344,3.069,3.069,0,0,0-1.53.357.9.9,0,0,0-.525.83c0,.24.084.422.473.655a9.115,9.115,0,0,0,1.894.707l.032.006h0a9.625,9.625,0,0,1,2.354.947A2.9,2.9,0,0,1,16.6,24.138a3.035,3.035,0,0,1-1.485,2.7,4.517,4.517,0,0,1-1.628.59v1.109a1.038,1.038,0,1,1-2.075,0V27.38a13.879,13.879,0,0,1-2-.577h0c-.136-.045-.272-.091-.4-.136A1.036,1.036,0,1,1,9.663,24.7c.162.052.311.1.46.156h0a8.076,8.076,0,0,0,2.354.564,2.857,2.857,0,0,0,1.537-.344.964.964,0,0,0,.506-.908.846.846,0,0,0-.5-.752,8.2,8.2,0,0,0-1.881-.726l-.1-.032h0a9.892,9.892,0,0,1-2.257-.888,2.765,2.765,0,0,1-1.472-2.419,2.972,2.972,0,0,1,1.543-2.626,4.768,4.768,0,0,1,1.563-.564V15.046a1.041,1.041,0,0,1,1.038-1.038Z"/>
  </g>
</svg>
