<svg xmlns="http://www.w3.org/2000/svg" width="21.386" height="28.515" viewBox="0 0 21.386 28.515">
  <g id="file-audio" style="isolation: isolate">
    <path id="file-audio-2" data-name="file-audio" d="M20.6,5.455,15.932.783A2.673,2.673,0,0,0,14.041,0H2.673A2.673,2.673,0,0,0,0,2.673V25.842a2.673,2.673,0,0,0,2.673,2.673h16.04a2.673,2.673,0,0,0,2.673-2.673V7.345a2.673,2.673,0,0,0-.783-1.89ZM18.5,7.129H14.258V2.889ZM2.673,25.842V2.673h8.911V8.465A1.337,1.337,0,0,0,12.921,9.8h5.792v16.04Zm8.02-4.234a.668.668,0,0,1-1.141.473l-1.978-2H6.015a.668.668,0,0,1-.668-.668V16.29a.668.668,0,0,1,.668-.668H7.574l1.978-2.058a.668.668,0,0,1,1.141.473Zm2.295-2.625a1.335,1.335,0,0,0,0-1.862A1.337,1.337,0,0,1,14.9,15.256a4.008,4.008,0,0,1,0,5.592,1.337,1.337,0,0,1-1.916-1.865Z"/>
  </g>
</svg>
