<svg xmlns="http://www.w3.org/2000/svg" width="21.386" height="28.515" viewBox="0 0 21.386 28.515">
  <g id="file-video" style="isolation: isolate">
    <path id="file-video-2" data-name="file-video" d="M21.386,6.791v.337H14.258V0h.337a1.337,1.337,0,0,1,.945.391l5.455,5.455A1.337,1.337,0,0,1,21.386,6.791Zm-8.911.783V0H1.337A1.337,1.337,0,0,0,0,1.337V27.178a1.337,1.337,0,0,0,1.337,1.337H20.05a1.337,1.337,0,0,0,1.337-1.337V8.911H13.812A1.341,1.341,0,0,1,12.475,7.574ZM17.822,15.6v6.236a1.337,1.337,0,0,1-2.282.945l-3.065-3.064v2.12a1.337,1.337,0,0,1-1.337,1.337H4.9a1.337,1.337,0,0,1-1.337-1.337V15.594A1.337,1.337,0,0,1,4.9,14.258h6.238a1.337,1.337,0,0,1,1.337,1.337v2.12L15.54,14.65A1.338,1.338,0,0,1,17.822,15.6Z"/>
  </g>
</svg>
