<svg xmlns="http://www.w3.org/2000/svg" width="20.11" height="26.819" viewBox="0 0 20.11 26.819">
  <g id="file-code" style="isolation: isolate">
    <path id="file-code-2" data-name="file-code" d="M7.85,18.188l-.01-.01L6.122,16.664,7.84,15.15a.463.463,0,0,0,.042-.649l-.01-.01-.911-.974a.457.457,0,0,0-.649-.021L3.289,16.329a.459.459,0,0,0,0,.67l3.022,2.833a.467.467,0,0,0,.314.126.452.452,0,0,0,.335-.147l.911-.974a.462.462,0,0,0-.021-.649ZM19.372,5.032,14.978.638A2.514,2.514,0,0,0,13.2-.1H2.514A2.522,2.522,0,0,0,0,2.419V24.205a2.514,2.514,0,0,0,2.514,2.514H17.6a2.514,2.514,0,0,0,2.514-2.514V6.813a2.526,2.526,0,0,0-.738-1.781ZM13.407,2.623l3.985,3.985H13.407ZM17.6,24.205H2.514V2.419h8.379V7.866A1.254,1.254,0,0,0,12.15,9.122H17.6Zm-6.62-13.093a.458.458,0,0,0-.571.314L7.541,21.278a.456.456,0,0,0,.314.571l1.278.372a.46.46,0,0,0,.571-.314l2.865-9.856a.456.456,0,0,0-.314-.571ZM12.26,15.14l.01.01,1.718,1.514L12.27,18.177a.463.463,0,0,0-.042.649l.01.01.911.974a.462.462,0,0,0,.649.021L16.821,17a.459.459,0,0,0,0-.67L13.8,13.5a.457.457,0,0,0-.649.021l-.911.974A.462.462,0,0,0,12.26,15.14Z" transform="translate(0 0.1)"/>
  </g>
</svg>
