<svg xmlns="http://www.w3.org/2000/svg" width="20.11" height="26.814" viewBox="0 0 20.11 26.814">
  <g id="file-code" style="isolation: isolate">
    <path id="file-code-2" data-name="file-code" d="M20.11,6.386V6.7h-6.7V0h.317a1.257,1.257,0,0,1,.889.368L19.742,5.5A1.257,1.257,0,0,1,20.11,6.386ZM12.988,8.379a1.261,1.261,0,0,1-1.257-1.257V0H1.257A1.257,1.257,0,0,0,0,1.257v24.3a1.257,1.257,0,0,0,1.257,1.257h17.6a1.257,1.257,0,0,0,1.257-1.257V8.379Zm-6.536,12.6a.283.283,0,0,1-.4.013L2.656,17.8a.283.283,0,0,1,0-.413l3.4-3.185a.283.283,0,0,1,.4.013l1.025,1.094a.283.283,0,0,1-.019.406L5.323,17.6l2.135,1.879a.283.283,0,0,1,.019.406L6.452,20.975Zm2.686,2.644L7.7,23.2a.283.283,0,0,1-.193-.35l3.218-11.083a.283.283,0,0,1,.35-.193l1.438.417a.283.283,0,0,1,.193.35L9.489,23.426a.283.283,0,0,1-.35.193ZM17.56,17.8l-3.4,3.185a.283.283,0,0,1-.4-.013l-1.025-1.094a.283.283,0,0,1,.019-.406L14.892,17.6l-2.135-1.879a.283.283,0,0,1-.019-.406l1.025-1.094a.283.283,0,0,1,.4-.013l3.4,3.185a.283.283,0,0,1,0,.413Z"/>
  </g>
</svg>
