<svg xmlns="http://www.w3.org/2000/svg" width="20.637" height="27.516" viewBox="0 0 20.637 27.516">
  <g id="file-alt" style="isolation: isolate">
    <path id="file-alt-2" data-name="file-alt" d="M15.478,13.328v1.5a.647.647,0,0,1-.645.645H5.8a.647.647,0,0,1-.645-.645v-1.5a.647.647,0,0,1,.645-.645h9.029A.647.647,0,0,1,15.478,13.328ZM14.833,17.2H5.8a.647.647,0,0,0-.645.645v1.5a.647.647,0,0,0,.645.645h9.029a.647.647,0,0,0,.645-.645v-1.5A.647.647,0,0,0,14.833,17.2Zm5.8-10.109V24.936a2.58,2.58,0,0,1-2.58,2.58H2.58A2.58,2.58,0,0,1,0,24.936V2.58A2.58,2.58,0,0,1,2.58,0H13.548A2.58,2.58,0,0,1,15.37.758l4.509,4.509A2.57,2.57,0,0,1,20.637,7.089Zm-6.879-4.3v4.09h4.09l-4.09-4.09Zm4.3,22.147V9.459H12.468a1.287,1.287,0,0,1-1.29-1.29V2.58H2.58V24.936Z"/>
  </g>
</svg>
