<svg xmlns="http://www.w3.org/2000/svg" width="21.881" height="29.181" viewBox="0 0 21.881 29.181">
  <g id="file" style="isolation: isolate">
    <path id="file-2" data-name="file" d="M21.078,5.484,16.3.7a2.735,2.735,0,0,0-1.932-.8H2.735A2.744,2.744,0,0,0,0,2.641v23.7a2.736,2.736,0,0,0,2.735,2.735H19.146a2.736,2.736,0,0,0,2.735-2.735V7.422a2.749,2.749,0,0,0-.8-1.937ZM18.924,7.2H14.588V2.863ZM2.735,26.346V2.641h9.117V8.567A1.364,1.364,0,0,0,13.22,9.935h5.926V26.346Z" transform="translate(0 0.1)"/>
  </g>
</svg>
