<svg xmlns="http://www.w3.org/2000/svg" width="28.492" height="21.369" viewBox="0 0 28.492 21.369">
  <g id="film" style="isolation: isolate">
    <path id="film-2" data-name="film" d="M27.157,64h-.445v1.113a.67.67,0,0,1-.668.668H23.818a.67.67,0,0,1-.668-.668V64H5.342v1.113a.67.67,0,0,1-.668.668H2.449a.67.67,0,0,1-.668-.668V64H1.336A1.332,1.332,0,0,0,0,65.336v18.7a1.332,1.332,0,0,0,1.336,1.336h.445V84.256a.67.67,0,0,1,.668-.668H4.674a.67.67,0,0,1,.668.668v1.113H23.15V84.256a.67.67,0,0,1,.668-.668h2.226a.67.67,0,0,1,.668.668v1.113h.445a1.332,1.332,0,0,0,1.336-1.336v-18.7A1.332,1.332,0,0,0,27.157,64ZM5.342,81.14a.67.67,0,0,1-.668.668H2.449a.67.67,0,0,1-.668-.668V78.914a.67.67,0,0,1,.668-.668H4.674a.67.67,0,0,1,.668.668Zm0-5.342a.67.67,0,0,1-.668.668H2.449a.67.67,0,0,1-.668-.668V73.572a.67.67,0,0,1,.668-.668H4.674a.67.67,0,0,1,.668.668Zm0-5.342a.67.67,0,0,1-.668.668H2.449a.67.67,0,0,1-.668-.668V68.229a.67.67,0,0,1,.668-.668H4.674a.67.67,0,0,1,.668.668ZM20.479,82.03a.67.67,0,0,1-.668.668H8.681a.67.67,0,0,1-.668-.668V76.688a.67.67,0,0,1,.668-.668h11.13a.67.67,0,0,1,.668.668Zm0-9.349a.67.67,0,0,1-.668.668H8.681a.67.67,0,0,1-.668-.668V67.339a.67.67,0,0,1,.668-.668h11.13a.67.67,0,0,1,.668.668Zm6.233,8.459a.67.67,0,0,1-.668.668H23.818a.67.67,0,0,1-.668-.668V78.914a.67.67,0,0,1,.668-.668h2.226a.67.67,0,0,1,.668.668Zm0-5.342a.67.67,0,0,1-.668.668H23.818a.67.67,0,0,1-.668-.668V73.572a.67.67,0,0,1,.668-.668h2.226a.67.67,0,0,1,.668.668Zm0-5.342a.67.67,0,0,1-.668.668H23.818a.67.67,0,0,1-.668-.668V68.229a.67.67,0,0,1,.668-.668h2.226a.67.67,0,0,1,.668.668Z" transform="translate(0 -64)"/>
  </g>
</svg>
