<svg xmlns="http://www.w3.org/2000/svg" width="28.178" height="28.474" viewBox="0 0 28.178 28.474">
  <path id="fingerprint-solid" d="M2.641,14.464A11.6,11.6,0,0,1,14.086,2.712a11.3,11.3,0,0,1,8.683,4.1,1.294,1.294,0,0,0,1.86.147,1.383,1.383,0,0,0,.143-1.91A13.888,13.888,0,0,0,14.086,0,14.278,14.278,0,0,0,0,14.464v2.26A1.335,1.335,0,0,0,1.321,18.08a1.335,1.335,0,0,0,1.321-1.356ZM27.87,11.475a1.315,1.315,0,0,0-1.563-1.045,1.357,1.357,0,0,0-1.018,1.6,12.214,12.214,0,0,1,.248,2.435v2.26a1.321,1.321,0,1,0,2.641,0V14.464a14.872,14.872,0,0,0-.3-2.989ZM14.086,4.52a9.41,9.41,0,0,0-3,.486,1.258,1.258,0,0,0-.457,2.028,1.544,1.544,0,0,0,1.618.446,6.785,6.785,0,0,1,1.838-.249,7.139,7.139,0,0,1,7.043,7.232V15.87a37.869,37.869,0,0,1-.242,4.254A1.383,1.383,0,0,0,22.219,21.7,1.292,1.292,0,0,0,23.5,20.549a40.1,40.1,0,0,0,.275-4.672V14.464A9.817,9.817,0,0,0,14.092,4.52ZM8.292,8.4a1.179,1.179,0,0,0-1.865-.023A10.047,10.047,0,0,0,4.4,14.464V15.87a19.32,19.32,0,0,1-.429,4.062A1.425,1.425,0,0,0,5.288,21.7a1.246,1.246,0,0,0,1.222-.977,22.361,22.361,0,0,0,.534-4.848V14.464a7.344,7.344,0,0,1,1.26-4.13A1.627,1.627,0,0,0,8.292,8.4Zm5.794.638A5.356,5.356,0,0,0,8.8,14.464V15.87a23.892,23.892,0,0,1-.759,5.995A1.289,1.289,0,0,0,9.228,23.5a1.161,1.161,0,0,0,1.123-.87,26.658,26.658,0,0,0,.875-6.763V14.464a2.862,2.862,0,1,1,5.723,0V15.87a32.766,32.766,0,0,1-.572,6.1,1.272,1.272,0,0,0,1.2,1.537,1.177,1.177,0,0,0,1.156-.96,35.142,35.142,0,0,0,.638-6.672V14.464A5.356,5.356,0,0,0,14.086,9.04Zm1.321,5.424a1.321,1.321,0,1,0-2.641,0V15.87a28.229,28.229,0,0,1-1.788,9.9l-.325.864a1.362,1.362,0,0,0,.759,1.751,1.309,1.309,0,0,0,1.706-.78l.325-.864a31.013,31.013,0,0,0,1.964-10.87Z"/>
</svg>
