<svg xmlns="http://www.w3.org/2000/svg" width="27" height="27" viewBox="0 0 27 27">
  <g id="floppy-disk-solid" style="isolation: isolate">
    <path id="floppy-disk-solid-2" data-name="floppy-disk-solid" d="M3.857,32A3.861,3.861,0,0,0,0,35.857V55.143A3.861,3.861,0,0,0,3.857,59H23.143A3.861,3.861,0,0,0,27,55.143V40.516a3.858,3.858,0,0,0-1.127-2.73l-4.659-4.659A3.858,3.858,0,0,0,18.484,32Zm0,5.786a1.926,1.926,0,0,1,1.929-1.929H17.357a1.926,1.926,0,0,1,1.929,1.929v3.857a1.926,1.926,0,0,1-1.929,1.929H5.786a1.926,1.926,0,0,1-1.929-1.929ZM13.5,47.429a3.857,3.857,0,1,1-3.857,3.857A3.857,3.857,0,0,1,13.5,47.429Z" transform="translate(0 -32)"/>
  </g>
</svg>
