<svg xmlns="http://www.w3.org/2000/svg" width="31.499" height="21" viewBox="0 0 31.499 21">
  <g id="folder-open" style="isolation: isolate">
    <path id="folder-open-2" data-name="folder-open" d="M28.87,72.75H26.25V70.125A2.626,2.626,0,0,0,23.625,67.5h-8.75l-3.5-3.5H2.625A2.626,2.626,0,0,0,0,66.625v15.75A2.626,2.626,0,0,0,2.625,85H24.5a2.624,2.624,0,0,0,2.226-1.236l4.37-7A2.624,2.624,0,0,0,28.87,72.75Zm-26.245-5.8a.329.329,0,0,1,.328-.328h7.334l3.5,3.5H23.3a.329.329,0,0,1,.328.328v2.3H8.313a2.627,2.627,0,0,0-2.248,1.269l-3.44,5.7ZM24.5,82.375H3.938l4.222-7H28.875Z" transform="translate(0 -64)"/>
  </g>
</svg>
