<svg xmlns="http://www.w3.org/2000/svg" width="26.981" height="20.236" viewBox="0 0 26.981 20.236">
  <g id="folder-outline" style="isolation: isolate">
    <path id="folder" d="M24.451,67.373H14.334l-2.879-2.879A1.686,1.686,0,0,0,10.262,64H2.529A2.529,2.529,0,0,0,0,66.529V81.706a2.529,2.529,0,0,0,2.529,2.529H24.451a2.529,2.529,0,0,0,2.529-2.529V69.9A2.529,2.529,0,0,0,24.451,67.373Zm0,14.334H2.529V66.529H9.913l2.879,2.879a1.686,1.686,0,0,0,1.193.494H24.451Z" transform="translate(0 -64)"/>
  </g>
</svg>
