<svg xmlns="http://www.w3.org/2000/svg" width="27.46" height="20.599" viewBox="0 0 27.46 20.599">
  <g id="forward" style="isolation: isolate">
    <path id="forward-2" data-name="forward" d="M26.844,72.973l-10.3-8.582a1.719,1.719,0,0,0-2.816,1.319V82.874a1.717,1.717,0,0,0,2.816,1.319l10.3-8.582A1.722,1.722,0,0,0,26.844,72.973Zm-13.731,0-10.3-8.582A1.719,1.719,0,0,0,0,65.71V82.874a1.717,1.717,0,0,0,2.816,1.319l10.3-8.582A1.722,1.722,0,0,0,13.114,72.973Z" transform="translate(0 -63.994)"/>
  </g>
</svg>
