<svg xmlns="http://www.w3.org/2000/svg" width="33.3" height="33.293" viewBox="0 0 33.3 33.293">
  <g id="gavel-solid" style="isolation: isolate">
    <path id="gavel-solid-2" data-name="gavel-solid" d="M20.645.635a2.084,2.084,0,0,0-2.945,0l-7.8,7.8a2.084,2.084,0,0,0,0,2.945l1.04,1.04a2.084,2.084,0,0,0,2.945,0l.26-.26L21.087,19.1l-.26.26a2.084,2.084,0,0,0,0,2.945l1.04,1.04a2.084,2.084,0,0,0,2.945,0l7.8-7.8a2.084,2.084,0,0,0,0-2.945l-1.04-1.04a2.084,2.084,0,0,0-2.945,0l-.26.26L21.426,4.874l.26-.26a2.084,2.084,0,0,0,0-2.945L20.645.628ZM10.762,19.36a2.084,2.084,0,0,0-2.945,0L.535,26.643a2.084,2.084,0,0,0,0,2.945l3.121,3.121a2.084,2.084,0,0,0,2.945,0l7.282-7.282a2.084,2.084,0,0,0,0-2.945l-.091-.091,3.823-3.817L14.67,15.628l-3.817,3.817-.091-.085Z" transform="translate(0.075 -0.025)"/>
  </g>
</svg>
