<svg xmlns="http://www.w3.org/2000/svg" width="27.096" height="27.102" viewBox="0 0 27.096 27.102">
  <g id="globe" style="isolation: isolate">
    <path id="globe-2" data-name="globe" d="M18.387,16.305C17.594,11.426,15.726,8,13.551,8s-4.043,3.426-4.836,8.305ZM8.305,21.551a34.248,34.248,0,0,0,.18,3.5H18.611a34.247,34.247,0,0,0,.18-3.5,34.248,34.248,0,0,0-.18-3.5H8.486A34.248,34.248,0,0,0,8.305,21.551Zm17.742-5.245a13.579,13.579,0,0,0-8.633-7.737,18.442,18.442,0,0,1,2.732,7.737ZM9.682,8.568a13.57,13.57,0,0,0-8.628,7.737h5.9A18.367,18.367,0,0,1,9.682,8.568Zm16.949,9.486H20.364c.115,1.147.18,2.322.18,3.5s-.066,2.35-.18,3.5h6.262a13.434,13.434,0,0,0,.47-3.5,13.669,13.669,0,0,0-.464-3.5Zm-20.075,3.5c0-1.175.066-2.35.18-3.5H.47a13.247,13.247,0,0,0,0,6.994H6.732C6.622,23.9,6.557,22.726,6.557,21.551ZM8.715,26.8c.792,4.879,2.661,8.305,4.836,8.305s4.043-3.426,4.836-8.305Zm8.7,7.737A13.592,13.592,0,0,0,26.053,26.8h-5.9A18.442,18.442,0,0,1,17.419,34.533ZM1.055,26.8a13.579,13.579,0,0,0,8.633,7.737A18.442,18.442,0,0,1,6.956,26.8h-5.9Z" transform="translate(0 -8)"/>
  </g>
</svg>
