<svg xmlns="http://www.w3.org/2000/svg" width="36" height="25.204" viewBox="0 0 36 25.204">
  <g id="graduation-cap-solid" style="isolation: isolate">
    <path id="graduation-cap-solid-2" data-name="graduation-cap-solid" d="M17.985,32a3.979,3.979,0,0,0-1.333.231L.874,37.929a1.354,1.354,0,0,0,0,2.542l3.257,1.176a9.26,9.26,0,0,0-1.446,4.972V48.2a10.671,10.671,0,0,1-1.254,4.545A14.912,14.912,0,0,1,.165,54.859a.9.9,0,0,0,.5,1.417l3.6.9a.9.9,0,0,0,.7-.112.881.881,0,0,0,.4-.585,14.5,14.5,0,0,0-.118-6.114A12.439,12.439,0,0,0,4.485,48V46.619a7.469,7.469,0,0,1,1.569-4.584,6.868,6.868,0,0,1,2.767-2.008l8.831-3.471a.9.9,0,1,1,.658,1.671L9.48,41.7a5.164,5.164,0,0,0-1.811,1.215l8.977,3.24a3.968,3.968,0,0,0,2.666,0L35.1,40.471a1.354,1.354,0,0,0,0-2.542l-15.778-5.7A3.979,3.979,0,0,0,17.985,32ZM7.185,53.149c0,1.986,4.837,4.05,10.8,4.05s10.8-2.064,10.8-4.05l-.861-8.179-8,2.891a5.748,5.748,0,0,1-3.881,0l-8-2.891Z" transform="translate(0.015 -32)"/>
  </g>
</svg>
