<svg xmlns="http://www.w3.org/2000/svg" width="39.4" height="31.717" viewBox="0 0 39.4 31.717">
  <g id="handcuffs-solid" style="isolation: isolate">
    <path id="handcuffs-solid-2" data-name="handcuffs-solid" d="M14.775,1.97A1.861,1.861,0,0,1,16.745,0a1.861,1.861,0,0,1,1.97,1.97,1.861,1.861,0,0,1-1.97,1.97A1.861,1.861,0,0,1,14.775,1.97Zm-2.955.985a1.861,1.861,0,0,1,1.97,1.97,1.861,1.861,0,0,1-1.97,1.97,1.861,1.861,0,0,1-1.97-1.97A1.861,1.861,0,0,1,11.82,2.955ZM9.85,7.88a1.861,1.861,0,0,1,1.97,1.97h.394a1.45,1.45,0,0,1,1.576,1.576V12.8A9.871,9.871,0,0,1,9.85,31.717,9.871,9.871,0,0,1,5.91,12.8V11.426A1.45,1.45,0,0,1,7.486,9.85H7.88A1.861,1.861,0,0,1,9.85,7.88Zm0,19.7a5.91,5.91,0,1,0,0-11.82,5.91,5.91,0,1,0,0,11.82Zm11.82-5.91a16.782,16.782,0,0,0-.788-4.531,10.069,10.069,0,0,1,4.925-4.531V11.426c-.2-.985.394-1.576,1.379-1.576h.394a1.97,1.97,0,0,1,3.94,0h.394a1.45,1.45,0,0,1,1.576,1.576V12.8A9.85,9.85,0,1,1,20.882,26.4,19.776,19.776,0,0,0,21.67,21.67Zm13.79,0a5.91,5.91,0,1,0-5.91,5.91A5.8,5.8,0,0,0,35.46,21.67ZM22.655,0a1.861,1.861,0,0,1,1.97,1.97,1.97,1.97,0,1,1-3.94,0A1.861,1.861,0,0,1,22.655,0ZM27.58,2.955a1.861,1.861,0,0,1,1.97,1.97,1.97,1.97,0,1,1-3.94,0A1.861,1.861,0,0,1,27.58,2.955Z"/>
  </g>
</svg>
