<svg xmlns="http://www.w3.org/2000/svg" width="24.4" height="24.427" viewBox="0 0 24.4 24.427">
  <path id="handshake-angle-solid" d="M30.887,19.84V20l2.742-3.445a3.288,3.288,0,0,0,0-3.915L30.556,8.787a1.9,1.9,0,0,0-3.116,0l-1.577,1.982a2.372,2.372,0,0,0-.327-.025H21.131c-1.459,0-2.659,1.384-2.817,3.164H18.3V19.84a1.81,1.81,0,0,0,1.574,1.977,1.81,1.81,0,0,0,1.574-1.977V15.49H27.74c1.739,0,3.147,1.77,3.147,3.955ZM22.7,17.072V19.84c0,1.967-1.267,3.559-2.832,3.559S17.04,21.807,17.04,19.84V13.977a4.219,4.219,0,0,0-2.99,3.371L13.4,20.2l-2.88,3.618a3.288,3.288,0,0,0,0,3.915l3.072,3.861a1.9,1.9,0,0,0,3.116,0l1.483-1.864c.035,0,.071,0,.106,0h6.294a2.173,2.173,0,0,0,1.888-2.373,3.035,3.035,0,0,0-.106-.791h.106a2.173,2.173,0,0,0,1.888-2.373,2.7,2.7,0,0,0-.519-1.631,2.681,2.681,0,0,0,1.778-2.709v-.02a2.532,2.532,0,0,0-2.2-2.758H22.7Z" transform="translate(-9.875 -7.975)"/>
</svg>
