<svg xmlns="http://www.w3.org/2000/svg" width="32" height="21.333" viewBox="0 0 32 21.333">
  <g id="hdd" style="isolation: isolate">
    <path id="hdd-2" data-name="hdd" d="M31.523,73.536l-5.838-8.392A2.667,2.667,0,0,0,23.5,64H8.5a2.667,2.667,0,0,0-2.189,1.144L.478,73.536A2.667,2.667,0,0,0,0,75.059v7.608a2.667,2.667,0,0,0,2.667,2.667H29.334A2.667,2.667,0,0,0,32,82.667V75.059a2.667,2.667,0,0,0-.478-1.523ZM8.5,66.667H23.5l4.329,6.222H4.176Zm20.829,16H2.667V75.556H29.334Zm-1.778-3.556a1.778,1.778,0,1,1-1.778-1.778A1.778,1.778,0,0,1,27.556,79.111Zm-5.333,0a1.778,1.778,0,1,1-1.778-1.778A1.778,1.778,0,0,1,22.222,79.111Z" transform="translate(0 -64)"/>
  </g>
</svg>
