<svg xmlns="http://www.w3.org/2000/svg" width="32.41" height="21.607" viewBox="0 0 32.41 21.607">
  <g id="hdd" style="isolation: isolate">
    <path id="hdd-2" data-name="hdd" d="M32.41,77.5v5.4a2.7,2.7,0,0,1-2.7,2.7H2.7a2.7,2.7,0,0,1-2.7-2.7V77.5a2.7,2.7,0,0,1,2.7-2.7H29.709A2.7,2.7,0,0,1,32.41,77.5Zm-2.7-4.5a4.477,4.477,0,0,1,1.732.347L26.01,65.2A2.7,2.7,0,0,0,23.762,64H8.648A2.7,2.7,0,0,0,6.4,65.2L.969,73.35A4.477,4.477,0,0,1,2.7,73Zm-2.7,5.4a1.8,1.8,0,1,0,1.8,1.8A1.8,1.8,0,0,0,27.008,78.4Zm-5.4,0a1.8,1.8,0,1,0,1.8,1.8A1.8,1.8,0,0,0,21.607,78.4Z" transform="translate(0 -64)"/>
  </g>
</svg>
