<svg xmlns="http://www.w3.org/2000/svg" width="28" height="28" viewBox="0 0 28 28">
  <path id="headset-solid" d="M14,2.625A11.373,11.373,0,0,0,2.625,14v2.188a1.313,1.313,0,0,1-2.625,0V14a14,14,0,0,1,28,0v7.88a4.814,4.814,0,0,1-4.818,4.813l-6.032-.005A2.629,2.629,0,0,1,14.875,28h-1.75a2.625,2.625,0,0,1,0-5.25h1.75a2.629,2.629,0,0,1,2.275,1.313l6.038.005a2.187,2.187,0,0,0,2.188-2.187V14A11.373,11.373,0,0,0,14,2.625Zm-6.125,8.75H8.75a1.748,1.748,0,0,1,1.75,1.75V19.25A1.748,1.748,0,0,1,8.75,21H7.875a3.5,3.5,0,0,1-3.5-3.5V14.875A3.5,3.5,0,0,1,7.875,11.375Zm12.25,0a3.5,3.5,0,0,1,3.5,3.5V17.5a3.5,3.5,0,0,1-3.5,3.5H19.25a1.748,1.748,0,0,1-1.75-1.75V13.125a1.748,1.748,0,0,1,1.75-1.75Z"/>
</svg>
