<svg xmlns="http://www.w3.org/2000/svg" width="29" height="25.375" viewBox="0 0 29 25.375">
  <g id="headphones" style="isolation: isolate">
    <path id="headphones-2" data-name="headphones" d="M14.5,32A14.492,14.492,0,0,0,0,46.5v2.719A1.813,1.813,0,0,0,1,50.84l.815.407a6.344,6.344,0,0,0,6.34,6.128H9.516a1.359,1.359,0,0,0,1.359-1.359V46.047a1.359,1.359,0,0,0-1.359-1.359H8.156a6.324,6.324,0,0,0-4.531,1.9V46.5a10.875,10.875,0,0,1,21.75,0v.092a6.324,6.324,0,0,0-4.531-1.9H19.484a1.359,1.359,0,0,0-1.359,1.359v9.969a1.359,1.359,0,0,0,1.359,1.359h1.359a6.344,6.344,0,0,0,6.34-6.128L28,50.84a1.812,1.812,0,0,0,1-1.621V46.5A14.492,14.492,0,0,0,14.5,32Z" transform="translate(0 -32)"/>
  </g>
</svg>
