<svg xmlns="http://www.w3.org/2000/svg" width="28" height="28" viewBox="0 0 28 28">
  <g id="helicopter-symbol-solid" style="isolation: isolate">
    <path id="helicopter-symbol-solid-2" data-name="helicopter-symbol-solid" d="M26.434,14.236H30A14.111,14.111,0,0,0,17.764,2V5.566A10.575,10.575,0,0,1,26.434,14.236ZM30,17.764H26.434a10.587,10.587,0,0,1-8.67,8.676V30A14.111,14.111,0,0,0,30,17.764Zm-28,0A14.111,14.111,0,0,0,14.236,30V26.439a10.587,10.587,0,0,1-8.67-8.676Zm0-3.528H5.566a10.575,10.575,0,0,1,8.67-8.67V2A14.111,14.111,0,0,0,2,14.236Zm11.354-3.528a1.764,1.764,0,1,0-3.528,0V21.291a1.764,1.764,0,0,0,3.528,0V17.764h5.291v3.528a1.764,1.764,0,0,0,3.528,0V10.709a1.764,1.764,0,0,0-3.528,0v3.528H13.354Z" transform="translate(-2 -2)"/>
  </g>
</svg>
