<svg xmlns="http://www.w3.org/2000/svg" width="37.234" height="28.96" viewBox="0 0 37.234 28.96">
  <path id="id-card-solid" d="M0,36.137H37.234A4.141,4.141,0,0,0,33.1,32H4.137A4.141,4.141,0,0,0,0,36.137Zm0,2.069V56.823A4.141,4.141,0,0,0,4.137,60.96H33.1a4.141,4.141,0,0,0,4.137-4.137V38.206ZM4.137,56.131a3.444,3.444,0,0,1,3.445-3.445h7.589a3.444,3.444,0,0,1,3.445,3.445.692.692,0,0,1-.692.692H4.829A.692.692,0,0,1,4.137,56.131Zm7.24-13.788A4.137,4.137,0,1,1,7.24,46.48,4.141,4.141,0,0,1,11.377,42.343Zm11.377,1.034a1.037,1.037,0,0,1,1.034-1.034h8.274a1.034,1.034,0,0,1,0,2.069H23.789A1.037,1.037,0,0,1,22.754,43.377Zm0,4.137a1.037,1.037,0,0,1,1.034-1.034h8.274a1.034,1.034,0,1,1,0,2.069H23.789A1.037,1.037,0,0,1,22.754,47.514Zm0,4.137a1.037,1.037,0,0,1,1.034-1.034h8.274a1.034,1.034,0,1,1,0,2.069H23.789A1.037,1.037,0,0,1,22.754,51.651Z" transform="translate(0 -32)"/>
</svg>
