<svg xmlns="http://www.w3.org/2000/svg" width="30.996" height="20.664" viewBox="0 0 30.996 20.664">
  <g id="inbox" style="isolation: isolate">
    <path id="inbox-2" data-name="inbox" d="M30.562,73.681,24.875,65.15A2.583,2.583,0,0,0,22.726,64H8.27a2.583,2.583,0,0,0-2.149,1.15L.434,73.681A2.583,2.583,0,0,0,0,75.114v6.967a2.583,2.583,0,0,0,2.583,2.583h25.83A2.583,2.583,0,0,0,31,82.081V75.114a2.583,2.583,0,0,0-.434-1.433ZM8.731,67.444H22.265l4.592,6.888H20.234l-1.722,3.444H12.485l-1.722-3.444H4.139Z" transform="translate(0 -64)"/>
  </g>
</svg>
