<svg xmlns="http://www.w3.org/2000/svg" width="31.382" height="20.922" viewBox="0 0 31.382 20.922">
  <g id="keyboard" style="isolation: isolate">
    <path id="keyboard-2" data-name="keyboard" d="M28.767,84.922H2.615A2.615,2.615,0,0,1,0,82.306V66.615A2.615,2.615,0,0,1,2.615,64H28.767a2.615,2.615,0,0,1,2.615,2.615V82.306A2.615,2.615,0,0,1,28.767,84.922ZM6.974,70.32V68.141a.654.654,0,0,0-.654-.654H4.141a.654.654,0,0,0-.654.654V70.32a.654.654,0,0,0,.654.654H6.32A.654.654,0,0,0,6.974,70.32Zm5.23,0V68.141a.654.654,0,0,0-.654-.654H9.371a.654.654,0,0,0-.654.654V70.32a.654.654,0,0,0,.654.654H11.55A.654.654,0,0,0,12.2,70.32Zm5.23,0V68.141a.654.654,0,0,0-.654-.654H14.6a.654.654,0,0,0-.654.654V70.32a.654.654,0,0,0,.654.654h2.179A.654.654,0,0,0,17.435,70.32Zm5.23,0V68.141a.654.654,0,0,0-.654-.654H19.832a.654.654,0,0,0-.654.654V70.32a.654.654,0,0,0,.654.654h2.179A.654.654,0,0,0,22.665,70.32Zm5.23,0V68.141a.654.654,0,0,0-.654-.654H25.062a.654.654,0,0,0-.654.654V70.32a.654.654,0,0,0,.654.654h2.179A.654.654,0,0,0,27.9,70.32ZM9.589,75.55V73.371a.654.654,0,0,0-.654-.654H6.756a.654.654,0,0,0-.654.654V75.55a.654.654,0,0,0,.654.654H8.935A.654.654,0,0,0,9.589,75.55Zm5.23,0V73.371a.654.654,0,0,0-.654-.654H11.986a.654.654,0,0,0-.654.654V75.55a.654.654,0,0,0,.654.654h2.179A.654.654,0,0,0,14.819,75.55Zm5.23,0V73.371a.654.654,0,0,0-.654-.654H17.217a.654.654,0,0,0-.654.654V75.55a.654.654,0,0,0,.654.654H19.4A.654.654,0,0,0,20.05,75.55Zm5.23,0V73.371a.654.654,0,0,0-.654-.654H22.447a.654.654,0,0,0-.654.654V75.55a.654.654,0,0,0,.654.654h2.179A.654.654,0,0,0,25.28,75.55ZM6.974,80.781V78.6a.654.654,0,0,0-.654-.654H4.141a.654.654,0,0,0-.654.654v2.179a.654.654,0,0,0,.654.654H6.32A.654.654,0,0,0,6.974,80.781Zm15.691,0V78.6a.654.654,0,0,0-.654-.654H9.371a.654.654,0,0,0-.654.654v2.179a.654.654,0,0,0,.654.654h12.64A.654.654,0,0,0,22.665,80.781Zm5.23,0V78.6a.654.654,0,0,0-.654-.654H25.062a.654.654,0,0,0-.654.654v2.179a.654.654,0,0,0,.654.654h2.179A.654.654,0,0,0,27.9,80.781Z" transform="translate(0 -64)"/>
  </g>
</svg>
