<svg xmlns="http://www.w3.org/2000/svg" width="31.538" height="21.025" viewBox="0 0 31.538 21.025">
  <g id="keyboard" style="isolation: isolate">
    <path id="keyboard-2" data-name="keyboard" d="M28.91,64H2.628A2.628,2.628,0,0,0,0,66.628V82.4a2.628,2.628,0,0,0,2.628,2.628H28.91A2.628,2.628,0,0,0,31.538,82.4V66.628A2.628,2.628,0,0,0,28.91,64Zm.438,18.4a.439.439,0,0,1-.438.438H2.628A.439.439,0,0,1,2.19,82.4V66.628a.439.439,0,0,1,.438-.438H28.91a.439.439,0,0,1,.438.438ZM9.308,75.279V73.746a.657.657,0,0,0-.657-.657H7.118a.657.657,0,0,0-.657.657v1.533a.657.657,0,0,0,.657.657H8.651A.657.657,0,0,0,9.308,75.279Zm5.256,0V73.746a.657.657,0,0,0-.657-.657H12.374a.657.657,0,0,0-.657.657v1.533a.657.657,0,0,0,.657.657h1.533A.657.657,0,0,0,14.564,75.279Zm5.256,0V73.746a.657.657,0,0,0-.657-.657H17.631a.657.657,0,0,0-.657.657v1.533a.657.657,0,0,0,.657.657h1.533A.657.657,0,0,0,19.821,75.279Zm5.256,0V73.746a.657.657,0,0,0-.657-.657H22.887a.657.657,0,0,0-.657.657v1.533a.657.657,0,0,0,.657.657H24.42A.657.657,0,0,0,25.077,75.279Zm-18.4,4.49V78.236a.657.657,0,0,0-.657-.657H4.49a.657.657,0,0,0-.657.657v1.533a.657.657,0,0,0,.657.657H6.023A.657.657,0,0,0,6.68,79.769Zm21.025,0V78.236a.657.657,0,0,0-.657-.657H25.515a.657.657,0,0,0-.657.657v1.533a.657.657,0,0,0,.657.657h1.533A.657.657,0,0,0,27.705,79.769ZM6.68,70.789V69.256a.657.657,0,0,0-.657-.657H4.49a.657.657,0,0,0-.657.657v1.533a.657.657,0,0,0,.657.657H6.023A.657.657,0,0,0,6.68,70.789Zm5.256,0V69.256a.657.657,0,0,0-.657-.657H9.746a.657.657,0,0,0-.657.657v1.533a.657.657,0,0,0,.657.657h1.533A.657.657,0,0,0,11.936,70.789Zm5.256,0V69.256a.657.657,0,0,0-.657-.657H15a.657.657,0,0,0-.657.657v1.533a.657.657,0,0,0,.657.657h1.533A.657.657,0,0,0,17.193,70.789Zm5.256,0V69.256a.657.657,0,0,0-.657-.657H20.259a.657.657,0,0,0-.657.657v1.533a.657.657,0,0,0,.657.657h1.533A.657.657,0,0,0,22.449,70.789Zm5.256,0V69.256a.657.657,0,0,0-.657-.657H25.515a.657.657,0,0,0-.657.657v1.533a.657.657,0,0,0,.657.657h1.533A.657.657,0,0,0,27.705,70.789Zm-5.366,8.651v-.876a.657.657,0,0,0-.657-.657H9.856a.657.657,0,0,0-.657.657v.876a.657.657,0,0,0,.657.657H21.682A.657.657,0,0,0,22.339,79.441Z" transform="translate(0 -64)"/>
  </g>
</svg>
