<svg xmlns="http://www.w3.org/2000/svg" width="33.4" height="33.266" viewBox="0 0 33.4 33.266">
  <g id="landmark-solid" style="isolation: isolate">
    <path id="landmark-solid-2" data-name="landmark-solid" d="M15.629.261a1.883,1.883,0,0,1,2.073,0L28.894,6.686H29.1L32.21,8.552a2.084,2.084,0,0,1,1.036,2.28,2.232,2.232,0,0,1-2.073,1.658H2.157A2.059,2.059,0,0,1,.084,11.039,2.084,2.084,0,0,1,1.12,8.759L4.229,6.893h.207Zm-11.4,14.3H8.375V27h2.487V14.562h4.145V27h3.109V14.562h4.145V27h2.694V14.562H29.1V27.206h.207l3.109,2.073a1.968,1.968,0,0,1,.829,2.28,2.461,2.461,0,0,1-2.073,1.658H2.157A2.5,2.5,0,0,1,.084,31.765a1.743,1.743,0,0,1,.829-2.28l3.109-2.073h.207V14.562Z" transform="translate(0.078 0.05)"/>
  </g>
</svg>
