<svg xmlns="http://www.w3.org/2000/svg" width="35.585" height="17.792" viewBox="0 0 35.585 17.792">
  <g id="language" style="isolation: isolate">
    <path id="language-2" data-name="language" d="M8.457,103.8c-.195-.673-.434-1.846-.434-1.846H8s-.239,1.173-.434,1.846l-.617,2.085H9.063ZM34.251,96H18.682v17.792H34.251a1.331,1.331,0,0,0,1.334-1.334V97.334A1.331,1.331,0,0,0,34.251,96Zm-1.334,6.672a.669.669,0,0,1-.667.667h-.634a9.963,9.963,0,0,1-2.374,3.887,17.238,17.238,0,0,0,1.451,1,.669.669,0,0,1,.228.9l-.439.773a.669.669,0,0,1-.929.239,19.345,19.345,0,0,1-1.968-1.384,19.6,19.6,0,0,1-1.968,1.384.669.669,0,0,1-.929-.239l-.439-.773a.667.667,0,0,1,.234-.9,15.86,15.86,0,0,0,1.451-1,12.9,12.9,0,0,1-1.168-1.429.665.665,0,0,1,.206-.951l.361-.217.406-.239a.672.672,0,0,1,.89.189,10.6,10.6,0,0,0,.967,1.162,8.5,8.5,0,0,0,1.668-2.4H22.908a.669.669,0,0,1-.667-.667v-.89a.669.669,0,0,1,.667-.667h3.558v-.89a.669.669,0,0,1,.667-.667h.89a.669.669,0,0,1,.667.667v.89h3.558a.669.669,0,0,1,.667.667ZM0,97.334v15.124a1.331,1.331,0,0,0,1.334,1.334H16.9V96H1.334A1.331,1.331,0,0,0,0,97.334ZM3.275,109.35l3.2-9.4a.665.665,0,0,1,.634-.45H8.913a.678.678,0,0,1,.634.45l3.2,9.4a.669.669,0,0,1-.634.884H10.837a.667.667,0,0,1-.639-.478l-.523-1.774H6.327l-.506,1.768a.672.672,0,0,1-.639.484H3.909A.671.671,0,0,1,3.275,109.35Z" transform="translate(0 -96)"/>
  </g>
</svg>
