<svg xmlns="http://www.w3.org/2000/svg" width="35.094" height="28.075" viewBox="0 0 35.094 28.075">
  <g id="laptop" style="isolation: isolate">
    <path id="laptop-2" data-name="laptop" d="M34.216,22.811h-13.3a1.729,1.729,0,0,1-1.8,1.755H15.792A1.862,1.862,0,0,1,14,22.811H.877A.88.88,0,0,0,0,23.688v.877a3.52,3.52,0,0,0,3.509,3.509H31.584a3.52,3.52,0,0,0,3.509-3.509v-.877A.88.88,0,0,0,34.216,22.811ZM31.584,2.632A2.64,2.64,0,0,0,28.952,0H6.141A2.64,2.64,0,0,0,3.509,2.632V21.056H31.584ZM28.075,17.547H7.019V3.509H28.075Z"/>
  </g>
</svg>
