<svg xmlns="http://www.w3.org/2000/svg" width="20.814" height="24.283" viewBox="0 0 20.814 24.283">
  <g id="lira-sign" style="isolation: isolate">
    <path id="lira-sign-2" data-name="lira-sign" d="M20.163,44.142h-2.6a.636.636,0,0,0-.649.61c0,5.461-4.435,8.063-9.106,8.063v-8.63l7.3-1.621a.65.65,0,0,0,.509-.635V39.707a.65.65,0,0,0-.792-.635L7.805,40.63V38.98l7.3-1.621a.65.65,0,0,0,.509-.635V34.5a.65.65,0,0,0-.792-.635L7.805,35.427V32.65a.65.65,0,0,0-.65-.65H4.119a.65.65,0,0,0-.65.65v3.74l-2.96.658A.65.65,0,0,0,0,37.683V39.9a.65.65,0,0,0,.792.635l2.677-.595v1.65l-2.96.658A.65.65,0,0,0,0,42.887v2.221a.65.65,0,0,0,.792.635l2.677-.595V55.633a.65.65,0,0,0,.65.65H8.433c7.268,0,12.1-4.219,12.381-11.469a.65.65,0,0,0-.65-.673Z" transform="translate(0 -32)"/>
  </g>
</svg>
