<svg xmlns="http://www.w3.org/2000/svg" width="31.861" height="28.321" viewBox="0 0 31.861 28.321">
  <g id="low-vision" style="isolation: isolate">
    <path id="low-vision-2" data-name="low-vision" d="M31.492,12.813A18.029,18.029,0,0,0,15.93,3.983a18.257,18.257,0,0,0-4.561.576L8.45.567A1.328,1.328,0,0,0,6.6.241L5.876.748A1.328,1.328,0,0,0,5.55,2.6l2.386,3.23A17.964,17.964,0,0,0,.369,12.81l0,0a2.654,2.654,0,0,0,0,2.7,17.972,17.972,0,0,0,9.561,7.819L3.059,13.514a15.056,15.056,0,0,1,1.565-1.986l6.6,9.435h0l2.247,3.21a18.257,18.257,0,0,0,4.366.065L7.335,9.226A15.356,15.356,0,0,1,9.479,8.033l13.93,19.722a1.328,1.328,0,0,0,1.849.326l.725-.508a1.328,1.328,0,0,0,.326-1.849L23.925,22.5h0a17.94,17.94,0,0,0,7.567-6.986,2.652,2.652,0,0,0,0-2.7Zm-9.919,6.323L20.519,17.63a5.751,5.751,0,0,0,.487-6.177v0a2.369,2.369,0,1,1-2.369-2.369h0a5.761,5.761,0,0,0-4.4-.425L13.186,7.154a7.524,7.524,0,0,1,8.387,11.982Z" transform="translate(0.001 -0.001)"/>
  </g>
</svg>
