<svg xmlns="http://www.w3.org/2000/svg" width="23.588" height="34" viewBox="0 0 23.588 34">
  <path id="microphone-lines-solid" d="M5.813,6.375V17a6.261,6.261,0,0,0,6.375,6.375A6.261,6.261,0,0,0,18.563,17H13.25a1.063,1.063,0,0,1,0-2.125h5.313V12.75H13.25a1,1,0,0,1-1.062-1.062,1,1,0,0,1,1.063-1.062h5.313V8.5H13.25a1,1,0,0,1-1.062-1.062A1,1,0,0,1,13.25,6.375h5.313A6.261,6.261,0,0,0,12.188,0,6.261,6.261,0,0,0,5.813,6.375Zm14.875,9.563V17a8.5,8.5,0,0,1-17,0V14.45a1.564,1.564,0,0,0-1.7-1.7C.925,12.75.5,13.388.5,14.45V17A11.516,11.516,0,0,0,10.7,28.475v2.338H7.512a1.676,1.676,0,0,0-1.7,1.7c0,1.063.637,1.487,1.7,1.487h9.35a1.7,1.7,0,1,0,0-3.4H13.888V28.262a11.84,11.84,0,0,0,10.2-11.475V14.45a1.676,1.676,0,0,0-1.7-1.7,1.564,1.564,0,0,0-1.7,1.7Z" transform="translate(-0.5)"/>
</svg>
