<svg xmlns="http://www.w3.org/2000/svg" width="35.418" height="28.334" viewBox="0 0 35.418 28.334">
  <g id="microphone-slash" style="isolation: isolate">
    <path id="microphone-slash-2" data-name="microphone-slash" d="M35.077,25.352,26.344,18.6a9.51,9.51,0,0,0,1.106-4.435V11.511a.885.885,0,0,0-.885-.885h-.885a.885.885,0,0,0-.885.885v2.656a6.883,6.883,0,0,1-.593,2.778L22.731,15.81a5.21,5.21,0,0,0,.292-1.642V5.313a5.313,5.313,0,0,0-10.625,0v2.51L2.517.186A.886.886,0,0,0,1.274.342L.187,1.74A.885.885,0,0,0,.343,2.983L32.9,28.148a.885.885,0,0,0,1.243-.156l1.087-1.4A.886.886,0,0,0,35.077,25.352Zm-12.94.327h-3.1V23.809a9.636,9.636,0,0,0,1.863-.46l-2.773-2.143A7.136,7.136,0,0,1,17,21.217a7.167,7.167,0,0,1-6.153-5.636L7.97,13.354v.379a10.045,10.045,0,0,0,8.412,10.055v1.89h-3.1a.885.885,0,0,0-.885.885v.885a.885.885,0,0,0,.885.885h8.855a.885.885,0,0,0,.885-.885v-.885A.885.885,0,0,0,22.137,25.678Z" transform="translate(-0.001)"/>
  </g>
</svg>
