<svg xmlns="http://www.w3.org/2000/svg" width="20.595" height="29.956" viewBox="0 0 20.595 29.956">
  <g id="microphone" style="isolation: isolate">
    <path id="microphone-2" data-name="microphone" d="M10.3,20.595a5.617,5.617,0,0,0,5.617-5.617V5.617a5.617,5.617,0,0,0-11.234,0v9.361A5.617,5.617,0,0,0,10.3,20.595Zm9.361-9.361h-.936a.936.936,0,0,0-.936.936v2.808a7.5,7.5,0,0,1-8.237,7.453,7.716,7.716,0,0,1-6.741-7.786V12.17a.936.936,0,0,0-.936-.936H.936A.936.936,0,0,0,0,12.17v2.35A10.62,10.62,0,0,0,8.893,25.15v2H5.617a.936.936,0,0,0-.936.936v.936a.936.936,0,0,0,.936.936h9.361a.936.936,0,0,0,.936-.936v-.936a.936.936,0,0,0-.936-.936H11.7V25.172a10.307,10.307,0,0,0,8.893-10.194V12.17A.936.936,0,0,0,19.659,11.234Z"/>
  </g>
</svg>
