<svg xmlns="http://www.w3.org/2000/svg" width="17.709" height="28.334" viewBox="0 0 17.709 28.334">
  <g id="mobile-alt" style="isolation: isolate">
    <path id="mobile-alt-2" data-name="mobile-alt" d="M15.053,0H2.656A2.657,2.657,0,0,0,0,2.656V25.678a2.657,2.657,0,0,0,2.656,2.656h12.4a2.657,2.657,0,0,0,2.656-2.656V2.656A2.657,2.657,0,0,0,15.053,0Zm-6.2,26.564a1.771,1.771,0,1,1,1.771-1.771A1.769,1.769,0,0,1,8.855,26.564Zm6.2-5.977a.666.666,0,0,1-.664.664H3.32a.666.666,0,0,1-.664-.664V3.32a.666.666,0,0,1,.664-.664H14.389a.666.666,0,0,1,.664.664Z"/>
  </g>
</svg>
