<svg xmlns="http://www.w3.org/2000/svg" width="32.744" height="19.646" viewBox="0 0 32.744 19.646">
  <g id="money-bill-alt" style="isolation: isolate">
    <path id="money-bill-alt-2" data-name="money-bill-alt" d="M16.372,68.093c-2.713,0-4.912,2.565-4.912,5.73s2.2,5.73,4.912,5.73,4.912-2.565,4.912-5.73S19.085,68.093,16.372,68.093Zm2.047,8.6a.409.409,0,0,1-.409.409H14.735a.409.409,0,0,1-.409-.409V75.87a.409.409,0,0,1,.409-.409h.819V72.624l-.024.016a.409.409,0,0,1-.567-.114l-.454-.681a.409.409,0,0,1,.114-.567l.784-.523a1.227,1.227,0,0,1,.681-.206h.695a.409.409,0,0,1,.409.409v4.5h.819a.409.409,0,0,1,.409.409ZM31.107,64H1.637A1.637,1.637,0,0,0,0,65.637V82.009a1.637,1.637,0,0,0,1.637,1.637h29.47a1.637,1.637,0,0,0,1.637-1.637V65.637A1.637,1.637,0,0,0,31.107,64Zm-.819,13.916a3.274,3.274,0,0,0-3.274,3.274H5.73a3.274,3.274,0,0,0-3.274-3.274V69.73A3.274,3.274,0,0,0,5.73,66.456H27.014a3.274,3.274,0,0,0,3.274,3.274Z" transform="translate(0 -64)"/>
  </g>
</svg>
