<svg xmlns="http://www.w3.org/2000/svg" width="28.826" height="17.295" viewBox="0 0 28.826 17.295">
  <g id="money-bill-alt" style="isolation: isolate">
    <path id="money-bill-alt-2" data-name="money-bill-alt" d="M15.854,74.089h-.721V70.125a.36.36,0,0,0-.36-.36h-.612a1.079,1.079,0,0,0-.6.182l-.69.46a.36.36,0,0,0-.1.5l.4.6a.36.36,0,0,0,.5.1l.021-.014v2.5h-.721a.36.36,0,0,0-.36.36v.721a.36.36,0,0,0,.36.36h2.883a.36.36,0,0,0,.36-.36v-.721a.36.36,0,0,0-.36-.36ZM27.384,64H1.441A1.441,1.441,0,0,0,0,65.441V79.854A1.441,1.441,0,0,0,1.441,81.3H27.384a1.441,1.441,0,0,0,1.441-1.441V65.441A1.441,1.441,0,0,0,27.384,64ZM2.162,79.133V76.251a2.882,2.882,0,0,1,2.883,2.883Zm0-10.089V66.162H5.044A2.882,2.882,0,0,1,2.162,69.044Zm12.251,8.648c-2.388,0-4.324-2.259-4.324-5.044S12.025,67.6,14.413,67.6s4.324,2.258,4.324,5.044S16.8,77.692,14.413,77.692Zm12.251,1.441H23.781a2.882,2.882,0,0,1,2.883-2.883Zm0-10.089a2.882,2.882,0,0,1-2.883-2.883h2.883Z" transform="translate(0 -64)"/>
  </g>
</svg>
