<svg xmlns="http://www.w3.org/2000/svg" width="47.1" height="31.4" viewBox="0 0 47.1 31.4">
  <g id="money-check-dollar-solid" style="isolation: isolate">
    <path id="money-check-dollar-solid-2" data-name="money-check-dollar-solid" d="M5.233,2A5.249,5.249,0,0,0,0,7.233V28.166A5.249,5.249,0,0,0,5.233,33.4H41.866A5.249,5.249,0,0,0,47.1,28.166V7.233A5.249,5.249,0,0,0,41.866,2ZM22.241,12.467H40.558a1.236,1.236,0,0,1,1.308,1.308,1.236,1.236,0,0,1-1.308,1.308H22.241a1.236,1.236,0,0,1-1.308-1.308A1.236,1.236,0,0,1,22.241,12.467Zm-1.308,9.158a1.236,1.236,0,0,1,1.308-1.308H40.558a1.308,1.308,0,1,1,0,2.617H22.241A1.236,1.236,0,0,1,20.933,21.625Zm-7.588-12.3v1.047c.523,0,1.308.262,1.832.262a1.654,1.654,0,0,1,1.047,2.093,1.322,1.322,0,0,1-1.832,1.047,9.3,9.3,0,0,0-2.617-.523,16.676,16.676,0,0,0-1.832.523c-.262.262-.523.523-.523.785s0,.262.523.523c.523.523,1.308.523,2.355,1.047h0a21.972,21.972,0,0,1,3.14,1.047,4.324,4.324,0,0,1,2.093,3.4,3.889,3.889,0,0,1-2.093,3.663c-.523.262-1.308.523-1.832.785v1.047a1.688,1.688,0,0,1-1.57,1.57,1.688,1.688,0,0,1-1.57-1.57V24.765L8.112,23.98h0c-.262,0-.262,0-.523-.262a1.145,1.145,0,0,1-1.308-1.57A1.78,1.78,0,0,1,8.373,21.1a.914.914,0,0,1,.523.262,16.09,16.09,0,0,0,2.878.785c.785,0,1.308-.262,1.832-.262.262-.262.523-.523.523-.785s0-.523-.523-.785a4.931,4.931,0,0,0-2.355-1.047H10.99a30.7,30.7,0,0,0-2.878-1.308,3.964,3.964,0,0,1-1.832-3.4A4.406,4.406,0,0,1,8.373,10.9c.523-.262,1.308-.523,1.832-.785V9.327a1.688,1.688,0,0,1,1.57-1.57A1.508,1.508,0,0,1,13.345,9.327Z" transform="translate(0 -2)" opacity="0.998"/>
  </g>
</svg>
