<svg xmlns="http://www.w3.org/2000/svg" width="28.897" height="28.897" viewBox="0 0 28.897 28.897">
  <g id="music" style="isolation: isolate">
    <path id="music-2" data-name="music" d="M28.9,1.8A1.8,1.8,0,0,0,26.548.076L8.488,5.41A1.806,1.806,0,0,0,7.224,7.131V21.885a7.807,7.807,0,0,0-1.806-.221C2.426,21.664,0,23.281,0,25.276s2.426,3.612,5.418,3.612,5.418-1.617,5.418-3.612V12.087L25.285,7.853v10.42a7.807,7.807,0,0,0-1.806-.221c-2.992,0-5.418,1.617-5.418,3.612s2.426,3.612,5.418,3.612S28.9,23.659,28.9,21.664V1.8Z" transform="translate(0 0.009)"/>
  </g>
</svg>
