<svg xmlns="http://www.w3.org/2000/svg" width="35" height="28" viewBox="0 0 35 28">
  <g id="network-wired-solid" style="isolation: isolate">
    <path id="network-wired-solid-2" data-name="network-wired-solid" d="M14,3.5h7V7H14ZM13.125,0A2.626,2.626,0,0,0,10.5,2.625v5.25A2.626,2.626,0,0,0,13.125,10.5H15.75v1.75h-14a1.75,1.75,0,1,0,0,3.5H7V17.5H4.375A2.626,2.626,0,0,0,1.75,20.125v5.25A2.626,2.626,0,0,0,4.375,28h8.75a2.626,2.626,0,0,0,2.625-2.625v-5.25A2.626,2.626,0,0,0,13.125,17.5H10.5V15.75h14V17.5H21.875a2.626,2.626,0,0,0-2.625,2.625v5.25A2.626,2.626,0,0,0,21.875,28h8.75a2.626,2.626,0,0,0,2.625-2.625v-5.25A2.626,2.626,0,0,0,30.625,17.5H28V15.75h5.25a1.75,1.75,0,1,0,0-3.5h-14V10.5h2.625A2.626,2.626,0,0,0,24.5,7.875V2.625A2.626,2.626,0,0,0,21.875,0ZM5.25,24.5V21h7v3.5ZM22.75,21h7v3.5h-7Z"/>
  </g>
</svg>
