<svg xmlns="http://www.w3.org/2000/svg" width="33.194" height="29.045" viewBox="0 0 33.194 29.045">
  <g id="newspaper-solid" style="isolation: isolate">
    <path id="newspaper-solid-2" data-name="newspaper-solid" d="M6.224,36.149A4.153,4.153,0,0,1,10.373,32H29.045a4.153,4.153,0,0,1,4.149,4.149V56.9a4.153,4.153,0,0,1-4.149,4.149H5.187A5.185,5.185,0,0,1,0,55.858V38.224a2.075,2.075,0,0,1,4.149,0V55.858a1.037,1.037,0,1,0,2.075,0Zm4.149,1.556v5.187a1.552,1.552,0,0,0,1.556,1.556H19.19a1.552,1.552,0,0,0,1.556-1.556V37.705a1.552,1.552,0,0,0-1.556-1.556H11.929A1.552,1.552,0,0,0,10.373,37.705Zm13.485-.519A1.04,1.04,0,0,0,24.9,38.224h3.112a1.037,1.037,0,0,0,0-2.075H24.9A1.04,1.04,0,0,0,23.858,37.187Zm0,6.224A1.04,1.04,0,0,0,24.9,44.448h3.112a1.037,1.037,0,0,0,0-2.075H24.9A1.04,1.04,0,0,0,23.858,43.411ZM10.373,49.634a1.04,1.04,0,0,0,1.037,1.037h16.6a1.037,1.037,0,0,0,0-2.075h-16.6A1.04,1.04,0,0,0,10.373,49.634Zm0,6.224A1.04,1.04,0,0,0,11.411,56.9h16.6a1.037,1.037,0,0,0,0-2.075h-16.6A1.04,1.04,0,0,0,10.373,55.858Z" transform="translate(0 -32)"/>
  </g>
</svg>
