<svg xmlns="http://www.w3.org/2000/svg" width="24.903" height="28.46" viewBox="0 0 24.903 28.46">
  <g id="paperclip" style="isolation: isolate">
    <path id="paperclip-2" data-name="paperclip" d="M2.4,25.911a8.709,8.709,0,0,1,.077-12.095L14.141,1.889a6.221,6.221,0,0,1,8.931,0,6.471,6.471,0,0,1,0,9.02L12.908,21.3a4.147,4.147,0,0,1-6-.055A4.308,4.308,0,0,1,6.987,15.3l7.99-8.162a.889.889,0,0,1,1.258-.013l1.271,1.244a.889.889,0,0,1,.013,1.258L9.529,17.783A.752.752,0,0,0,9.493,18.8a.592.592,0,0,0,.872.009L20.529,8.423a2.912,2.912,0,0,0,0-4.047,2.666,2.666,0,0,0-3.844,0L5.025,16.3a5.148,5.148,0,0,0-.066,7.132,4.741,4.741,0,0,0,6.84.016l9.564-9.783a.889.889,0,0,1,1.258-.014L23.892,14.9a.889.889,0,0,1,.014,1.258l-9.564,9.783A8.294,8.294,0,0,1,2.4,25.911Z" transform="translate(0 0)"/>
  </g>
</svg>
