<svg xmlns="http://www.w3.org/2000/svg" width="25.124" height="28.713" viewBox="0 0 25.124 28.713">
  <g id="paste" style="isolation: isolate">
    <path id="paste-2" data-name="paste" d="M7.178,10.319a3.144,3.144,0,0,1,3.14-3.14h7.627V3.14A1.346,1.346,0,0,0,16.6,1.795H12.079a3.586,3.586,0,0,0-6.212,0H1.346A1.346,1.346,0,0,0,0,3.14V21.983a1.346,1.346,0,0,0,1.346,1.346H7.178ZM8.973,2.243A1.346,1.346,0,1,1,7.627,3.589,1.346,1.346,0,0,1,8.973,2.243ZM19.291,16.151h5.832V27.367a1.346,1.346,0,0,1-1.346,1.346H10.319a1.346,1.346,0,0,1-1.346-1.346V10.319a1.346,1.346,0,0,1,1.346-1.346h7.627V14.8A1.35,1.35,0,0,0,19.291,16.151Zm5.832-2.134v.34H19.74V8.973h.34a1.346,1.346,0,0,1,.952.394l3.7,3.7A1.346,1.346,0,0,1,25.124,14.017Z"/>
  </g>
</svg>
