<svg xmlns="http://www.w3.org/2000/svg" width="27.827" height="27.827" viewBox="0 0 27.827 27.827">
  <g id="pause-circle" style="isolation: isolate">
    <path id="pause-circle-2" data-name="pause-circle" d="M21.913,8A13.913,13.913,0,1,0,35.827,21.913,13.911,13.911,0,0,0,21.913,8Zm-.9,18.4a.9.9,0,0,1-.9.9H17.425a.9.9,0,0,1-.9-.9V17.425a.9.9,0,0,1,.9-.9h2.693a.9.9,0,0,1,.9.9Zm6.283,0a.9.9,0,0,1-.9.9H23.709a.9.9,0,0,1-.9-.9V17.425a.9.9,0,0,1,.9-.9H26.4a.9.9,0,0,1,.9.9Z" transform="translate(-8 -8)"/>
  </g>
</svg>
