<svg xmlns="http://www.w3.org/2000/svg" width="29.308" height="29.308" viewBox="0 0 29.308 29.308">
  <g id="pause-circle" style="isolation: isolate">
    <path id="pause-circle-2" data-name="pause-circle" d="M22.654,8A14.654,14.654,0,1,0,37.308,22.654,14.651,14.651,0,0,0,22.654,8Zm0,26.472A11.818,11.818,0,1,1,34.472,22.654,11.814,11.814,0,0,1,22.654,34.472Zm5.672-16.545v9.454a.948.948,0,0,1-.945.945H24.545a.948.948,0,0,1-.945-.945V17.927a.948.948,0,0,1,.945-.945h2.836A.948.948,0,0,1,28.326,17.927Zm-6.618,0v9.454a.948.948,0,0,1-.945.945H17.927a.948.948,0,0,1-.945-.945V17.927a.948.948,0,0,1,.945-.945h2.836A.948.948,0,0,1,21.709,17.927Z" transform="translate(-8 -8)"/>
  </g>
</svg>
