<svg xmlns="http://www.w3.org/2000/svg" width="33.753" height="33.753" viewBox="0 0 33.753 33.753">
  <path id="pen-to-square-solid" d="M31.413,6.369a3.727,3.727,0,0,0-5.275,0l-2,2,6.521,6.521,2-2a3.727,3.727,0,0,0,0-5.275ZM11.484,21.023a3.68,3.68,0,0,0-.9,1.459L8.613,28.4A1.607,1.607,0,0,0,9,30.035a1.587,1.587,0,0,0,1.639.386l5.915-1.972a3.775,3.775,0,0,0,1.459-.9L29.155,16.4,22.627,9.873ZM6.395,9.187A6.4,6.4,0,0,0,0,15.581V32.633a6.4,6.4,0,0,0,6.395,6.395H23.447a6.4,6.4,0,0,0,6.395-6.395V26.239a2.132,2.132,0,1,0-4.263,0v6.395a2.129,2.129,0,0,1-2.132,2.132H6.395a2.129,2.129,0,0,1-2.132-2.132V15.581A2.129,2.129,0,0,1,6.395,13.45h6.395a2.132,2.132,0,0,0,0-4.263Z" transform="translate(0 -5.275)"/>
</svg>
