<svg xmlns="http://www.w3.org/2000/svg" width="24.819" height="24.819" viewBox="0 0 24.819 24.819">
  <g id="pen-square" style="isolation: isolate">
    <path id="pen-square-2" data-name="pen-square" d="M22.16,56.819H2.659A2.66,2.66,0,0,1,0,54.16v-19.5A2.66,2.66,0,0,1,2.659,32h19.5a2.66,2.66,0,0,1,2.659,2.659v19.5A2.66,2.66,0,0,1,22.16,56.819ZM13.191,40.083,5.673,47.6l-.349,3.163a.671.671,0,0,0,.737.737l3.163-.349,7.518-7.518a.338.338,0,0,0,0-.471l-3.075-3.075A.339.339,0,0,0,13.191,40.083Zm5.922-.709-1.668-1.668a1.324,1.324,0,0,0-1.878,0l-1.28,1.28a.338.338,0,0,0,0,.471l3.075,3.075a.338.338,0,0,0,.471,0l1.28-1.28A1.334,1.334,0,0,0,19.113,39.374Z" transform="translate(0 -32)"/>
  </g>
</svg>
