<svg xmlns="http://www.w3.org/2000/svg" width="29.096" height="29.097" viewBox="0 0 29.096 29.097">
  <g id="pencil-alt" style="isolation: isolate">
    <path id="pencil-alt-2" data-name="pencil-alt" d="M28.319,8.147l-2.62,2.62a.683.683,0,0,1-.966,0L18.424,4.458a.683.683,0,0,1,0-.966l2.62-2.62a2.734,2.734,0,0,1,3.859,0l3.416,3.416A2.724,2.724,0,0,1,28.319,8.147Zm-12.145-2.4L1.25,20.667l-1.2,6.905a1.366,1.366,0,0,0,1.58,1.58L8.53,27.941,23.454,13.017a.683.683,0,0,0,0-.966L17.146,5.743a.689.689,0,0,0-.972,0Zm-9.1,13.645a.792.792,0,0,1,0-1.125L15.827,9.51a.8.8,0,1,1,1.125,1.125L8.2,19.388a.792.792,0,0,1-1.125,0Zm-2.052,4.78H7.751V26.23l-3.666.642L2.318,25.105l.642-3.666H5.024Z" transform="translate(-0.024 -0.075)"/>
  </g>
</svg>
