<svg xmlns="http://www.w3.org/2000/svg" width="55.333" height="38.733" viewBox="0 0 55.333 38.733">
  <g id="people-group-solid" style="isolation: isolate">
    <path id="people-group-solid-2" data-name="people-group-solid" d="M6.225,36.842a4.842,4.842,0,1,1,4.842,4.842A4.842,4.842,0,0,1,6.225,36.842ZM5.533,50.476a5.526,5.526,0,0,0,0,7.314Zm12.485-4.262A12.439,12.439,0,0,0,16.6,63.341V65.2a2.764,2.764,0,0,1-2.767,2.767H8.3A2.764,2.764,0,0,1,5.533,65.2V62.883A9.684,9.684,0,0,1,9.683,44.45H12.45a9.641,9.641,0,0,1,5.568,1.755ZM38.733,65.2V63.341a12.45,12.45,0,0,0-1.418-17.136,9.641,9.641,0,0,1,5.568-1.755H45.65A9.684,9.684,0,0,1,49.8,62.883V65.2a2.764,2.764,0,0,1-2.767,2.767H41.5A2.764,2.764,0,0,1,38.733,65.2Zm.692-28.358a4.842,4.842,0,1,1,4.842,4.842A4.842,4.842,0,0,1,39.425,36.842ZM49.8,50.476V57.8a5.526,5.526,0,0,0,0-7.314ZM27.667,32a5.533,5.533,0,1,1-5.533,5.533A5.533,5.533,0,0,1,27.667,32ZM20.75,55.517a5.5,5.5,0,0,0,1.383,3.657V51.859A5.5,5.5,0,0,0,20.75,55.517ZM33.2,51.859v7.323a5.526,5.526,0,0,0,0-7.314Zm5.533,3.657a9.688,9.688,0,0,1-5.533,8.75v3.7a2.764,2.764,0,0,1-2.767,2.767H24.9a2.764,2.764,0,0,1-2.767-2.767v-3.7a9.684,9.684,0,0,1,4.15-18.433H29.05A9.678,9.678,0,0,1,38.733,55.517Z" transform="translate(0 -32)"/>
  </g>
</svg>
