<svg xmlns="http://www.w3.org/2000/svg" width="24.435" height="27.926" viewBox="0 0 24.435 27.926">
  <g id="percent" style="isolation: isolate">
    <path id="percent-2" data-name="percent" d="M6.109,12.218A6.109,6.109,0,1,0,0,6.109,6.106,6.106,0,0,0,6.109,12.218Zm0-8.727A2.618,2.618,0,1,1,3.491,6.109,2.619,2.619,0,0,1,6.109,3.491ZM18.327,15.709a6.109,6.109,0,1,0,6.109,6.109A6.106,6.106,0,0,0,18.327,15.709Zm0,8.727a2.618,2.618,0,1,1,2.618-2.618A2.619,2.619,0,0,1,18.327,24.435ZM21.4.011,23.121.005A1.309,1.309,0,0,1,24.2,2.067L4.222,27.359a1.306,1.306,0,0,1-1.069.556l-1.822.005A1.309,1.309,0,0,1,.256,25.859L20.328.567A1.306,1.306,0,0,1,21.4.011Z"/>
  </g>
</svg>
