<svg xmlns="http://www.w3.org/2000/svg" width="42" height="35.364" viewBox="0 0 42 35.364">
  <g id="person-chalkboard-solid" style="isolation: isolate">
    <path id="person-chalkboard-solid-2" data-name="person-chalkboard-solid" d="M42.98,6.631a3.315,3.315,0,1,0-3.315-3.315A3.315,3.315,0,0,0,42.98,6.631Zm-.553,26.523V24.313h1.105v8.841a2.21,2.21,0,0,0,4.421,0V13.261h9.394a2.21,2.21,0,1,0,0-4.42H56.242V4.42H69.5V17.682H56.242v-2.21h-4.42v3.315A3.316,3.316,0,0,0,55.137,22.1H70.608a3.316,3.316,0,0,0,3.315-3.315V3.315A3.316,3.316,0,0,0,70.608,0H55.137a3.316,3.316,0,0,0-3.315,3.315V8.841h-9.87a6.637,6.637,0,0,0-5.684,3.219l-4.027,6.7a2.209,2.209,0,1,0,3.785,2.279l1.982-3.295v15.41a2.21,2.21,0,1,0,4.42,0Z" transform="translate(-31.924)"/>
  </g>
</svg>
