<svg xmlns="http://www.w3.org/2000/svg" width="25.854" height="25.854" viewBox="0 0 25.854 25.854">
  <g id="phone-square" style="isolation: isolate">
    <path id="phone-square-2" data-name="phone-square" d="M23.084,32H2.77A2.77,2.77,0,0,0,0,34.77V55.084a2.77,2.77,0,0,0,2.77,2.77H23.084a2.77,2.77,0,0,0,2.77-2.77V34.77A2.77,2.77,0,0,0,23.084,32ZM5.425,54.161a.866.866,0,0,1-.843-.671l-.866-3.751a.866.866,0,0,1,.5-.99l4.04-1.731a.866.866,0,0,1,1.011.248l1.789,2.186a13.379,13.379,0,0,0,6.393-6.393l-2.186-1.789a.866.866,0,0,1-.248-1.011l1.731-4.04a.866.866,0,0,1,.99-.5l3.751.866a.865.865,0,0,1,.671.843A16.735,16.735,0,0,1,5.425,54.161Z" transform="translate(0 -32)"/>
  </g>
</svg>
