<svg xmlns="http://www.w3.org/2000/svg" width="20.848" height="27.797" viewBox="0 0 20.848 27.797">
  <g id="phone-volume" style="isolation: isolate">
    <path id="phone-volume-2" data-name="phone-volume" d="M5.284,27.524a18.039,18.039,0,0,1,0-25.513.933.933,0,0,1,1.154-.131l3.519,2.2a.933.933,0,0,1,.372,1.138L8.57,9.615a.933.933,0,0,1-.959.582l-3.03-.3a14.421,14.421,0,0,0,0,9.746l3.03-.3a.933.933,0,0,1,.959.582l1.759,4.4a.933.933,0,0,1-.372,1.138l-3.519,2.2a.933.933,0,0,1-1.154-.131Zm8.132-22.34a3.477,3.477,0,0,1,0,3.532.654.654,0,0,1-1.016.14l-.324-.311a.656.656,0,0,1-.123-.782,1.741,1.741,0,0,0,0-1.626.656.656,0,0,1,.123-.782l.324-.311A.654.654,0,0,1,13.416,5.183ZM18.4.233a10.439,10.439,0,0,1,0,13.433.654.654,0,0,1-.953.051l-.315-.3a.653.653,0,0,1-.05-.889,8.7,8.7,0,0,0,0-11.152.653.653,0,0,1,.05-.889l.315-.3A.654.654,0,0,1,18.4.233Zm-2.5,2.44a6.959,6.959,0,0,1,0,8.553.654.654,0,0,1-.969.071l-.316-.3a.651.651,0,0,1-.07-.865,5.219,5.219,0,0,0,0-6.359.651.651,0,0,1,.07-.865l.316-.3a.654.654,0,0,1,.969.071Z" transform="translate(0 0)"/>
  </g>
</svg>
