<svg xmlns="http://www.w3.org/2000/svg" width="37" height="29.6" viewBox="0 0 37 29.6">
  <g id="photo-film-solid" style="isolation: isolate">
    <path id="photo-film-solid-2" data-name="photo-film-solid" d="M14.8,0H33.3A3.711,3.711,0,0,1,37,3.7V16.65a3.711,3.711,0,0,1-3.7,3.7H14.8a3.711,3.711,0,0,1-3.7-3.7V3.7A3.711,3.711,0,0,1,14.8,0ZM27.565,6.105a1.679,1.679,0,0,0-1.3-.555,1.119,1.119,0,0,0-1.11.555l-3.145,5-.925-1.3a1.6,1.6,0,0,0-1.11-.555,1.6,1.6,0,0,0-1.11.555l-3.7,4.625a1.12,1.12,0,0,0-.185,1.48,1.4,1.4,0,0,0,1.3.74H32a1.873,1.873,0,0,0,1.3-.74c.37-.37.185-.925,0-1.48C33.115,14.43,27.565,6.105,27.565,6.105Zm-8.14-.555a1.748,1.748,0,0,0-1.85-1.85,1.748,1.748,0,0,0-1.85,1.85,1.748,1.748,0,0,0,1.85,1.85A1.748,1.748,0,0,0,19.425,5.55ZM3.7,7.4H9.25V24.05A1.748,1.748,0,0,0,11.1,25.9h7.4a1.748,1.748,0,0,0,1.85-1.85V22.2H29.6v3.7a3.711,3.711,0,0,1-3.7,3.7H3.7A3.711,3.711,0,0,1,0,25.9V11.1A3.711,3.711,0,0,1,3.7,7.4Zm.37,3.7a.846.846,0,0,0-.74.925v.925a.874.874,0,0,0,.925.925H5.18a.846.846,0,0,0,.74-.925v-.925a.846.846,0,0,0-.74-.925Zm0,5.92c-.37,0-.74.555-.74,1.11v.925a.874.874,0,0,0,.925.925H5.18a.874.874,0,0,0,.925-.925V18.13A.874.874,0,0,0,5.18,17.2H4.07Zm0,6.1a.874.874,0,0,0-.925.925v.925c.185.555.555.925.925.925H5a.874.874,0,0,0,.925-.925V24.05A.874.874,0,0,0,5,23.125Zm19.61.925v.925a.874.874,0,0,0,.925.925h.925a.874.874,0,0,0,.925-.925V24.05a.874.874,0,0,0-.925-.925h-.925A.874.874,0,0,0,23.68,24.05Z"/>
  </g>
</svg>
