<svg xmlns="http://www.w3.org/2000/svg" width="28.077" height="28.077" viewBox="0 0 28.077 28.077">
  <g id="play-circle" style="isolation: isolate">
    <path id="play-circle-2" data-name="play-circle" d="M28.588,21.02l-9.963-6.057A1.361,1.361,0,0,0,16.6,16.152V27.926a1.362,1.362,0,0,0,2.021,1.189L28.588,23.4A1.363,1.363,0,0,0,28.588,21.02Zm7.489,1.019A14.039,14.039,0,1,0,22.039,36.077,14.036,14.036,0,0,0,36.077,22.039Zm-25.36,0A11.322,11.322,0,1,1,22.039,33.36,11.318,11.318,0,0,1,10.717,22.039Z" transform="translate(-8 -8)"/>
  </g>
</svg>
