<svg xmlns="http://www.w3.org/2000/svg" width="20.859" height="27.813" viewBox="0 0 20.859 27.813">
  <g id="plug" style="isolation: isolate">
    <path id="plug-2" data-name="plug" d="M13.906,7.822V1.738a1.738,1.738,0,1,1,3.477,0V7.822Zm6.084.869H.869A.869.869,0,0,0,0,9.561V11.3a.869.869,0,0,0,.869.869h.869v1.738a8.694,8.694,0,0,0,6.953,8.517v5.389h3.477V22.424a8.694,8.694,0,0,0,6.953-8.517V12.168h.869a.869.869,0,0,0,.869-.869V9.561a.869.869,0,0,0-.869-.869ZM6.953,7.822V1.738a1.738,1.738,0,0,0-3.477,0V7.822Z"/>
  </g>
</svg>
