<svg xmlns="http://www.w3.org/2000/svg" width="25.017" height="28.591" viewBox="0 0 25.017 28.591">
  <g id="podcast" style="isolation: isolate">
    <path id="podcast-2" data-name="podcast" d="M14.934,27.282c-.287,1.062-1.372,1.309-2.425,1.309s-2.138-.247-2.425-1.309a40.69,40.69,0,0,1-1.149-7.416c0-1.963,1.739-2.443,3.574-2.443s3.574.48,3.574,2.443a40.73,40.73,0,0,1-1.149,7.416ZM8.76,16.113a5.361,5.361,0,1,1,7.5,0,.336.336,0,0,0,.035.513,3.715,3.715,0,0,1,1.186,1.416.333.333,0,0,0,.528.106,8.041,8.041,0,1,0-10.995,0,.333.333,0,0,0,.528-.105,3.715,3.715,0,0,1,1.186-1.416.336.336,0,0,0,.035-.513ZM12.508,0A12.512,12.512,0,0,0,7.021,23.755.335.335,0,0,0,7.5,23.4c-.133-.866-.242-1.728-.3-2.476a.337.337,0,0,0-.15-.252,9.828,9.828,0,1,1,10.786.09c-.056.784-.171,1.708-.314,2.637a.335.335,0,0,0,.477.352A12.512,12.512,0,0,0,12.508,0Zm0,8.935a3.574,3.574,0,1,0,3.574,3.574A3.574,3.574,0,0,0,12.508,8.935Z"/>
  </g>
</svg>
