<svg xmlns="http://www.w3.org/2000/svg" width="17.611" height="24.655" viewBox="0 0 17.611 24.655">
  <g id="pound-sign" style="isolation: isolate">
    <path id="pound-sign-2" data-name="pound-sign" d="M16.95,49.611h-2.5a.66.66,0,0,0-.66.66v2.8H7.044V46.089h4.623a.66.66,0,0,0,.66-.66v-2.2a.66.66,0,0,0-.66-.66H7.044v-3.5a3.152,3.152,0,0,1,3.4-3.142,6.358,6.358,0,0,1,3.173,1.037.66.66,0,0,0,.863-.148l1.568-1.954a.66.66,0,0,0-.117-.94A9.458,9.458,0,0,0,10.343,32c-4.508,0-7.7,2.9-7.7,6.932v3.634H1.1a.66.66,0,0,0-.66.66v2.2a.66.66,0,0,0,.66.66H2.642v7.044H.66a.66.66,0,0,0-.66.66v2.2a.66.66,0,0,0,.66.66H16.95a.66.66,0,0,0,.66-.66V50.271A.66.66,0,0,0,16.95,49.611Z" transform="translate(0 -32)"/>
  </g>
</svg>
