<svg xmlns="http://www.w3.org/2000/svg" width="27.813" height="27.813" viewBox="0 0 27.813 27.813">
  <g id="print" style="isolation: isolate">
    <path id="print-2" data-name="print" d="M24.336,10.43V4.2a1.739,1.739,0,0,0-.509-1.229L21.368.509A1.738,1.738,0,0,0,20.139,0H5.215A1.738,1.738,0,0,0,3.477,1.738V10.43A3.476,3.476,0,0,0,0,13.906V19.99a.869.869,0,0,0,.869.869H3.477v5.215a1.738,1.738,0,0,0,1.738,1.738H22.6a1.738,1.738,0,0,0,1.738-1.738V20.859h2.607a.869.869,0,0,0,.869-.869V13.906A3.476,3.476,0,0,0,24.336,10.43ZM20.859,24.336H6.953V19.121H20.859Zm0-12.168H6.953V3.477h10.43V6.084a.869.869,0,0,0,.869.869h2.607Zm2.607,3.911a1.3,1.3,0,1,1,1.3-1.3A1.3,1.3,0,0,1,23.467,16.079Z"/>
  </g>
</svg>
