<svg xmlns="http://www.w3.org/2000/svg" width="38.297" height="30.642" viewBox="0 0 38.297 30.642">
  <path id="probation-solid" d="M13.4,15.319A7.659,7.659,0,1,0,5.745,7.659,7.659,7.659,0,0,0,13.4,15.319Zm-2.735,2.872A10.667,10.667,0,0,0,0,28.861a1.777,1.777,0,0,0,1.777,1.777H25.031a1.9,1.9,0,0,0,.317-.03,15.762,15.762,0,0,1-6.169-11.98,10.6,10.6,0,0,0-3.034-.437Zm18.478-4.685-7.181,2.872a1.443,1.443,0,0,0-.9,1.334c0,3.788,1.55,10.1,8.066,12.818a1.421,1.421,0,0,0,1.107,0c6.511-2.717,8.06-9.03,8.06-12.818a1.443,1.443,0,0,0-.9-1.334l-7.181-2.872a1.425,1.425,0,0,0-1.065,0Zm6.241,5.164a10.518,10.518,0,0,1-5.709,8.958V16.384"/>
</svg>
