<svg xmlns="http://www.w3.org/2000/svg" width="26.521" height="26.521" viewBox="0 0 26.521 26.521">
  <g id="question-circle" style="isolation: isolate">
    <path id="question-circle-2" data-name="question-circle" d="M34.521,21.261A13.261,13.261,0,1,1,21.261,8,13.26,13.26,0,0,1,34.521,21.261Zm-12.9-8.876a6.926,6.926,0,0,0-6.232,3.409.643.643,0,0,0,.145.869l1.855,1.407a.641.641,0,0,0,.891-.113c.955-1.212,1.61-1.914,3.064-1.914,1.092,0,2.443.7,2.443,1.762,0,.8-.661,1.212-1.74,1.817-1.258.705-2.922,1.583-2.922,3.778v.214a.642.642,0,0,0,.642.642h2.994a.642.642,0,0,0,.642-.642v-.071c0-1.522,4.448-1.585,4.448-5.7C27.847,14.737,24.63,12.385,21.616,12.385Zm-.356,13.261a2.46,2.46,0,1,0,2.46,2.46A2.462,2.462,0,0,0,21.261,25.645Z" transform="translate(-8 -8)"/>
  </g>
</svg>
