<svg xmlns="http://www.w3.org/2000/svg" width="27.1" height="27.1" viewBox="0 0 27.1 27.1">
  <g id="question-circle" style="isolation: isolate">
    <path id="question-circle-2" data-name="question-circle" d="M21.55,8A13.55,13.55,0,1,0,35.1,21.55,13.552,13.552,0,0,0,21.55,8Zm0,24.477A10.927,10.927,0,1,1,32.477,21.55,10.921,10.921,0,0,1,21.55,32.477Zm5.86-13.943c0,3.664-3.957,3.72-3.957,5.074v.346a.656.656,0,0,1-.656.656H20.3a.656.656,0,0,1-.656-.656v-.473c0-1.953,1.481-2.734,2.6-3.361.959-.538,1.548-.9,1.548-1.616,0-.942-1.2-1.568-2.174-1.568-1.267,0-1.852.6-2.674,1.637a.656.656,0,0,1-.911.116l-1.52-1.153a.657.657,0,0,1-.144-.894,6.142,6.142,0,0,1,5.5-2.961C24.548,13.682,27.41,15.775,27.41,18.534Zm-3.565,9.135a2.295,2.295,0,1,1-2.295-2.295A2.3,2.3,0,0,1,23.845,27.669Z" transform="translate(-8 -8)"/>
  </g>
</svg>
