<svg xmlns="http://www.w3.org/2000/svg" width="28" height="20" viewBox="0 0 28 20">
  <g id="quote-left-solid" style="isolation: isolate">
    <path id="quote-left-solid-2" data-name="quote-left-solid" d="M0,103.5A7.5,7.5,0,0,1,7.5,96H8a2,2,0,0,1,0,4H7.5A3.5,3.5,0,0,0,4,103.5v.5H8a4,4,0,0,1,4,4v4a4,4,0,0,1-4,4H4a4,4,0,0,1-4-4v-8.5Zm16,0A7.5,7.5,0,0,1,23.5,96H24a2,2,0,0,1,0,4h-.5a3.5,3.5,0,0,0-3.5,3.5v.5h4a4,4,0,0,1,4,4v4a4,4,0,0,1-4,4H20a4,4,0,0,1-4-4v-8.5Z" transform="translate(0 -96)"/>
  </g>
</svg>
