<svg xmlns="http://www.w3.org/2000/svg" width="28" height="20" viewBox="0 0 28 20">
  <g id="quote-right-solid" style="isolation: isolate">
    <path id="quote-right-solid-2" data-name="quote-right-solid" d="M28,108.5a7.5,7.5,0,0,1-7.5,7.5H20a2,2,0,0,1,0-4h.5a3.5,3.5,0,0,0,3.5-3.5V108H20a4,4,0,0,1-4-4v-4a4,4,0,0,1,4-4h4a4,4,0,0,1,4,4v8.5Zm-16,0A7.5,7.5,0,0,1,4.5,116H4a2,2,0,0,1,0-4h.5A3.5,3.5,0,0,0,8,108.5V108H4a4,4,0,0,1-4-4v-4a4,4,0,0,1,4-4H8a4,4,0,0,1,4,4v8.5Z" transform="translate(0 -96)"/>
  </g>
</svg>
