<svg xmlns="http://www.w3.org/2000/svg" width="28.003" height="28" viewBox="0 0 28.003 28">
  <path id="radio-solid" d="M27.059,2.564A1.312,1.312,0,1,0,26.315.049L2.827,6.934a3.841,3.841,0,0,0-1.373.722A3.49,3.49,0,0,0,0,10.494v14a3.5,3.5,0,0,0,3.5,3.5h21a3.5,3.5,0,0,0,3.5-3.5v-14a3.5,3.5,0,0,0-3.5-3.5H11.949ZM20.125,13.119a4.375,4.375,0,1,1-4.375,4.375A4.375,4.375,0,0,1,20.125,13.119Zm-15.75.875a.878.878,0,0,1,.875-.875H10.5a.875.875,0,0,1,0,1.75H5.25A.878.878,0,0,1,4.375,13.994Zm-.875,3.5a.878.878,0,0,1,.875-.875h7a.875.875,0,1,1,0,1.75h-7A.878.878,0,0,1,3.5,17.494Zm.875,3.5a.878.878,0,0,1,.875-.875H10.5a.875.875,0,0,1,0,1.75H5.25A.878.878,0,0,1,4.375,20.994Z" transform="translate(0 0.006)"/>
</svg>
