<svg xmlns="http://www.w3.org/2000/svg" width="27.854" height="24.372" viewBox="0 0 27.854 24.372">
  <g id="random" style="isolation: isolate">
    <path id="random-2" data-name="random" d="M27.472,49.791a1.306,1.306,0,0,1,0,1.846l-4.352,4.351a1.307,1.307,0,0,1-2.229-.923V52.891h-3.2a.653.653,0,0,1-.477-.207l-3.838-4.113,2.9-3.109,2.871,3.077h1.741V46.363a1.307,1.307,0,0,1,2.229-.923ZM.653,39.834h4.57l2.871,3.077L11,39.8,7.157,35.689a.653.653,0,0,0-.477-.207H.653A.653.653,0,0,0,0,36.135v3.047A.653.653,0,0,0,.653,39.834Zm20.238,0v2.175a1.307,1.307,0,0,0,2.229.923l4.352-4.351a1.306,1.306,0,0,0,0-1.846l-4.352-4.351a1.307,1.307,0,0,0-2.229.923v2.175h-3.2a.653.653,0,0,0-.477.207L5.223,48.538H.653A.653.653,0,0,0,0,49.191v3.047a.653.653,0,0,0,.653.653H6.68a.653.653,0,0,0,.477-.207L19.15,39.834Z" transform="translate(0 -32)"/>
  </g>
</svg>
