<svg xmlns="http://www.w3.org/2000/svg" width="28.121" height="28.102" viewBox="0 0 28.121 28.102">
  <g id="redo" style="isolation: isolate">
    <path id="redo-2" data-name="redo" d="M35.452,0H32.808a.669.669,0,0,0-.668.7l.221,4.614a13.827,13.827,0,1,0-1.267,19.223.67.67,0,0,0,.027-.972l-1.894-1.894a.668.668,0,0,0-.913-.03A9.814,9.814,0,1,1,29.974,8.8l-5.661-.271a.669.669,0,0,0-.7.668v2.644a.669.669,0,0,0,.669.669h11.17a.669.669,0,0,0,.669-.669V.669A.669.669,0,0,0,35.452,0Z" transform="translate(-8)"/>
  </g>
</svg>
