<svg xmlns="http://www.w3.org/2000/svg" width="27.096" height="27.096" viewBox="0 0 27.096 27.096">
  <g id="registered" style="isolation: isolate">
    <path id="registered-2" data-name="registered" d="M21.548,8A13.548,13.548,0,1,0,35.1,21.548,13.548,13.548,0,0,0,21.548,8Zm0,24.474A10.926,10.926,0,1,1,32.474,21.548,10.92,10.92,0,0,1,21.548,32.474Zm6.033-4.468c-2.9-5.26-2.745-5-2.91-5.249a4.528,4.528,0,0,0,2.157-4c0-2.868-1.652-4.657-5.545-4.657h-4.3a.656.656,0,0,0-.656.656V28.322a.656.656,0,0,0,.656.656h2.107a.656.656,0,0,0,.656-.656v-4.57h1.746l2.6,4.879a.654.654,0,0,0,.579.347h2.339A.655.655,0,0,0,27.581,28.006ZM21.6,20.669H19.748v-3.5h1.5c1.771,0,2.127.663,2.127,1.732A1.6,1.6,0,0,1,21.6,20.669Z" transform="translate(-8 -8)"/>
  </g>
</svg>
