<svg xmlns="http://www.w3.org/2000/svg" width="27.183" height="27.183" viewBox="0 0 27.183 27.183">
  <g id="registered" style="isolation: isolate">
    <path id="registered-2" data-name="registered" d="M23.2,18.932a1.393,1.393,0,0,1-1.558,1.558H20.005V17.413h1.281C22.857,17.413,23.2,17.894,23.2,18.932Zm11.982,2.659A13.591,13.591,0,1,1,21.591,8,13.591,13.591,0,0,1,35.183,21.591Zm-7.7,5.722c-2.561-4.649-2.373-4.31-2.45-4.438a4.8,4.8,0,0,0,2.08-4.082c0-2.973-1.726-4.891-5.782-4.891H17.453a1.315,1.315,0,0,0-1.315,1.315V27.949a1.315,1.315,0,0,0,1.315,1.315H18.69a1.315,1.315,0,0,0,1.315-1.315V24.021h1.4l2.418,4.545a1.315,1.315,0,0,0,1.161.7h1.341A1.316,1.316,0,0,0,27.478,27.314Z" transform="translate(-8 -8)"/>
  </g>
</svg>
