<svg xmlns="http://www.w3.org/2000/svg" width="34.998" height="28" viewBox="0 0 34.998 28">
  <g id="restroom-solid" transform="translate(0)" style="isolation: isolate">
    <path id="restroom-solid-2" data-name="restroom-solid" d="M4.4,2.625A2.625,2.625,0,1,1,7.02,5.25,2.625,2.625,0,0,1,4.4,2.625ZM6.583,19.25v7a1.75,1.75,0,0,1-3.5,0V17.784A1.748,1.748,0,0,1,.1,16.105l1.69-5.42A5.246,5.246,0,0,1,6.8,7h.438a5.246,5.246,0,0,1,5.009,3.686l1.69,5.42a1.748,1.748,0,0,1-2.98,1.679V26.25a1.75,1.75,0,0,1-3.5,0v-7ZM17.52,0a1.309,1.309,0,0,1,1.313,1.313V26.688a1.312,1.312,0,0,1-2.625,0V1.313A1.309,1.309,0,0,1,17.52,0ZM25.4,2.625A2.625,2.625,0,1,1,28.02,5.25,2.625,2.625,0,0,1,25.4,2.625ZM24.083,26.25V21h-.973a.878.878,0,0,1-.831-1.154l.492-1.471a1.691,1.691,0,0,1-.52-.082A1.748,1.748,0,0,1,21.1,16.1l1.624-5.206a5.545,5.545,0,0,1,10.587,0L34.938,16.1a1.757,1.757,0,0,1-1.668,2.275l.492,1.471A.876.876,0,0,1,32.931,21h-.973v5.25a1.75,1.75,0,0,1-3.5,0V21h-.875v5.25a1.75,1.75,0,0,1-3.5,0Z" transform="translate(-0.022)"/>
  </g>
</svg>
