<svg xmlns="http://www.w3.org/2000/svg" width="28" height="22.4" viewBox="0 0 28 22.4">
  <g id="robot-solid" style="isolation: isolate">
    <path id="robot-solid-2" data-name="robot-solid" d="M14,0a1.4,1.4,0,0,1,1.4,1.4V4.2h5.25A3.148,3.148,0,0,1,23.8,7.35v11.9a3.148,3.148,0,0,1-3.15,3.15H7.35A3.148,3.148,0,0,1,4.2,19.25V7.35A3.148,3.148,0,0,1,7.35,4.2H12.6V1.4A1.4,1.4,0,0,1,14,0ZM9.1,16.8a.7.7,0,1,0,0,1.4h1.4a.7.7,0,1,0,0-1.4Zm4.2,0a.7.7,0,1,0,0,1.4h1.4a.7.7,0,1,0,0-1.4Zm4.2,0a.7.7,0,1,0,0,1.4h1.4a.7.7,0,1,0,0-1.4Zm-5.95-5.6A1.75,1.75,0,1,0,9.8,12.95,1.75,1.75,0,0,0,11.55,11.2Zm6.65,1.75a1.75,1.75,0,1,0-1.75-1.75,1.75,1.75,0,0,0,1.75,1.75ZM2.1,9.8h.7v8.4H2.1A2.1,2.1,0,0,1,0,16.1V11.9A2.1,2.1,0,0,1,2.1,9.8Zm23.8,0A2.1,2.1,0,0,1,28,11.9v4.2a2.1,2.1,0,0,1-2.1,2.1h-.7V9.8Z"/>
  </g>
</svg>
