<svg xmlns="http://www.w3.org/2000/svg" width="29.995" height="28" viewBox="0 0 29.995 28">
  <g id="rotate-solid" style="isolation: isolate">
    <path id="rotate-solid-2" data-name="rotate-solid" d="M23.93,38.894a10,10,0,0,1,14.079-.062L35.434,41.4A1.5,1.5,0,0,0,36.5,43.962h8a1.5,1.5,0,0,0,1.5-1.5v-8A1.5,1.5,0,0,0,43.433,33.4l-2.6,2.6A14,14,0,0,0,17.8,41.3a2,2,0,1,0,3.768,1.331,9.9,9.9,0,0,1,2.362-3.737ZM16,49.461v8a1.5,1.5,0,0,0,2.562,1.062l2.6-2.6A14.011,14.011,0,0,0,44.2,50.63,2,2,0,0,0,40.433,49.3a9.9,9.9,0,0,1-2.362,3.737,10,10,0,0,1-14.079.062l2.568-2.575A1.5,1.5,0,0,0,25.5,47.961h-8A1.5,1.5,0,0,0,16,49.461Z" transform="translate(-16 -31.962)"/>
  </g>
</svg>
