<svg xmlns="http://www.w3.org/2000/svg" width="25.378" height="25.378" viewBox="0 0 25.378 25.378">
  <g id="rss-square" style="isolation: isolate">
    <path id="rss-square-2" data-name="rss-square" d="M22.659,32H2.719A2.719,2.719,0,0,0,0,34.719v19.94a2.719,2.719,0,0,0,2.719,2.719h19.94a2.719,2.719,0,0,0,2.719-2.719V34.719A2.719,2.719,0,0,0,22.659,32ZM6.345,53.753a2.719,2.719,0,1,1,2.719-2.719A2.719,2.719,0,0,1,6.345,53.753Zm8.924,0H13.324a.648.648,0,0,1-.648-.6A9.067,9.067,0,0,0,4.228,44.7a.648.648,0,0,1-.6-.648V42.11a.647.647,0,0,1,.679-.647A12.3,12.3,0,0,1,15.916,53.073a.647.647,0,0,1-.647.679Zm5.836,0H19.16a.649.649,0,0,1-.647-.625A14.893,14.893,0,0,0,4.251,38.866a.649.649,0,0,1-.625-.647V36.274a.647.647,0,0,1,.668-.648A18.14,18.14,0,0,1,21.752,53.085a.647.647,0,0,1-.648.668Z" transform="translate(0 -32)"/>
  </g>
</svg>
