<svg xmlns="http://www.w3.org/2000/svg" width="25.393" height="25.393" viewBox="0 0 25.393 25.393">
  <g id="rss" style="isolation: isolate">
    <path id="rss-2" data-name="rss" d="M7.26,53.763a3.63,3.63,0,1,1-3.63-3.63A3.63,3.63,0,0,1,7.26,53.763Zm9.957,2.678A17.235,17.235,0,0,0,.952,40.176.906.906,0,0,0,0,41.083v2.725a.907.907,0,0,0,.844.908A12.7,12.7,0,0,1,12.677,56.549a.907.907,0,0,0,.908.844H16.31A.906.906,0,0,0,17.216,56.441Zm8.176.016A25.411,25.411,0,0,0,.935,32,.906.906,0,0,0,0,32.907v2.725a.91.91,0,0,0,.876.907A20.862,20.862,0,0,1,20.854,56.517a.909.909,0,0,0,.907.876h2.725A.906.906,0,0,0,25.392,56.457Z" transform="translate(0 -32)"/>
  </g>
</svg>
