<svg xmlns="http://www.w3.org/2000/svg" width="21.25" height="24.791" viewBox="0 0 21.25 24.791">
  <g id="ruble-sign" style="isolation: isolate">
    <path id="ruble-sign-2" data-name="ruble-sign" d="M13.246,47.937a7.663,7.663,0,0,0,8-8.02c0-4.73-3.294-7.917-8-7.917H4.206a.664.664,0,0,0-.664.664V44.1H.664A.664.664,0,0,0,0,44.763v2.511a.664.664,0,0,0,.664.664H3.542v1.771H.664A.664.664,0,0,0,0,50.372v2.213a.664.664,0,0,0,.664.664H3.542v2.878a.664.664,0,0,0,.664.664H7.446a.664.664,0,0,0,.664-.664V53.25h8.934a.664.664,0,0,0,.664-.664V50.372a.664.664,0,0,0-.664-.664H8.11V47.937ZM8.11,35.8h4.356a3.833,3.833,0,0,1,4.144,4.113A3.888,3.888,0,0,1,12.4,44.1H8.11Z" transform="translate(0 -32)"/>
  </g>
</svg>
