<svg xmlns="http://www.w3.org/2000/svg" width="17.887" height="25.042" viewBox="0 0 17.887 25.042">
  <g id="rupee-sign" style="isolation: isolate">
    <path id="rupee-sign-2" data-name="rupee-sign" d="M17.216,35.577a.671.671,0,0,0,.671-.671V32.671A.671.671,0,0,0,17.216,32H.671A.671.671,0,0,0,0,32.671v2.5a.671.671,0,0,0,.671.671H5.438a4.032,4.032,0,0,1,3.408,1.523H.671A.671.671,0,0,0,0,38.037v2.236a.671.671,0,0,0,.671.671H9.545a3.863,3.863,0,0,1-4.179,3.277H.671A.671.671,0,0,0,0,44.891v2.963a.671.671,0,0,0,.216.493l9.226,8.516a.671.671,0,0,0,.455.178h4.615a.671.671,0,0,0,.455-1.164L6.533,48.093a7.658,7.658,0,0,0,7.731-7.149h2.952a.671.671,0,0,0,.671-.671V38.037a.671.671,0,0,0-.671-.671H13.935a7.656,7.656,0,0,0-.8-1.789Z" transform="translate(0 -32)"/>
  </g>
</svg>
