<svg xmlns="http://www.w3.org/2000/svg" width="28" height="28" viewBox="0 0 28 28">
  <g id="satellite-dish-solid" style="isolation: isolate">
    <path id="satellite-dish-solid-2" data-name="satellite-dish-solid" d="M10.5,1.75A1.748,1.748,0,0,1,12.25,0,15.747,15.747,0,0,1,28,15.75a1.75,1.75,0,0,1-3.5,0A12.251,12.251,0,0,0,12.25,3.5,1.748,1.748,0,0,1,10.5,1.75ZM3.314,12.064l5.693,5.693L10.56,16.2a1.75,1.75,0,1,1,1.69,1.3,1.782,1.782,0,0,1-.454-.06l-1.553,1.553,5.693,5.693a1.519,1.519,0,0,1-.4,2.532A11.381,11.381,0,0,1,.787,12.463a1.522,1.522,0,0,1,2.532-.4ZM12.25,5.25a10.5,10.5,0,0,1,10.5,10.5,1.75,1.75,0,0,1-3.5,0,7,7,0,0,0-7-7,1.75,1.75,0,0,1,0-3.5Z"/>
  </g>
</svg>
