<svg xmlns="http://www.w3.org/2000/svg" width="25.124" height="25.124" viewBox="0 0 25.124 25.124">
  <g id="save" style="isolation: isolate">
    <path id="save-2" data-name="save" d="M24.335,37.492l-4.7-4.7a2.692,2.692,0,0,0-1.9-.788H2.692A2.692,2.692,0,0,0,0,34.692v19.74a2.692,2.692,0,0,0,2.692,2.692h19.74a2.692,2.692,0,0,0,2.692-2.692V39.4a2.692,2.692,0,0,0-.788-1.9Zm-9.082-2.8v4.486H8.075V34.692ZM22.1,54.432H3.028a.336.336,0,0,1-.336-.336V35.028a.336.336,0,0,1,.336-.336H5.384v5.832A1.346,1.346,0,0,0,6.73,41.87H16.6a1.346,1.346,0,0,0,1.346-1.346V34.91L22.333,39.3a.336.336,0,0,1,.1.238V54.1A.336.336,0,0,1,22.1,54.432ZM12.562,43.216A4.935,4.935,0,1,0,17.5,48.151,4.941,4.941,0,0,0,12.562,43.216Zm0,7.178A2.243,2.243,0,1,1,14.8,48.151,2.246,2.246,0,0,1,12.562,50.394Z" transform="translate(0 -32)"/>
  </g>
</svg>
