<svg xmlns="http://www.w3.org/2000/svg" width="25.813" height="25.813" viewBox="0 0 25.813 25.813">
  <g id="save" style="isolation: isolate">
    <path id="save-2" data-name="save" d="M25,37.643,20.169,32.81A2.766,2.766,0,0,0,18.214,32H2.766A2.766,2.766,0,0,0,0,34.766V55.047a2.766,2.766,0,0,0,2.766,2.766H23.047a2.766,2.766,0,0,0,2.766-2.766V39.6A2.766,2.766,0,0,0,25,37.643Zm-12.1,16.482a3.688,3.688,0,1,1,3.687-3.687A3.688,3.688,0,0,1,12.906,54.125Zm5.531-17.546v5.792a.691.691,0,0,1-.691.691H4.379a.691.691,0,0,1-.691-.691V36.379a.691.691,0,0,1,.691-.691H17.546a.691.691,0,0,1,.489.2l.2.2a.691.691,0,0,1,.2.489Z" transform="translate(0 -32)"/>
  </g>
</svg>
