<svg xmlns="http://www.w3.org/2000/svg" width="42" height="37.333" viewBox="0 0 42 37.333">
  <g id="school-flag-solid" style="isolation: isolate">
    <path id="school-flag-solid-2" data-name="school-flag-solid" d="M21,0h8.167a1.17,1.17,0,0,1,1.167,1.167V5.833A1.17,1.17,0,0,1,29.167,7H23.384l6.533,4.667h7.416A4.671,4.671,0,0,1,42,16.333V32.667a4.671,4.671,0,0,1-4.667,4.667H24.5V29.167a3.5,3.5,0,0,0-7,0v8.167H4.667A4.671,4.671,0,0,1,0,32.667V16.333a4.671,4.671,0,0,1,4.667-4.667h7.416l6.584-4.7V2.333A2.331,2.331,0,0,1,21,0Zm3.5,17.5A3.5,3.5,0,1,0,21,21,3.5,3.5,0,0,0,24.5,17.5ZM5.833,16.333A1.17,1.17,0,0,0,4.667,17.5v4.667a1.17,1.17,0,0,0,1.167,1.167H8.167a1.17,1.17,0,0,0,1.167-1.167V17.5a1.17,1.17,0,0,0-1.167-1.167ZM32.667,17.5v4.667a1.17,1.17,0,0,0,1.167,1.167h2.333a1.17,1.17,0,0,0,1.167-1.167V17.5a1.17,1.17,0,0,0-1.167-1.167H33.833A1.17,1.17,0,0,0,32.667,17.5ZM5.833,25.667a1.17,1.17,0,0,0-1.167,1.167V31.5a1.17,1.17,0,0,0,1.167,1.167H8.167A1.17,1.17,0,0,0,9.333,31.5V26.833a1.17,1.17,0,0,0-1.167-1.167Zm28,0a1.17,1.17,0,0,0-1.167,1.167V31.5a1.17,1.17,0,0,0,1.167,1.167h2.333A1.17,1.17,0,0,0,37.333,31.5V26.833a1.17,1.17,0,0,0-1.167-1.167Z"/>
  </g>
</svg>
