<svg xmlns="http://www.w3.org/2000/svg" width="28.381" height="24.833" viewBox="0 0 28.381 24.833">
  <g id="server" style="isolation: isolate">
    <path id="server-2" data-name="server" d="M26.607,39.1H1.774A1.774,1.774,0,0,1,0,37.321V33.774A1.774,1.774,0,0,1,1.774,32H26.607a1.774,1.774,0,0,1,1.774,1.774v3.548A1.774,1.774,0,0,1,26.607,39.1Zm-2.661-4.878a1.33,1.33,0,1,0,1.33,1.33A1.33,1.33,0,0,0,23.946,34.217Zm-3.548,0a1.33,1.33,0,1,0,1.33,1.33A1.33,1.33,0,0,0,20.4,34.217Zm6.208,13.747H1.774A1.774,1.774,0,0,1,0,46.19V42.643a1.774,1.774,0,0,1,1.774-1.774H26.607a1.774,1.774,0,0,1,1.774,1.774V46.19A1.774,1.774,0,0,1,26.607,47.964Zm-2.661-4.878a1.33,1.33,0,1,0,1.33,1.33A1.33,1.33,0,0,0,23.946,43.086Zm-3.548,0a1.33,1.33,0,1,0,1.33,1.33A1.33,1.33,0,0,0,20.4,43.086Zm6.208,13.747H1.774A1.774,1.774,0,0,1,0,55.059V51.512a1.774,1.774,0,0,1,1.774-1.774H26.607a1.774,1.774,0,0,1,1.774,1.774v3.548A1.774,1.774,0,0,1,26.607,56.833Zm-2.661-4.878a1.33,1.33,0,1,0,1.33,1.33A1.33,1.33,0,0,0,23.946,51.955Zm-3.548,0a1.33,1.33,0,1,0,1.33,1.33A1.33,1.33,0,0,0,20.4,51.955Z" transform="translate(0 -32)"/>
  </g>
</svg>
