<svg xmlns="http://www.w3.org/2000/svg" width="25.042" height="25.042" viewBox="0 0 25.042 25.042">
  <g id="shekel-sign" style="isolation: isolate">
    <path id="shekel-sign-2" data-name="shekel-sign" d="M13.862,39.6v9.391a.894.894,0,0,0,.894.894H17.44a.894.894,0,0,0,.894-.894V39.6a7.6,7.6,0,0,0-7.6-7.6H1.342A1.341,1.341,0,0,0,0,33.342V56.147a.894.894,0,0,0,.894.894H3.577a.894.894,0,0,0,.894-.894V36.472h6.26A3.13,3.13,0,0,1,13.862,39.6ZM24.147,32H21.464a.894.894,0,0,0-.894.894V49.44a3.13,3.13,0,0,1-3.13,3.13h-6.26V40.049a.894.894,0,0,0-.894-.894H7.6a.894.894,0,0,0-.894.894V55.7a1.342,1.342,0,0,0,1.342,1.342H17.44a7.6,7.6,0,0,0,7.6-7.6V32.894A.894.894,0,0,0,24.147,32Z" transform="translate(0 -32)"/>
  </g>
</svg>
