<svg xmlns="http://www.w3.org/2000/svg" width="24.403" height="27.889" viewBox="0 0 24.403 27.889">
  <g id="sign-language" style="isolation: isolate">
    <path id="sign-language-2" data-name="sign-language" d="M4.981,26.363a1.581,1.581,0,0,1,1.587-1.587H9.961v-.311H3.105a1.581,1.581,0,0,1-1.587-1.587,1.556,1.556,0,0,1,1.556-1.526H9.961v-.311H1.588A1.581,1.581,0,0,1,0,19.455a1.556,1.556,0,0,1,1.556-1.526h8.4v-.311H3.144a1.581,1.581,0,0,1-1.587-1.587,1.556,1.556,0,0,1,1.556-1.526H12.3L10.6,13.274a1.556,1.556,0,0,1,1.831-2.517l6.72,4.887a1.868,1.868,0,0,1,.769,1.51v7.688a1.868,1.868,0,0,1-1.44,1.818L14.1,27.691a7.471,7.471,0,0,1-1.711.2H6.537a1.556,1.556,0,0,1-1.556-1.526Zm3.99-12.294h1.984l-.609-.443a1.992,1.992,0,0,1-.173-3.08l-.708-.91A1.581,1.581,0,0,0,7.238,9.36a1.556,1.556,0,0,0-.248,2.165l1.981,2.544ZM24.4,13.955l-.273-8.3a1.556,1.556,0,1,0-3.111.1l.069,2.093L15.447.6a1.556,1.556,0,0,0-2.16-.29,1.581,1.581,0,0,0-.277,2.227L17.2,7.916l-.246.191L11.789,1.476a1.556,1.556,0,0,0-2.16-.29,1.581,1.581,0,0,0-.277,2.227L14.5,10.019l-.246.191L10.02,4.777a1.556,1.556,0,0,0-2.16-.29,1.581,1.581,0,0,0-.277,2.227l2.835,3.641a1.988,1.988,0,0,1,2.271.049l6.72,4.887a2.31,2.31,0,0,1,.949,1.863v.926l3.326-2.59a1.868,1.868,0,0,0,.719-1.535Z" transform="translate(-0.001)"/>
  </g>
</svg>
