<svg xmlns="http://www.w3.org/2000/svg" width="24.767" height="24.767" viewBox="0 0 24.767 24.767">
  <g id="sticky-note" style="isolation: isolate">
    <path id="sticky-note-2" data-name="sticky-note" d="M17.249,47.922h7.519V33.327A1.324,1.324,0,0,0,23.44,32H1.327A1.324,1.324,0,0,0,0,33.327V55.44a1.324,1.324,0,0,0,1.327,1.327H15.922V49.249A1.331,1.331,0,0,1,17.249,47.922Zm7.132,3.041L18.962,56.38a1.326,1.326,0,0,1-.94.387h-.332V49.691h7.076v.337A1.323,1.323,0,0,1,24.38,50.962Z" transform="translate(0 -32)"/>
  </g>
</svg>
