<svg xmlns="http://www.w3.org/2000/svg" width="24.891" height="24.89" viewBox="0 0 24.891 24.89">
  <g id="sticky-note" style="isolation: isolate">
    <path id="sticky-note-2" data-name="sticky-note" d="M24.891,49.563v-14.9A2.667,2.667,0,0,0,22.224,32H2.667A2.667,2.667,0,0,0,0,34.667V54.224A2.667,2.667,0,0,0,2.667,56.89h14.9a2.667,2.667,0,0,0,1.886-.781l4.661-4.661a2.667,2.667,0,0,0,.781-1.886Zm-7.112,4.445V49.779h4.229Zm4.445-19.341V47.112H16.446a1.333,1.333,0,0,0-1.333,1.333v5.778H2.667V34.667Z" transform="translate(0 -32)"/>
  </g>
</svg>
