<svg xmlns="http://www.w3.org/2000/svg" width="27.062" height="27.062" viewBox="0 0 27.062 27.062">
  <g id="stop-circle" style="isolation: isolate">
    <path id="stop-circle-2" data-name="stop-circle" d="M35.062,21.531A13.531,13.531,0,1,0,21.531,35.062,13.528,13.528,0,0,0,35.062,21.531Zm-24.443,0A10.912,10.912,0,1,1,21.531,32.443,10.909,10.909,0,0,1,10.619,21.531Zm16.15-4.365V25.9a.876.876,0,0,1-.873.873h-8.73a.876.876,0,0,1-.873-.873v-8.73a.876.876,0,0,1,.873-.873H25.9A.876.876,0,0,1,26.768,17.166Z" transform="translate(-8 -8)"/>
  </g>
</svg>
