<svg xmlns="http://www.w3.org/2000/svg" width="22.724" height="27.966" viewBox="0 0 22.724 27.966">
  <g id="stopwatch" style="isolation: isolate">
    <path id="stopwatch-2" data-name="stopwatch" d="M38.722,16.6A11.361,11.361,0,1,1,25.613,5.38V3.5H24.084a.657.657,0,0,1-.655-.655V.655A.657.657,0,0,1,24.084,0h6.555a.657.657,0,0,1,.655.655V2.84a.657.657,0,0,1-.655.655H29.109V5.38a11.292,11.292,0,0,1,5.446,2.436l1.5-1.5a.656.656,0,0,1,.929,0L38.531,7.86a.656.656,0,0,1,0,.929l-1.606,1.606-.033.033A11.248,11.248,0,0,1,38.722,16.6Zm-9.613,1.966V10.3a.657.657,0,0,0-.655-.655H26.269a.657.657,0,0,0-.655.655v8.275a.657.657,0,0,0,.655.655h2.185A.657.657,0,0,0,29.109,18.571Z" transform="translate(-16)"/>
  </g>
</svg>
