<svg xmlns="http://www.w3.org/2000/svg" width="29.7" height="25.987" viewBox="0 0 29.7 25.987">
  <g id="suitcase" style="isolation: isolate">
    <path id="suitcase-2" data-name="suitcase" d="M7.425,57.987h14.85v-23.2A2.785,2.785,0,0,0,19.49,32H10.209a2.785,2.785,0,0,0-2.784,2.784Zm3.712-22.275h7.425v1.856H11.137ZM29.7,40.353V55.2a2.785,2.785,0,0,1-2.784,2.784H24.131V37.569h2.784A2.785,2.785,0,0,1,29.7,40.353ZM5.569,57.987H2.784A2.785,2.785,0,0,1,0,55.2V40.353a2.785,2.785,0,0,1,2.784-2.784H5.569Z" transform="translate(0 -32)"/>
  </g>
</svg>
