<svg xmlns="http://www.w3.org/2000/svg" width="26.989" height="26.989" viewBox="0 0 26.989 26.989">
  <g id="sync-alt" style="isolation: isolate">
    <path id="sync-alt-2" data-name="sync-alt" d="M27.737,14.817a9.143,9.143,0,0,0-15.108,4.438.655.655,0,0,1-.634.5H8.876a.653.653,0,0,1-.642-.771,13.5,13.5,0,0,1,22.582-7.244l1.943-1.943a1.306,1.306,0,0,1,2.229.923v7.294a1.306,1.306,0,0,1-1.306,1.306H26.388a1.306,1.306,0,0,1-.923-2.229ZM9.306,23.671H16.6a1.306,1.306,0,0,1,.923,2.229l-2.272,2.272A9.144,9.144,0,0,0,30.36,23.734a.655.655,0,0,1,.634-.5h3.118a.653.653,0,0,1,.642.771,13.5,13.5,0,0,1-22.582,7.244l-1.943,1.943A1.306,1.306,0,0,1,8,32.271V24.977A1.306,1.306,0,0,1,9.306,23.671Z" transform="translate(-8 -8)"/>
  </g>
</svg>
