<svg xmlns="http://www.w3.org/2000/svg" width="28.007" height="27.989" viewBox="0 0 28.007 27.989">
  <g id="sync" style="isolation: isolate">
    <path id="sync-2" data-name="sync" d="M24.1.687l.217,4.524A13.558,13.558,0,0,0,.672,11.47a.656.656,0,0,0,.645.775H4a.657.657,0,0,0,.638-.506A9.625,9.625,0,0,1,21.981,8.626l-5.55-.266a.656.656,0,0,0-.687.655v2.592a.656.656,0,0,0,.656.656H27.351a.656.656,0,0,0,.656-.656V.656A.656.656,0,0,0,27.351,0H24.759A.656.656,0,0,0,24.1.687ZM13.994,23.615a9.607,9.607,0,0,1-7.987-4.253l5.569.266a.656.656,0,0,0,.687-.655V16.381a.656.656,0,0,0-.656-.656H.656A.656.656,0,0,0,0,16.381V27.333a.656.656,0,0,0,.656.656h2.59A.656.656,0,0,0,3.9,27.3l-.226-4.514a13.558,13.558,0,0,0,23.641-6.267.656.656,0,0,0-.645-.775H23.988a.657.657,0,0,0-.638.506A9.618,9.618,0,0,1,13.994,23.615Z"/>
  </g>
</svg>
