<svg xmlns="http://www.w3.org/2000/svg" width="25.048" height="28.626" viewBox="0 0 25.048 28.626">
  <g id="tablet-alt" style="isolation: isolate">
    <path id="tablet-alt-2" data-name="tablet-alt" d="M22.364,0H2.684A2.684,2.684,0,0,0,0,2.684V25.943a2.684,2.684,0,0,0,2.684,2.684H22.364a2.684,2.684,0,0,0,2.684-2.684V2.684A2.684,2.684,0,0,0,22.364,0Zm-9.84,26.837a1.789,1.789,0,1,1,1.789-1.789A1.787,1.787,0,0,1,12.524,26.837Zm9.84-6.038a.673.673,0,0,1-.671.671H3.355a.673.673,0,0,1-.671-.671V3.355a.673.673,0,0,1,.671-.671H21.693a.673.673,0,0,1,.671.671Z"/>
  </g>
</svg>
