<svg xmlns="http://www.w3.org/2000/svg" width="34.654" height="27.723" viewBox="0 0 34.654 27.723">
  <g id="tags" style="isolation: isolate">
    <path id="tags-2" data-name="tags" d="M26.962,12.234,15.489.761A2.6,2.6,0,0,0,13.651,0H2.6A2.6,2.6,0,0,0,0,2.6V13.651a2.6,2.6,0,0,0,.761,1.838L12.234,26.962a2.6,2.6,0,0,0,3.676,0L26.962,15.91a2.6,2.6,0,0,0,0-3.676Zm-20.9-3.57a2.6,2.6,0,1,1,2.6-2.6A2.6,2.6,0,0,1,6.064,8.663ZM33.893,15.91,22.84,26.962a2.6,2.6,0,0,1-3.676,0l-.019-.019,9.425-9.425a4.873,4.873,0,0,0,0-6.892L17.944,0h2.638A2.6,2.6,0,0,1,22.42.761L33.893,12.234a2.6,2.6,0,0,1,0,3.676Z"/>
  </g>
</svg>
