<svg xmlns="http://www.w3.org/2000/svg" width="29.541" height="24.926" viewBox="0 0 29.541 24.926">
  <g id="tasks" style="isolation: isolate">
    <path id="tasks-2" data-name="tasks" d="M11.977,37.746H28.593a.926.926,0,0,0,.923-.923V34.515a.926.926,0,0,0-.923-.923H11.977a.926.926,0,0,0-.923.923v2.308A.926.926,0,0,0,11.977,37.746Zm0,9.231H28.593a.926.926,0,0,0,.923-.923V43.746a.926.926,0,0,0-.923-.923H11.977a.926.926,0,0,0-.923.923v2.308A.926.926,0,0,0,11.977,46.977Zm0,9.231H28.593a.926.926,0,0,0,.923-.923V52.977a.926.926,0,0,0-.923-.923H11.977a.926.926,0,0,0-.923.923v2.308A.926.926,0,0,0,11.977,56.208ZM3.669,51.362a2.77,2.77,0,1,0,0,5.539,2.769,2.769,0,0,0,0-5.539ZM9.006,34.111,4.84,38.277l-.9.9a.735.735,0,0,1-1.015,0L.178,36.442a.693.693,0,0,1,0-.981l.906-.906a.693.693,0,0,1,.981,0l1.31,1.275L7.05,32.178a.693.693,0,0,1,.981,0l.981.952A.7.7,0,0,1,9.006,34.111Zm0,9.208L4.84,47.485l-.906.906a.735.735,0,0,1-1.015,0L.178,45.65a.693.693,0,0,1,0-.981l.906-.906a.693.693,0,0,1,.981,0l1.31,1.275L7.05,41.363a.693.693,0,0,1,.981,0l.981.981a.691.691,0,0,1-.006.975Z" transform="translate(0.025 -31.975)"/>
  </g>
</svg>
