<svg xmlns="http://www.w3.org/2000/svg" width="37.74" height="26.084" viewBox="0 0 37.74 26.084">
  <g id="terminal" style="isolation: isolate">
    <path id="terminal-2" data-name="terminal" d="M15.212,51.533,3.752,62.994a1.415,1.415,0,0,1-2,0L.414,61.657a1.415,1.415,0,0,1,0-2l9.083-9.125L.412,41.408a1.415,1.415,0,0,1,0-2l1.337-1.337a1.415,1.415,0,0,1,2,0l11.46,11.46A1.415,1.415,0,0,1,15.212,51.533ZM37.74,62.326V60.439a1.415,1.415,0,0,0-1.415-1.415H18.4a1.415,1.415,0,0,0-1.415,1.415v1.887A1.415,1.415,0,0,0,18.4,63.742H36.324A1.415,1.415,0,0,0,37.74,62.326Z" transform="translate(0 -37.657)"/>
  </g>
</svg>
