<svg xmlns="http://www.w3.org/2000/svg" width="22.444" height="29.926" viewBox="0 0 22.444 29.926">
  <g id="thumbtack" style="isolation: isolate">
    <path id="thumbtack-2" data-name="thumbtack" d="M17.419,12.524,16.7,5.611h2.467a1.4,1.4,0,0,0,1.4-1.4V1.4a1.4,1.4,0,0,0-1.4-1.4H3.273a1.4,1.4,0,0,0-1.4,1.4V4.208a1.4,1.4,0,0,0,1.4,1.4H5.74l-.715,6.912C2.19,13.842,0,16.205,0,19.171a1.4,1.4,0,0,0,1.4,1.4H9.352v6.079a.467.467,0,0,0,.049.209l1.4,2.806a.468.468,0,0,0,.836,0l1.4-2.806a.468.468,0,0,0,.049-.209V20.574h7.949a1.4,1.4,0,0,0,1.4-1.4C22.444,16.179,20.224,13.828,17.419,12.524Z"/>
  </g>
</svg>
