<svg xmlns="http://www.w3.org/2000/svg" width="27.298" height="27.298" viewBox="0 0 27.298 27.298">
  <g id="tty" style="isolation: isolate">
    <path id="tty-2" data-name="tty" d="M.286,5.536a18.9,18.9,0,0,1,26.725,0,.978.978,0,0,1,.138,1.209l-2.3,3.686a.977.977,0,0,1-1.192.389L19.046,8.977a.978.978,0,0,1-.61-1L18.753,4.8a15.107,15.107,0,0,0-10.209,0l.317,3.174a.977.977,0,0,1-.61,1L3.644,10.821a.977.977,0,0,1-1.192-.389L.149,6.745A.977.977,0,0,1,.286,5.536ZM5.118,16.422V14.289a.64.64,0,0,0-.64-.64H2.346a.64.64,0,0,0-.64.64v2.133a.64.64,0,0,0,.64.64H4.479A.64.64,0,0,0,5.118,16.422Zm5.118,0V14.289a.64.64,0,0,0-.64-.64H7.464a.64.64,0,0,0-.64.64v2.133a.64.64,0,0,0,.64.64H9.6A.64.64,0,0,0,10.237,16.422Zm5.118,0V14.289a.64.64,0,0,0-.64-.64H12.583a.64.64,0,0,0-.64.64v2.133a.64.64,0,0,0,.64.64h2.133A.64.64,0,0,0,15.355,16.422Zm5.118,0V14.289a.64.64,0,0,0-.64-.64H17.7a.64.64,0,0,0-.64.64v2.133a.64.64,0,0,0,.64.64h2.133A.64.64,0,0,0,20.473,16.422Zm5.118,0V14.289a.64.64,0,0,0-.64-.64H22.819a.64.64,0,0,0-.64.64v2.133a.64.64,0,0,0,.64.64h2.133A.64.64,0,0,0,25.592,16.422ZM7.677,21.54V19.407a.64.64,0,0,0-.64-.64H4.905a.64.64,0,0,0-.64.64V21.54a.64.64,0,0,0,.64.64H7.038A.64.64,0,0,0,7.677,21.54Zm5.118,0V19.407a.64.64,0,0,0-.64-.64H10.023a.64.64,0,0,0-.64.64V21.54a.64.64,0,0,0,.64.64h2.133A.64.64,0,0,0,12.8,21.54Zm5.118,0V19.407a.64.64,0,0,0-.64-.64H15.142a.64.64,0,0,0-.64.64V21.54a.64.64,0,0,0,.64.64h2.133A.64.64,0,0,0,17.914,21.54Zm5.118,0V19.407a.64.64,0,0,0-.64-.64H20.26a.64.64,0,0,0-.64.64V21.54a.64.64,0,0,0,.64.64h2.133A.64.64,0,0,0,23.033,21.54ZM5.118,26.658V24.526a.64.64,0,0,0-.64-.64H2.346a.64.64,0,0,0-.64.64v2.133a.64.64,0,0,0,.64.64H4.479A.64.64,0,0,0,5.118,26.658Zm15.355,0V24.526a.64.64,0,0,0-.64-.64H7.464a.64.64,0,0,0-.64.64v2.133a.64.64,0,0,0,.64.64H19.834A.64.64,0,0,0,20.473,26.658Zm5.118,0V24.526a.64.64,0,0,0-.64-.64H22.819a.64.64,0,0,0-.64.64v2.133a.64.64,0,0,0,.64.64h2.133A.64.64,0,0,0,25.592,26.658Z" transform="translate(0 0)"/>
  </g>
</svg>
