<svg xmlns="http://www.w3.org/2000/svg" width="26.798" height="26.798" viewBox="0 0 26.798 26.798">
  <g id="undo-alt" transform="translate(0 0)" style="isolation: isolate">
    <path id="undo-alt-2" data-name="undo-alt" d="M21.375,8a13.354,13.354,0,0,0-9.231,3.711l-1.93-1.93A1.3,1.3,0,0,0,8,10.7v7.243a1.3,1.3,0,0,0,1.3,1.3H16.54a1.3,1.3,0,0,0,.917-2.214L15.2,14.768a9.076,9.076,0,1,1,.221,13.462.647.647,0,0,0-.884.03L12.395,30.4a.65.65,0,0,0,.026.942A13.4,13.4,0,1,0,21.375,8Z" transform="translate(-8 -8)"/>
  </g>
</svg>
