<svg xmlns="http://www.w3.org/2000/svg" width="26.878" height="26.878" viewBox="0 0 26.878 26.878">
  <g id="universal-access" style="isolation: isolate">
    <path id="universal-access-2" data-name="universal-access" d="M21.439,10.168A11.272,11.272,0,1,1,10.168,21.439,11.266,11.266,0,0,1,21.439,10.168m0-2.168A13.439,13.439,0,1,0,34.878,21.439,13.439,13.439,0,0,0,21.439,8Zm0,3.035a10.4,10.4,0,1,0,10.4,10.4A10.4,10.4,0,0,0,21.439,11.035Zm0,2.384a1.951,1.951,0,1,1-1.951,1.951A1.951,1.951,0,0,1,21.439,13.419Zm6.38,5.312a38.787,38.787,0,0,1-4.451.857c.046,5.474.667,6.668,1.357,8.433a.975.975,0,0,1-1.817.71A15.554,15.554,0,0,1,21.7,24.474h-.525A15.55,15.55,0,0,1,19.97,28.73a.975.975,0,1,1-1.817-.71c.689-1.763,1.311-2.956,1.357-8.433a38.766,38.766,0,0,1-4.451-.857.867.867,0,0,1,.4-1.688c5.239,1.237,6.735,1.235,11.964,0a.867.867,0,1,1,.4,1.688Z" transform="translate(-8 -8)"/>
  </g>
</svg>
