<svg xmlns="http://www.w3.org/2000/svg" width="28.554" height="28.55" viewBox="0 0 28.554 28.55">
  <g id="upload" style="isolation: isolate">
    <path id="upload-2" data-name="upload" d="M16.508,21.486H12.046a1.335,1.335,0,0,1-1.338-1.338V10.778H5.817a1.113,1.113,0,0,1-.786-1.9L13.513.389a1.08,1.08,0,0,1,1.522,0l8.488,8.488a1.113,1.113,0,0,1-.786,1.9H17.846v9.369A1.335,1.335,0,0,1,16.508,21.486Zm12.046-.446v6.246a1.335,1.335,0,0,1-1.338,1.338H1.338A1.335,1.335,0,0,1,0,27.286V21.04A1.335,1.335,0,0,1,1.338,19.7H8.923v.446a3.125,3.125,0,0,0,3.123,3.123h4.462a3.125,3.125,0,0,0,3.123-3.123V19.7h7.585A1.335,1.335,0,0,1,28.554,21.04Zm-6.915,4.908a1.115,1.115,0,1,0-1.115,1.115A1.119,1.119,0,0,0,21.638,25.948Zm3.569,0a1.115,1.115,0,1,0-1.115,1.115A1.119,1.119,0,0,0,25.208,25.948Z" transform="translate(0 -0.075)"/>
  </g>
</svg>
