<svg xmlns="http://www.w3.org/2000/svg" width="34" height="38.85" viewBox="0 0 34 38.85">
  <g id="user-graduate-solid" style="isolation: isolate">
    <path id="user-graduate-solid-2" data-name="user-graduate-solid" d="M16.6.084a1.88,1.88,0,0,1,.713,0L32.491,3.12a1.818,1.818,0,0,1,0,3.567L26.67,7.855v4.333a9.713,9.713,0,0,1-19.427,0V7.855L3.6,7.126v4.94l1.191,5.949a1.237,1.237,0,0,1-.25,1.009,1.218,1.218,0,0,1-.941.448H1.173a1.205,1.205,0,0,1-.941-.448,1.192,1.192,0,0,1-.25-1.009l1.191-5.949V6.618a1.818,1.818,0,0,1,.25-3.5ZM8.45,24.914a2.167,2.167,0,0,1,2.231.645l5.388,5.729a1.215,1.215,0,0,0,1.768,0l5.388-5.729a2.167,2.167,0,0,1,2.231-.645,12.244,12.244,0,0,1,8.5,11.656,2.33,2.33,0,0,1-2.33,2.33H2.289a2.335,2.335,0,0,1-2.33-2.33A12.247,12.247,0,0,1,8.45,24.914Z" transform="translate(0.045 -0.05)"/>
  </g>
</svg>
