<svg xmlns="http://www.w3.org/2000/svg" width="31.574" height="26.313" viewBox="0 0 31.574 26.313">
  <g id="volume-up" style="isolation: isolate">
    <path id="volume-up-2" data-name="volume-up" d="M11.787,19.013,6.91,23.889H1.316A1.315,1.315,0,0,0,0,25.2V33.1a1.316,1.316,0,0,0,1.316,1.316H6.91l4.877,4.876a1.316,1.316,0,0,0,2.246-.93V19.943A1.316,1.316,0,0,0,11.787,19.013Zm12.79-2.8a1.327,1.327,0,0,0-1.456,2.218,12.808,12.808,0,0,1,0,21.442,1.326,1.326,0,1,0,1.456,2.217,15.461,15.461,0,0,0,0-25.877Zm1.735,12.938a10.121,10.121,0,0,0-4.7-8.564A1.31,1.31,0,0,0,19.794,21a1.331,1.331,0,0,0,.406,1.829,7.492,7.492,0,0,1,0,12.654,1.331,1.331,0,0,0-.406,1.829,1.312,1.312,0,0,0,1.815.409A10.12,10.12,0,0,0,26.311,29.151ZM18.54,24.938a1.316,1.316,0,1,0-1.27,2.306,2.161,2.161,0,0,1,0,3.816,1.316,1.316,0,0,0,1.27,2.306,4.793,4.793,0,0,0,0-8.427Z" transform="translate(0 -15.995)"/>
  </g>
</svg>
