<svg xmlns="http://www.w3.org/2000/svg" width="22.004" height="22.003" viewBox="0 0 22.004 22.003">
  <g id="volume-down" style="isolation: isolate">
    <path id="volume-down-2" data-name="volume-down" d="M12.321,65.4l-5.1,5.1H1.375A1.375,1.375,0,0,0,0,71.875v8.251A1.375,1.375,0,0,0,1.375,81.5H7.223l5.1,5.1a1.376,1.376,0,0,0,2.348-.972V66.375A1.376,1.376,0,0,0,12.321,65.4ZM19.381,71.6a1.376,1.376,0,1,0-1.327,2.41,2.259,2.259,0,0,1,0,3.99,1.376,1.376,0,1,0,1.327,2.41,5.01,5.01,0,0,0,0-8.81Z" transform="translate(0 -64.999)"/>
  </g>
</svg>
