<svg xmlns="http://www.w3.org/2000/svg" width="26.322" height="28" viewBox="0 0 26.322 28">
  <path id="wheelchair-move-solid" d="M18.948,2.625a2.851,2.851,0,0,1,5.684,0,2.851,2.851,0,0,1-5.684,0ZM12.109,6.634a1.007,1.007,0,0,0-.971.093L8.716,8.405a2,2,0,0,1-2.653-.35,1.666,1.666,0,0,1,.379-2.45L8.864,3.927a5.066,5.066,0,0,1,4.861-.459l5.353,2.324a2.522,2.522,0,0,1,.9,4.129l-2.268,2.33h5.767a2.693,2.693,0,0,1,2.789,3.139L24.6,23.095a1.9,1.9,0,0,1-2.232,1.373,1.757,1.757,0,0,1-1.486-2.062l1.445-6.655H18.161a8.115,8.115,0,0,1,.788,3.5c0,4.834-4.24,8.75-9.474,8.75S0,24.084,0,19.25,4.24,10.5,9.474,10.5a10.031,10.031,0,0,1,1.918.18L14.6,7.716ZM9.474,24.5a5.48,5.48,0,0,0,5.684-5.25A5.48,5.48,0,0,0,9.474,14,5.48,5.48,0,0,0,3.79,19.25,5.48,5.48,0,0,0,9.474,24.5Z"/>
</svg>
