<svg xmlns="http://www.w3.org/2000/svg" width="27.171" height="27.171" viewBox="0 0 27.171 27.171">
  <g id="wheelchair" style="isolation: isolate">
    <path id="wheelchair-2" data-name="wheelchair" d="M26.328,20.467l.755,1.521a.849.849,0,0,1-.383,1.138l-3.474,1.745a1.7,1.7,0,0,1-2.292-.8L17.6,16.982H10.189a1.7,1.7,0,0,1-1.681-1.458C6.71,2.935,6.813,3.717,6.793,3.4a3.4,3.4,0,1,1,3.894,3.36l.248,1.735h6.9a.849.849,0,0,1,.849.849v1.7a.849.849,0,0,1-.849.849H11.42l.243,1.7H18.68a1.7,1.7,0,0,1,1.537.976l3.052,6.5,1.92-.974a.849.849,0,0,1,1.138.383Zm-9.8-1.787h-1.3a5.944,5.944,0,1,1-8.837-6.005l-.5-3.52A9.34,9.34,0,1,0,17.89,21.589Z" transform="translate(0 0)"/>
  </g>
</svg>
