<svg xmlns="http://www.w3.org/2000/svg" width="41.32" height="28.924" viewBox="0 0 41.32 28.924">
  <g id="wifi" style="isolation: isolate">
    <path id="wifi-2" data-name="wifi" d="M40.992,39.933a30.019,30.019,0,0,0-40.663,0,1.026,1.026,0,0,0-.023,1.484L2.517,43.61a1.048,1.048,0,0,0,1.446.025,24.77,24.77,0,0,1,33.395,0A1.049,1.049,0,0,0,38.8,43.61l2.211-2.193a1.027,1.027,0,0,0-.023-1.484ZM20.661,52.66a4.132,4.132,0,1,0,4.132,4.132A4.132,4.132,0,0,0,20.661,52.66Zm13.085-5.4a19.82,19.82,0,0,0-26.17,0,1.021,1.021,0,0,0-.037,1.495l2.224,2.194A1.054,1.054,0,0,0,11.186,51a14.541,14.541,0,0,1,18.948,0,1.053,1.053,0,0,0,1.424-.052l2.224-2.194A1.021,1.021,0,0,0,33.745,47.263Z" transform="translate(-0.001 -32)"/>
  </g>
</svg>
