<svg xmlns="http://www.w3.org/2000/svg" width="28.6" height="25.025" viewBox="0 0 28.6 25.025">
  <g id="window-close" style="isolation: isolate">
    <path id="window-close-2" data-name="window-close" d="M25.919,32H2.681A2.682,2.682,0,0,0,0,34.681V54.344a2.682,2.682,0,0,0,2.681,2.681H25.919A2.682,2.682,0,0,0,28.6,54.344V34.681A2.682,2.682,0,0,0,25.919,32Zm0,22.009a.336.336,0,0,1-.335.335H3.016a.336.336,0,0,1-.335-.335V35.016a.336.336,0,0,1,.335-.335H25.584a.336.336,0,0,1,.335.335Zm-6-12.926-3.43,3.43,3.43,3.43a.668.668,0,0,1,0,.938l-1.246,1.246a.668.668,0,0,1-.938,0L14.3,46.7l-3.43,3.43a.668.668,0,0,1-.938,0L8.686,48.881a.668.668,0,0,1,0-.938l3.43-3.43-3.43-3.43a.668.668,0,0,1,0-.938L9.932,38.9a.668.668,0,0,1,.938,0l3.43,3.43,3.43-3.43a.668.668,0,0,1,.938,0l1.246,1.246a.658.658,0,0,1,0,.938Z" transform="translate(0 -32)"/>
  </g>
</svg>
