<svg xmlns="http://www.w3.org/2000/svg" width="28" height="28" viewBox="0 0 28 28">
  <g id="window-restore-regular" style="isolation: isolate">
    <path id="window-restore-regular-2" data-name="window-restore-regular" d="M23.625,2.625H11.375a1.748,1.748,0,0,0-1.75,1.75V5.25H7V4.375A4.374,4.374,0,0,1,11.375,0h12.25A4.374,4.374,0,0,1,28,4.375v12.25A4.374,4.374,0,0,1,23.625,21H22.75V18.375h.875a1.748,1.748,0,0,0,1.75-1.75V4.375A1.748,1.748,0,0,0,23.625,2.625ZM2.625,24.5a.878.878,0,0,0,.875.875h14a.878.878,0,0,0,.875-.875V14H2.625ZM3.5,7h14A3.5,3.5,0,0,1,21,10.5v14A3.5,3.5,0,0,1,17.5,28H3.5A3.5,3.5,0,0,1,0,24.5v-14A3.5,3.5,0,0,1,3.5,7Z"/>
  </g>
</svg>
