<svg xmlns="http://www.w3.org/2000/svg" width="28.6" height="25.025" viewBox="0 0 28.6 25.025">
  <g id="window-close" style="isolation: isolate">
    <path id="window-close-2" data-name="window-close" d="M25.919,32H2.681A2.682,2.682,0,0,0,0,34.681V54.344a2.682,2.682,0,0,0,2.681,2.681H25.919A2.682,2.682,0,0,0,28.6,54.344V34.681A2.682,2.682,0,0,0,25.919,32Zm-4.67,16.227a.688.688,0,0,1,0,.972l-2.262,2.262a.688.688,0,0,1-.972,0L14.3,47.713l-3.715,3.748a.688.688,0,0,1-.972,0L7.351,49.2a.688.688,0,0,1,0-.972L11.1,44.513,7.351,40.8a.688.688,0,0,1,0-.972l2.262-2.262a.688.688,0,0,1,.972,0L14.3,41.312l3.715-3.748a.688.688,0,0,1,.972,0l2.262,2.262a.688.688,0,0,1,0,.972L17.5,44.513Z" transform="translate(0 -32)"/>
  </g>
</svg>
