<svg xmlns="http://www.w3.org/2000/svg" width="28" height="28" viewBox="0 0 28 28">
  <g id="window-restore-solid" style="isolation: isolate">
    <path id="window-restore-solid-2" data-name="window-restore-solid" d="M23.625,3.5H11.375a.878.878,0,0,0-.875.875V5.25H7V4.375A4.374,4.374,0,0,1,11.375,0h12.25A4.374,4.374,0,0,1,28,4.375v12.25A4.374,4.374,0,0,1,23.625,21H22.75V17.5h.875a.878.878,0,0,0,.875-.875V4.375A.878.878,0,0,0,23.625,3.5ZM0,10.5A3.5,3.5,0,0,1,3.5,7h14A3.5,3.5,0,0,1,21,10.5v14A3.5,3.5,0,0,1,17.5,28H3.5A3.5,3.5,0,0,1,0,24.5Zm3.5,1.75A1.748,1.748,0,0,0,5.25,14h10.5a1.75,1.75,0,0,0,0-3.5H5.25A1.748,1.748,0,0,0,3.5,12.25Z"/>
  </g>
</svg>
