<svg xmlns="http://www.w3.org/2000/svg" width="32.247" height="25.042" viewBox="0 0 32.247 25.042">
  <g id="won-sign" style="isolation: isolate">
    <path id="won-sign-2" data-name="won-sign" d="M31.575,41.618a.674.674,0,0,0,.672-.672V38.707a.674.674,0,0,0-.672-.672H28.888l1.041-4.512a.674.674,0,0,0-.655-.823H26.693a.666.666,0,0,0-.655.532l-.806,4.8H19.079l-1.1-4.815a.67.67,0,0,0-.655-.521H14.858a.67.67,0,0,0-.655.521l-1.12,4.815H7l-.98-4.8a.672.672,0,0,0-.661-.537H3a.669.669,0,0,0-.655.817l1.013,4.518H.672A.674.674,0,0,0,0,38.707v2.239a.674.674,0,0,0,.672.672H4.16l.4,1.791H.672A.674.674,0,0,0,0,44.082v2.239a.674.674,0,0,0,.672.672h4.7l2.29,10.223a.671.671,0,0,0,.655.526h3.18a.676.676,0,0,0,.655-.521l2.368-10.228H17.6l2.374,10.228a.676.676,0,0,0,.655.521h3.18a.676.676,0,0,0,.655-.521l2.357-10.228h4.753a.674.674,0,0,0,.672-.672V44.082a.674.674,0,0,0-.672-.672H27.651l.414-1.791Zm-21.285,8.4a20.9,20.9,0,0,0-.409,2.642H9.82a24.443,24.443,0,0,0-.381-2.642l-.616-3.023H11Zm1.54-6.606H8.09l-.364-1.791h4.524Zm3.521,0,.112-.481c.106-.448.2-.9.269-1.31h.661c.073.414.162.862.269,1.31l.112.481Zm7.328,6.606a24.443,24.443,0,0,0-.381,2.642h-.062a22.2,22.2,0,0,0-.409-2.642l-.694-3.023h2.189ZM24.09,43.41H20.317l-.409-1.791h4.568Z" transform="translate(0 -32.7)"/>
  </g>
</svg>
