<svg xmlns="http://www.w3.org/2000/svg" width="27.762" height="36.318" viewBox="0 0 27.762 36.318">
  <g id="yen-sign" style="isolation: isolate">
    <path id="yen-sign-2" data-name="yen-sign" d="M47.579,32H42.285a.973.973,0,0,0-.876.543L36.919,41.72c-1.175,2.813-2.2,5.829-2.2,5.829h-.105s-1.021-3.016-2.2-5.829l-4.491-9.177A.973.973,0,0,0,27.053,32H21.767a.973.973,0,0,0-.859,1.427L27.4,45.619H22.675a.976.976,0,0,0-.973.973v2.594a.976.976,0,0,0,.973.973h7.15l1.605,3.016v2.173H22.675a.976.976,0,0,0-.973.973v2.594a.976.976,0,0,0,.973.973h8.755v7.458a.976.976,0,0,0,.973.973h4.54a.976.976,0,0,0,.973-.973V59.887h8.755a.976.976,0,0,0,.973-.973V56.32a.976.976,0,0,0-.973-.973H37.916V53.175l1.605-3.016h7.15a.976.976,0,0,0,.973-.973V46.592a.976.976,0,0,0-.973-.973H41.945l6.493-12.192A.97.97,0,0,0,47.579,32Z" transform="translate(-20.794 -32)"/>
  </g>
</svg>
