<svg width="13" height="17" viewBox="0 0 13 17" fill="none" xmlns="http://www.w3.org/2000/svg">
<path d="M12.1211 7.95312C11.9336 8.14062 11.6836 8.23438 11.4336 8.23438C11.1523 8.23438 10.9023 8.14062 10.7148 7.95312L7.43359 4.67188V14.2344C7.43359 14.7969 6.96484 15.2344 6.43359 15.2344C5.93359 15.2344 5.43359 14.7969 5.43359 14.2344V4.67188L2.12109 7.95312C1.74609 8.35938 1.08984 8.35938 0.714844 7.95312C0.308594 7.57812 0.308594 6.92188 0.714844 6.54688L5.71484 1.54688C6.08984 1.14062 6.74609 1.14062 7.12109 1.54688L12.1211 6.54688C12.5273 6.92188 12.5273 7.57812 12.1211 7.95312Z" fill="#080A0D"/>
</svg>
