<svg width="18" height="19" viewBox="0 0 18 19" fill="none" xmlns="http://www.w3.org/2000/svg">
<path d="M15 2.81348H14.25V1.31348H12.75V2.81348H5.25V1.31348H3.75V2.81348H3C2.60254 2.81466 2.2217 2.97308 1.94065 3.25413C1.6596 3.53518 1.50119 3.91602 1.5 4.31348V16.3135C1.50119 16.7109 1.6596 17.0918 1.94065 17.3728C2.2217 17.6539 2.60254 17.8123 3 17.8135H15C15.3975 17.8123 15.7783 17.6539 16.0593 17.3728C16.3404 17.0918 16.4988 16.7109 16.5 16.3135V4.31348C16.4988 3.91602 16.3404 3.53518 16.0593 3.25413C15.7783 2.97308 15.3975 2.81466 15 2.81348ZM15 16.3135H3V6.56348H15V16.3135Z" fill="#0057A3"/>
</svg>
