<svg xmlns="http://www.w3.org/2000/svg" width="12" height="13" viewBox="0 0 12 13" fill="none">
<path d="M10.6667 10.901H1.33333V1.56771H6V0.234375H1.33333C0.979711 0.234375 0.640573 0.374851 0.390524 0.624899C0.140476 0.874948 0 1.21409 0 1.56771V10.901C0 11.2547 0.140476 11.5938 0.390524 11.8439C0.640573 12.0939 0.979711 12.2344 1.33333 12.2344H10.6667C11.02 12.2333 11.3585 12.0925 11.6083 11.8427C11.8581 11.5929 11.9989 11.2543 12 10.901V6.23438H10.6667V10.901ZM7.33333 0.234375V1.56771H9.72667L3.17333 8.12104L4.11333 9.06104L10.6667 2.50771V4.90104H12V0.234375H7.33333Z" fill="#0057A3"/>
</svg>
