<svg width="12" height="17" viewBox="0 0 12 17" fill="none" xmlns="http://www.w3.org/2000/svg">
<path d="M1.84375 7.23438C1.09375 7.23438 0.6875 6.32812 1.25 5.76562L5.375 1.51562C5.53125 1.32812 5.78125 1.23438 6 1.23438C6.21875 1.23438 6.4375 1.32812 6.59375 1.51562L10.7188 5.76562C11.2812 6.32812 10.875 7.23438 10.125 7.23438H1.84375ZM10.125 9.23438C10.875 9.23438 11.2812 10.1719 10.7188 10.7344L6.59375 14.9844C6.4375 15.1719 6.21875 15.2344 6 15.2344C5.75 15.2344 5.53125 15.1719 5.375 14.9844L1.25 10.7344C0.6875 10.1719 1.09375 9.23438 1.84375 9.23438H10.125Z" fill="#080A0D"/>
</svg>
